<svg xmlns="http://www.w3.org/2000/svg" width="44" height="44" viewBox="0 0 44 44">
  <g id="icon_Enterprise_wechat" data-name="icon_Enterprise wechat" transform="translate(-182 -269)">
    <g id="矩形_8331" data-name="矩形 8331" transform="translate(182 269)" fill="#fff" stroke="#f2f2f2" stroke-width="1">
      <rect width="44" height="44" rx="6" stroke="none"/>
      <rect x="0.5" y="0.5" width="43" height="43" rx="5.5" fill="none"/>
    </g>
    <g id="企微" transform="translate(126 140.448)">
      <path id="路径_24797" data-name="路径 24797" d="M658.468,730.24c0,.02.02.02.02.04.02.02.04.04.06.04a.529.529,0,0,0,.12.1,4.952,4.952,0,0,1,1.359,2.538.44.44,0,0,0,.02.16.583.583,0,0,0,.04.18,1.665,1.665,0,0,0,.42.719,1.611,1.611,0,0,0,2.278-2.278,1.792,1.792,0,0,0-.779-.44c-.04,0-.06-.02-.1-.02s-.06-.02-.1-.02a4.939,4.939,0,0,1-2.6-1.379l-.16-.16a.363.363,0,0,0-.54,0A.377.377,0,0,0,658.468,730.24Z" transform="translate(-575.822 -572.273)" fill="#fb6500"/>
      <path id="路径_24798" data-name="路径 24798" d="M804.48,640.956c.02,0,.02-.02.04-.02.02-.02.04-.04.04-.06a.531.531,0,0,0,.1-.12A4.952,4.952,0,0,1,807.2,639.4a.439.439,0,0,0,.16-.02.583.583,0,0,0,.18-.04,1.665,1.665,0,0,0,.719-.42,1.611,1.611,0,0,0-2.278-2.278,1.792,1.792,0,0,0-.44.779c0,.04-.02.06-.02.1s-.02.06-.02.1a4.939,4.939,0,0,1-1.379,2.6l-.16.16a.363.363,0,0,0,0,.54A.375.375,0,0,0,804.48,640.956Z" transform="translate(-716.737 -481.751)" fill="#0082ef"/>
      <path id="路径_24799" data-name="路径 24799" d="M715.2,494.5c0-.02-.02-.02-.02-.04-.02-.02-.04-.04-.06-.04a.53.53,0,0,0-.12-.1,4.952,4.952,0,0,1-1.359-2.538.441.441,0,0,0-.02-.16.584.584,0,0,0-.04-.18,1.665,1.665,0,0,0-.42-.719A1.611,1.611,0,0,0,710.88,493a1.792,1.792,0,0,0,.779.44c.04,0,.06.02.1.02s.06.02.1.02a4.939,4.939,0,0,1,2.6,1.379l.16.16a.363.363,0,0,0,.54,0A.375.375,0,0,0,715.2,494.5Z" transform="translate(-626.214 -340.388)" fill="#2dbc00"/>
      <path id="路径_24800" data-name="路径 24800" d="M568.737,584.228c-.02,0-.02.02-.04.02-.02.02-.04.04-.04.06a.531.531,0,0,0-.1.12,4.952,4.952,0,0,1-2.538,1.359.441.441,0,0,0-.16.02.584.584,0,0,0-.18.04,1.665,1.665,0,0,0-.719.42,1.611,1.611,0,0,0,2.278,2.278,1.792,1.792,0,0,0,.44-.779c0-.04.02-.06.02-.1s.02-.06.02-.1a4.938,4.938,0,0,1,1.379-2.6l.16-.16a.363.363,0,0,0,0-.54A.377.377,0,0,0,568.737,584.228Z" transform="translate(-484.851 -431.358)" fill="#fc0"/>
      <path id="路径_24801" data-name="路径 24801" d="M86.284,145a9.633,9.633,0,0,0-1.8-2.538,12.094,12.094,0,0,0-7.375-3.5,13.354,13.354,0,0,0-1.519-.08,12.706,12.706,0,0,0-8.874,3.577,9.633,9.633,0,0,0-1.8,2.538,8.8,8.8,0,0,0-.919,3.9,9.189,9.189,0,0,0,1.539,5.016,14.253,14.253,0,0,0,2.378,2.658l-.46,1.919-.14.54c-.02.06-.04.1-.06.16a.865.865,0,0,1-.02.1v.08a.9.9,0,0,0,.9.9.806.806,0,0,0,.44-.12h.02c.02-.02.04-.02.06-.04l3.318-1.659a13.284,13.284,0,0,0,2.158.42,11.9,11.9,0,0,0,1.459.08,13.117,13.117,0,0,0,1.519-.08,13.806,13.806,0,0,0,2.918-.68,2.016,2.016,0,0,1-.3-.14,1.616,1.616,0,0,1-.8-1.559,10.106,10.106,0,0,1-2.079.44c-.44.04-.859.08-1.279.08-.4,0-.819-.02-1.219-.06a1.375,1.375,0,0,1-.26-.04,11.354,11.354,0,0,1-1.639-.34.934.934,0,0,0-.34-.06,1.088,1.088,0,0,0-.54.14c-.02.02-.04.02-.08.04l-2.1,1.239c-.04.02-.06.04-.1.04a.137.137,0,0,1-.14-.14l.08-.32c.02-.08.06-.2.1-.34.1-.36.22-.839.32-1.2a1.013,1.013,0,0,0,.04-.26.911.911,0,0,0-.34-.7,3.842,3.842,0,0,1-.34-.26c-.18-.14-.34-.3-.52-.46a8.853,8.853,0,0,1-1.2-1.419,7.148,7.148,0,0,1-1.219-3.957,6.975,6.975,0,0,1,.719-3.1,7.878,7.878,0,0,1,1.439-2.039,9.946,9.946,0,0,1,6.136-2.878c.42-.04.839-.06,1.219-.06a9.354,9.354,0,0,1,1.279.08,10.108,10.108,0,0,1,6.1,2.878,7.878,7.878,0,0,1,1.439,2.039,6.953,6.953,0,0,1,.719,3.078,1.939,1.939,0,0,1-.02.34,1.608,1.608,0,0,1,1.979.24l.08.08c.02-.22.02-.46.02-.68A8.9,8.9,0,0,0,86.284,145Z" fill="#0079de"/>
    </g>
  </g>
</svg>
