<svg xmlns="http://www.w3.org/2000/svg" width="44" height="44" viewBox="0 0 44 44">
  <g id="icon_APP" transform="translate(-182 -269)">
    <g id="矩形_8331" data-name="矩形 8331" transform="translate(182 269)" fill="#fff" stroke="#f2f2f2" stroke-width="1">
      <rect width="44" height="44" rx="6" stroke="none"/>
      <rect x="0.5" y="0.5" width="43" height="43" rx="5.5" fill="none"/>
    </g>
    <g id="icon_APP-2" data-name="icon_APP">
      <rect id="矩形_4" data-name="矩形 4" width="27.999" height="27.999" transform="translate(190 277)" fill="#2167f7" opacity="0"/>
      <path id="manage01" d="M119.408,87.432H111.62a2.194,2.194,0,0,1-2.2-2.2V77.443a2.216,2.216,0,0,1,2.2-2.2h7.789a2.194,2.194,0,0,1,2.2,2.2v7.789a2.194,2.194,0,0,1-2.2,2.2Zm0,14.63H111.62a2.194,2.194,0,0,1-2.2-2.2V92.075a2.194,2.194,0,0,1,2.2-2.2h7.789a2.194,2.194,0,0,1,2.2,2.2v7.789a2.2,2.2,0,0,1-2.2,2.2Zm14.63,0h-7.787a2.194,2.194,0,0,1-2.2-2.2V92.075a2.194,2.194,0,0,1,2.2-2.2h7.789a2.194,2.194,0,0,1,2.2,2.2v7.789a2.216,2.216,0,0,1-2.2,2.2ZM136.775,79.8l-5.089-5.089a2.2,2.2,0,0,0-3.112,0L123.485,79.8a2.2,2.2,0,0,0,0,3.112L128.574,88a2.2,2.2,0,0,0,3.112,0l5.089-5.091A2.2,2.2,0,0,0,136.775,79.8Zm-6.189,5.846a.644.644,0,0,1-.894,0l-3.85-3.85a.644.644,0,0,1,0-.894l3.85-3.85a.644.644,0,0,1,.894,0l3.85,3.85a.644.644,0,0,1,0,.894Z" transform="translate(80.581 202.935)" fill="#2167f7"/>
    </g>
  </g>
</svg>
