<svg xmlns="http://www.w3.org/2000/svg" width="44" height="44" viewBox="0 0 44 44">
  <g id="icon_api" transform="translate(-890 -392)">
    <g id="矩形_8335" data-name="矩形 8335" transform="translate(890 392)" fill="#fff" stroke="#f2f2f2" stroke-width="1">
      <rect width="44" height="44" rx="6" stroke="none"/>
      <rect x="0.5" y="0.5" width="43" height="43" rx="5.5" fill="none"/>
    </g>
    <path id="api-fill_1_" data-name="api-fill (1)" d="M132,105.634l-1.455-1.455a.269.269,0,0,0-.2-.079.284.284,0,0,0-.2.079l-2.611,2.611a6.871,6.871,0,0,0-8.7.834l-3.5,3.5a.275.275,0,0,0,0,.388l9.324,9.324a.269.269,0,0,0,.2.079.29.29,0,0,0,.2-.079l3.5-3.5a6.87,6.87,0,0,0,.834-8.7L132,106.025A.28.28,0,0,0,132,105.634Zm-11.626,13.654a.275.275,0,0,0-.388,0l-2.285,2.285-3.1-3.1,2.289-2.289a.275.275,0,0,0,0-.388l-1.249-1.249a.275.275,0,0,0-.388,0l-2.289,2.289-1.476-1.476a.269.269,0,0,0-.2-.079.29.29,0,0,0-.2.079l-3.493,3.5a6.87,6.87,0,0,0-.834,8.7l-2.611,2.611a.275.275,0,0,0,0,.388l1.455,1.455a.269.269,0,0,0,.2.079.284.284,0,0,0,.2-.079l2.611-2.611a6.871,6.871,0,0,0,8.7-.834l3.5-3.5a.275.275,0,0,0,0-.388l-1.476-1.476,2.289-2.289a.275.275,0,0,0,0-.388Z" transform="translate(793.925 295.9)" fill="#7e4fe8"/>
  </g>
</svg>
