<svg xmlns="http://www.w3.org/2000/svg" xmlns:xlink="http://www.w3.org/1999/xlink" width="44" height="44" viewBox="0 0 44 44">
  <defs>
    <linearGradient id="linear-gradient" x1="0.5" x2="0.5" y2="1" gradientUnits="objectBoundingBox">
      <stop offset="0" stop-color="#00ea66"/>
      <stop offset="1" stop-color="#00cb57"/>
    </linearGradient>
  </defs>
  <g id="icon_Small_program" data-name="icon_Small program" transform="translate(-890 -392)">
    <rect id="矩形_8332" data-name="矩形 8332" width="44" height="44" rx="6" transform="translate(890 392)" fill="#d9ffea"/>
    <g id="icon_Small_program-2" data-name="icon_Small program" transform="translate(708 123)">
      <g id="矩形_8334" data-name="矩形 8334" transform="translate(182 269)" fill="#fff" stroke="#f2f2f2" stroke-width="1">
        <rect width="44" height="44" rx="6" stroke="none"/>
        <rect x="0.5" y="0.5" width="43" height="43" rx="5.5" fill="none"/>
      </g>
      <g id="组_19217" data-name="组 19217">
        <rect id="矩形_4" data-name="矩形 4" width="28" height="28" transform="translate(190 277)" opacity="0" fill="url(#linear-gradient)"/>
        <path id="mini-program-fill" d="M104.709,100.3l-.094.028a2.131,2.131,0,0,1-.58.087c-.854,0-1.336-.577-1.078-1.289a2.054,2.054,0,0,1,1.3-1.163,2.25,2.25,0,0,0,1.6-2.037,2.711,2.711,0,0,0-5.333,0v6.815a4.519,4.519,0,0,1-2.372,3.889,5.361,5.361,0,0,1-2.666.7,4.838,4.838,0,0,1-5.04-4.592,4.243,4.243,0,0,1,.63-2.222,4.98,4.98,0,0,1,2.9-2.157,2.17,2.17,0,0,1,.644-.1c.857,0,1.341.58,1.082,1.294a2.092,2.092,0,0,1-1.205,1.124q-.1.033-.195.07a2.225,2.225,0,0,0-1.485,1.991,2.711,2.711,0,0,0,5.333,0V95.919a4.519,4.519,0,0,1,2.372-3.889,5.361,5.361,0,0,1,2.666-.7,4.838,4.838,0,0,1,5.04,4.592,4.243,4.243,0,0,1-.63,2.222A4.989,4.989,0,0,1,104.709,100.3Zm-19.376-.967a14,14,0,1,0,14-14,14,14,0,0,0-14,14Z" transform="translate(104.667 191.668)" fill="url(#linear-gradient)"/>
      </g>
    </g>
  </g>
</svg>
