<svg xmlns="http://www.w3.org/2000/svg" width="44" height="44" viewBox="0 0 44 44">
  <g id="icon_Dingtalk" transform="translate(-182 -269)">
    <g id="矩形_8331" data-name="矩形 8331" transform="translate(182 269)" fill="#fff" stroke="#f2f2f2" stroke-width="1">
      <rect width="44" height="44" rx="6" stroke="none"/>
      <rect x="0.5" y="0.5" width="43" height="43" rx="5.5" fill="none"/>
    </g>
    <path id="ic_marketing_dingdin" d="M140.411,10.468a5.554,5.554,0,0,1-.32.865h0l-.019.035c-.933,2.1-3.367,6.207-3.367,6.207l-.014-.026-.711,1.3h3.43L132.862,28l1.487-6.225h-2.7l.938-4.116c-.759.194-1.658.457-2.718.817,0,0-1.435.884-4.137-1.7,0,0-1.823-1.687-.767-2.107a29.572,29.572,0,0,1,3.547-.6c1.842-.263,2.975-.4,2.975-.4s-5.682.09-7.025-.133-3.058-2.583-3.422-4.66c0,0-.564-1.139,1.211-.6s9.117,2.1,9.117,2.1S121.814,7.3,121.182,6.548A12.169,12.169,0,0,1,119.472.4a.435.435,0,0,1,.569-.376S127.1,3.412,131.93,5.267s9.023,2.8,8.481,5.2Z" transform="translate(73.542 277)" fill="#0074ff"/>
  </g>
</svg>
