<svg xmlns="http://www.w3.org/2000/svg" width="40" height="40" viewBox="0 0 40 40">
  <g id="icon_APP" transform="translate(-190 -277)">
    <rect id="矩形_4" data-name="矩形 4" width="40" height="40" transform="translate(190 277)"  opacity="0"/>
    <path id="manage01" d="M123.69,93.162H112.563a3.134,3.134,0,0,1-3.144-3.144V78.891a3.166,3.166,0,0,1,3.144-3.144H123.69a3.134,3.134,0,0,1,3.144,3.144V90.018a3.134,3.134,0,0,1-3.144,3.144Zm0,20.9H112.563a3.134,3.134,0,0,1-3.144-3.144V99.794a3.134,3.134,0,0,1,3.144-3.144H123.69a3.134,3.134,0,0,1,3.144,3.144v11.127a3.15,3.15,0,0,1-3.144,3.144Zm20.9,0H133.466a3.134,3.134,0,0,1-3.144-3.144V99.794a3.134,3.134,0,0,1,3.144-3.144h11.127a3.134,3.134,0,0,1,3.144,3.144v11.127A3.166,3.166,0,0,1,144.593,114.065ZM148.5,82.256l-7.27-7.27a3.143,3.143,0,0,0-4.446,0l-7.27,7.27a3.143,3.143,0,0,0,0,4.446l7.27,7.271a3.143,3.143,0,0,0,4.446,0L148.5,86.7A3.143,3.143,0,0,0,148.5,82.256Zm-8.842,8.351a.92.92,0,0,1-1.277,0l-5.5-5.5a.92.92,0,0,1,0-1.277l5.5-5.5a.92.92,0,0,1,1.277,0l5.5,5.5a.92.92,0,0,1,0,1.277Z" transform="translate(80.581 202.935)" />
  </g>
</svg>
