<svg xmlns="http://www.w3.org/2000/svg" width="40" height="40" viewBox="0 0 40 40">
  <g id="icon_Dingtalk" transform="translate(-190 -277)">
    <rect id="矩形_4" data-name="矩形 4" width="40" height="40" transform="translate(190 277)"  opacity="0"/>
    <path id="钉钉dingd" d="M174.227,56.827a7.447,7.447,0,0,1-.481,1.235v.054c-1.4,2.988-5.041,8.856-5.041,8.856l-1.063,1.817h5.132l-9.837,13.052,2.225-8.883H161.12l1.4-5.877c-1.135.272-2.48.654-4.069,1.163,0,0-2.153,1.263-6.195-2.425,0,0-2.725-2.407-1.144-3.006a46.761,46.761,0,0,1,5.3-.854c2.725-.372,4.451-.572,4.451-.572s-8.5.127-10.518-.191-4.541-3.688-5.123-6.649c0,0-.845-1.626,1.817-.854s13.624,3,13.624,3-14.3-4.387-15.241-5.45a16.987,16.987,0,0,1-2.534-8.792.645.645,0,0,1,.854-.572s10.563,4.832,17.793,7.484S175.044,53.394,174.227,56.827Z" transform="translate(51.416 235.158)" />
  </g>
</svg>
