<svg xmlns="http://www.w3.org/2000/svg" width="40" height="40" viewBox="0 0 40 40">
  <g id="icon_flybook" transform="translate(-190 -277)">
    <rect id="矩形_4" data-name="矩形 4" width="40" height="40" transform="translate(190 277)"  opacity="0"/>
    <g id="组_4" data-name="组 4" transform="translate(-484.163 26.788)">
      <path id="路径_58" data-name="路径 58" d="M1952.307,437.381l17.547.012a2.649,2.649,0,0,1,1.257.726,22.267,22.267,0,0,1,2.729,4.243,30.183,30.183,0,0,1,1.748,4.747s-8.4,8.415-9.058,7.249a57.8,57.8,0,0,0-6.4-9.071,51.919,51.919,0,0,0-8.072-7.366A.34.34,0,0,1,1952.307,437.381Z" transform="translate(-1271.473 -183)" />
      <path id="路径_56" data-name="路径 56" d="M1927.645,419.823s-.478-.394-.482.267v16.739a2.54,2.54,0,0,0,.993,1.371,24.374,24.374,0,0,0,16.458,3.569c11.34-1.4,16.9-11.369,16.825-11.428a9.316,9.316,0,0,1-6.516,3.833c-2.081.233-5.718-.756-8.965-2.03a55.294,55.294,0,0,1-13.311-7.745A46.986,46.986,0,0,1,1927.645,419.823Z" transform="translate(-1253 -155.967)" />
      <path id="路径_57" data-name="路径 57" d="M2011.967,474.138a2.8,2.8,0,0,0-.887.907c-1.5,2.4-5.108,9.168-5.108,9.168-5.439,6.343-12.356,2.565-13.871,2.134a33.371,33.371,0,0,1-4.725-2.239,27.366,27.366,0,0,0,5.074-3.549c2.316-2.111,2.578-2.749,4.607-4.458a13.951,13.951,0,0,1,6.951-3.236A12.983,12.983,0,0,1,2011.967,474.138Z" transform="translate(-1297.804 -209.292)" />
    </g>
  </g>
</svg>
