<svg xmlns="http://www.w3.org/2000/svg" width="40" height="40" viewBox="0 0 40 40">
  <g id="icon_Public_account" data-name="icon_Public account" transform="translate(-190 -277)">
    <rect id="矩形_4" data-name="矩形 4" width="40" height="40" transform="translate(190 277)"  opacity="0"/>
    <path id="公众号" d="M111.682,90.566,107.917,86.8V81.479a3.573,3.573,0,0,0-3.573-3.573H99.021L95.256,74.14a3.584,3.584,0,0,0-5.056,0l-3.765,3.765H81.113a3.573,3.573,0,0,0-3.573,3.573V86.8l-3.765,3.765a3.584,3.584,0,0,0,0,5.056l3.765,3.765v5.322a3.573,3.573,0,0,0,3.573,3.573h5.322l3.765,3.765a3.584,3.584,0,0,0,5.056,0l3.765-3.765h5.322a3.573,3.573,0,0,0,3.573-3.573V99.387l3.765-3.765a3.569,3.569,0,0,0,0-5.056Zm-9.754-1.025-11.6,9.82a1.788,1.788,0,0,1-1.158.425,1.062,1.062,0,0,1-.158-.008,1.768,1.768,0,0,1-1.216-.633L83.329,93.79a1.786,1.786,0,0,1,2.74-2.291l3.315,3.973,10.237-8.663a1.788,1.788,0,0,1,2.307,2.732Z" transform="translate(117.269 203.903)" />
  </g>
</svg>
