<svg xmlns="http://www.w3.org/2000/svg" width="40" height="40" viewBox="0 0 40 40">
  <g id="icon_QQ" transform="translate(-190 -277)">
    <rect id="矩形_4" data-name="矩形 4" width="40" height="40" transform="translate(190 277)"  opacity="0"/>
    <path id="qq" d="M119.825,103.883c-.215.5.072.861,0,2.8,0,.5-2.3,2.941-3.228,5.452-.933,2.439-1,5.022.359,6.1,1.363,1,2.654-3.372,2.87-2.726a4.051,4.051,0,0,0,.287.861,11.7,11.7,0,0,0,2.3,3.73c.215.287-1.363.717-2.3,2.3s.287,4.448,4.95,4.448c6.026,0,7.317-2.081,7.461-2.081h.933a3.443,3.443,0,0,0,.861,0c.287,0,3.228,2.511,7.246,2.081,6.887-.717,5.811-3.013,5.309-4.448-.574-1.507-2.583-2.224-2.439-2.3a9.615,9.615,0,0,0,2.439-4.591c.215-.717,1.793,3.8,3.085,2.726.5-.43,1.507-2.224.5-6.1-1-3.8-3.013-4.735-2.941-5.452a9.531,9.531,0,0,0-.072-2.8c-.359-1.291-1.148-1-1.148-1.291,0-7.6-5.667-13.7-12.7-13.7s-12.7,6.17-12.7,13.7c-.072.574-.646.144-1.076,1.291Z" transform="translate(76.6 189.111)" />
  </g>
</svg>
