<svg xmlns="http://www.w3.org/2000/svg" width="40" height="40" viewBox="0 0 40 40">
  <g id="icon_Small_program" data-name="icon_Small program" transform="translate(-190 -277)">
    <rect id="矩形_4" data-name="矩形 4" width="40" height="40" transform="translate(190 277)"  opacity="0"/>
    <path id="mini-program-fill" d="M113.013,106.715l-.134.04a3.045,3.045,0,0,1-.828.124c-1.22,0-1.908-.824-1.54-1.842a2.934,2.934,0,0,1,1.85-1.662,3.215,3.215,0,0,0,2.284-2.91c0-1.754-1.706-3.174-3.81-3.174s-3.808,1.42-3.808,3.174V110.2a6.456,6.456,0,0,1-3.388,5.556,7.658,7.658,0,0,1-3.808,1c-3.968,0-7.2-2.942-7.2-6.56a6.062,6.062,0,0,1,.9-3.174,7.115,7.115,0,0,1,4.14-3.082,3.1,3.1,0,0,1,.92-.146c1.224,0,1.916.828,1.546,1.848a2.988,2.988,0,0,1-1.722,1.606q-.141.047-.278.1a3.178,3.178,0,0,0-2.122,2.844c0,1.754,1.706,3.174,3.81,3.174s3.808-1.42,3.808-3.174v-9.736a6.456,6.456,0,0,1,3.388-5.556,7.658,7.658,0,0,1,3.808-1c3.968,0,7.2,2.942,7.2,6.56a6.062,6.062,0,0,1-.9,3.174A7.127,7.127,0,0,1,113.013,106.715Zm-27.68-1.382a20,20,0,1,0,20-20A20,20,0,0,0,85.333,105.333Z" transform="translate(104.667 191.667)" />
  </g>
</svg>
