<svg xmlns="http://www.w3.org/2000/svg" width="40" height="40" viewBox="0 0 40 40">
  <g id="icon_Enterprise_wechat" data-name="icon_Enterprise wechat" transform="translate(-190 -277)">
    <rect id="矩形_4" data-name="矩形 4" width="40" height="40" transform="translate(190 277)" fill="#fff" opacity="0"/>
    <path id="工具---企业微信" d="M149.537,197.578a8.618,8.618,0,0,0,3.861,2.169l.554.144a2.106,2.106,0,0,1,1.628,2.1,2.287,2.287,0,0,1-1.959,2.266,2.219,2.219,0,0,1-2.456-1.628,8.234,8.234,0,0,0-2.266-4.367c-.142-.142-.047-.449-.095-.686l.5-.04A.356.356,0,0,1,149.537,197.578Zm2.006-21.386a12.664,12.664,0,0,1,3.634,8.737,4.47,4.47,0,0,0-1.864-.4h-.095a4.481,4.481,0,0,0-4.273,3.965,4.927,4.927,0,0,0,0,1.18,5.531,5.531,0,0,1-3.092,1.559h-.024a4.315,4.315,0,0,0-1.817,7.575,17.08,17.08,0,0,1-4.367.733,19.749,19.749,0,0,1-5.64-.544,2.057,2.057,0,0,0-.923.095l-4.27,2.1a1.272,1.272,0,0,1-1.512-.047,1.437,1.437,0,0,1-.449-1.417c.189-1.178.331-2.359.449-3.539a1.279,1.279,0,0,0-.331-.781,15.953,15.953,0,0,1-4.272-6.513c-1.509-5.145-.142-9.56,3.589-13.243,6.82-6.678,18.741-6.371,25.257.544Zm8.5,17.021a2.278,2.278,0,0,1,2.053,2.266,2.2,2.2,0,0,1-1.817,2.264,7.62,7.62,0,0,0-3.681,1.746l-.379.355c-.237.237-.591.449-.828.095a.9.9,0,0,1,.095-.778,7.632,7.632,0,0,0,2.1-4.131A2.247,2.247,0,0,1,160.041,193.213Zm-8.829-2.124c-.047.237.047.591-.095.731a7.983,7.983,0,0,0-2.148,4.225,2.106,2.106,0,0,1-2.453,1.675,2.368,2.368,0,0,1-1.982-2.288,2.164,2.164,0,0,1,1.722-2.1,7.812,7.812,0,0,0,4.225-2.148c.142-.142.5-.095.733-.095Zm2.1-4.438a2.225,2.225,0,0,1,2.219,1.77,7.827,7.827,0,0,0,2.148,4.225c.142.142.047.544.095.781l-.525.028a.36.36,0,0,1-.253-.076,8.037,8.037,0,0,0-4.273-2.219,2.2,2.2,0,0,1-1.677-2.408A2.38,2.38,0,0,1,153.313,186.651Z" transform="translate(67.906 109.451)" />
  </g>
</svg>
