<svg xmlns="http://www.w3.org/2000/svg" xmlns:xlink="http://www.w3.org/1999/xlink" fill="none" version="1.1" width="44" height="44" viewBox="0 0 44 44"><defs><clipPath id="master_svg0_1076_15330"><rect x="6" y="6" width="32" height="32" rx="6"/></clipPath></defs><g><g><rect x="0" y="0" width="44" height="44" rx="6" fill="#FFFFFF" fill-opacity="1"/><rect x="0.5" y="0.5" width="43" height="43" rx="5.5" fill-opacity="0" stroke-opacity="1" stroke="#F2F2F2" fill="none" stroke-width="1"/></g><g clip-path="url(#master_svg0_1076_15330)"><g><path d="M26.381687499999998,9.58217528125Q24.6360675,8.87548828125,21.9993775,8.87548828125Q19.3628075,8.87548828125,17.6171875,9.68495728125L26.3843475,18.60523828125L26.381687499999998,9.58217528125Z" fill="#FB5453" fill-opacity="1"/></g><g><path d="M31.35108875,12.80592453125Q29.41584875,10.97070753125,27.54484365,10.31689453125L27.48046875,22.569194531249998L34.05580875,16.340024531250002C34.05580875,16.34267453125,33.28909875,14.64114453125,31.35112875,12.80595453125L31.35108875,12.80592453125Z" fill="#6468F1" fill-opacity="1"/></g><g><path d="M34.3294625,17.5244140625L25.2890625,26.1730740625L34.4349025,26.1730740625Q35.1520925,24.4506040625,35.1520925,21.847474062499998Q35.1493725,19.2470040625,34.3294625,17.5244140625Z" fill="#5283F0" fill-opacity="1"/></g><g><path d="M27.76950125,33.7403778125Q29.544901250000002,33.0265678125,31.458031249999998,31.2215678125Q33.37123125,29.4166578125,34.054931249999996,27.6750698125L21.26953125,27.6142578125L27.76950125,33.7403778125Z" fill="#00B2FE" fill-opacity="1"/></g><g><path d="M17.61968803,34.4753384375Q19.3654375,35.181898437499996,22.0019975,35.181898437499996Q24.6412175,35.181898437499996,26.3843175,34.3724584375L17.6171875,25.4521484375L17.61968803,34.4753384375Z" fill="#66D020" fill-opacity="1"/></g><g><path d="M13.01322375,31.25147125Q14.94865375,33.08688125,16.81965375,33.74058125L16.88393375,21.48828125L10.30859375,27.71734125C10.31121874,27.71484125,11.07793775,29.416251250000002,13.01322375,31.25147125Z" fill="#9AD122" fill-opacity="1"/></g><g><path d="M9.56503125,17.5244140625Q8.84765625,19.2465040625,8.84765625,21.8487240625Q8.84765625,24.4511040625,9.66778125,26.1730740625L18.71065625,17.5270710025L9.56503125,17.5270710025L9.56503125,17.5244140625Z" fill="#FFC71A" fill-opacity="1"/></g><g><path d="M16.59403375,10.31689453125Q14.81859375,11.03073853125,12.90547375,12.83564453125Q10.99228175,14.64058453125,10.30859375,16.38233453125L23.09399375,16.44302453125L16.59403375,10.31689453125Z" fill="#FF7612" fill-opacity="1"/></g></g></g></svg>