<svg xmlns="http://www.w3.org/2000/svg" width="44" height="44" viewBox="0 0 44 44">
  <g id="icon_flybook" transform="translate(-182 -269)">
    <g id="矩形_8331" data-name="矩形 8331" transform="translate(182 269)" fill="#fff" stroke="#f2f2f2" stroke-width="1">
      <rect width="44" height="44" rx="6" stroke="none"/>
      <rect x="0.5" y="0.5" width="43" height="43" rx="5.5" fill="none"/>
    </g>
    <g id="组_19214" data-name="组 19214">
      <rect id="矩形_4" data-name="矩形 4" width="28" height="28" transform="translate(190 277)" fill="#717171" opacity="0"/>
      <g id="组_4" data-name="组 4" transform="translate(190 279.918)">
        <path id="路径_58" data-name="路径 58" d="M1952.213,437.381l12.283.008a1.854,1.854,0,0,1,.88.508,15.59,15.59,0,0,1,1.91,2.97,21.144,21.144,0,0,1,1.223,3.323s-5.88,5.89-6.34,5.074a40.46,40.46,0,0,0-4.48-6.35,36.344,36.344,0,0,0-5.65-5.156.238.238,0,0,1,.174-.378Z" transform="translate(-1947.543 -437.381)" fill="#01d0b0"/>
        <path id="路径_56" data-name="路径 56" d="M1927.5,419.788s-.335-.276-.338.187v11.717a1.778,1.778,0,0,0,.695.96,17.062,17.062,0,0,0,11.521,2.5c7.938-.98,11.83-7.958,11.777-8a6.521,6.521,0,0,1-4.561,2.683c-1.457.163-4-.529-6.275-1.421a38.7,38.7,0,0,1-9.318-5.421A32.881,32.881,0,0,1,1927.5,419.788Z" transform="translate(-1927.163 -413.156)" fill="#2d65ff"/>
        <path id="路径_57" data-name="路径 57" d="M2004.59,473.708a1.961,1.961,0,0,0-.621.635c-1.05,1.68-3.576,6.418-3.576,6.418-3.807,4.44-8.649,1.8-9.71,1.494a23.355,23.355,0,0,1-3.307-1.567,19.153,19.153,0,0,0,3.552-2.484c1.621-1.478,1.8-1.924,3.225-3.12a9.767,9.767,0,0,1,4.866-2.265,9.088,9.088,0,0,1,5.571.891Z" transform="translate(-1976.59 -466.383)" fill="#14358f"/>
      </g>
    </g>
  </g>
</svg>
