<svg xmlns="http://www.w3.org/2000/svg" width="44" height="44" viewBox="0 0 44 44">
  <g id="icon_WEB" transform="translate(-182 -269)">
    <g id="矩形_8331" data-name="矩形 8331" transform="translate(182 269)" fill="#fff" stroke="#f2f2f2" stroke-width="1">
      <rect width="44" height="44" rx="6" stroke="none"/>
      <rect x="0.5" y="0.5" width="43" height="43" rx="5.5" fill="none"/>
    </g>
    <g id="组_19219" data-name="组 19219">
      <path id="开发_1_" data-name="开发 (1)" d="M88.5,160.34h-21a3.272,3.272,0,0,0-3.5,3.146v3.146H92v-3.146a3.272,3.272,0,0,0-3.5-3.146Z" transform="translate(126 119.66)" fill="#b9c7ff"/>
      <path id="开发_1_2" data-name="开发 (1)" d="M64,179.173a3.272,3.272,0,0,0,3.5,3.146h21a3.272,3.272,0,0,0,3.5-3.146V167.662H64Z" transform="translate(126 119.66)" fill="#6c8aff"/>
      <rect id="矩形_8339" data-name="矩形 8339" width="12" height="2" rx="1" transform="translate(192 289.15)" fill="#fff"/>
      <rect id="矩形_8340" data-name="矩形 8340" width="20" height="2" rx="1" transform="translate(192 293.15)" fill="#fff"/>
      <g id="组_19221" data-name="组 19221">
        <rect id="矩形_8336" data-name="矩形 8336" width="2" height="2" rx="1" transform="translate(192 282.15)" fill="#fff"/>
        <rect id="矩形_8337" data-name="矩形 8337" width="2" height="2" rx="1" transform="translate(195 282.15)" fill="#fff"/>
        <rect id="矩形_8338" data-name="矩形 8338" width="2" height="2" rx="1" transform="translate(198 282.15)" fill="#fff"/>
      </g>
    </g>
  </g>
</svg>
