<svg xmlns="http://www.w3.org/2000/svg" width="44" height="44" viewBox="0 0 44 44">
  <g id="icon_QQ" transform="translate(-123.133 -41.344)">
    <g id="矩形_8333" data-name="矩形 8333" transform="translate(123.133 41.344)" fill="#fff" stroke="#f2f2f2" stroke-width="1">
      <rect width="44" height="44" rx="6" stroke="none"/>
      <rect x="0.5" y="0.5" width="43" height="43" rx="5.5" fill="none"/>
    </g>
    <g id="组_19215" data-name="组 19215">
      <path id="路径_24783" data-name="路径 24783" d="M221.76,846.528c0,1.154,2.015,2.09,4.5,2.09s4.5-.936,4.5-2.09-2.015-2.09-4.5-2.09S221.76,845.373,221.76,846.528Z" transform="translate(-85.9 -771.275)" fill="#ffbd14"/>
      <path id="路径_24784" data-name="路径 24784" d="M226.394,898.884c-2.485,0-4.5-.936-4.5-2.09a1.042,1.042,0,0,1,.017-.154,1.074,1.074,0,0,0-.15.527c0,1.154,2.015,2.09,4.5,2.09,2.374,0,4.313-.854,4.483-1.936C230.241,898.22,228.487,898.884,226.394,898.884Z" transform="translate(-85.9 -821.914)" fill="#ef9e0d"/>
      <path id="路径_24785" data-name="路径 24785" d="M539.989,846.528c0,1.154,2.015,2.09,4.5,2.09s4.5-.936,4.5-2.09-2.015-2.09-4.5-2.09S539.989,845.373,539.989,846.528Z" transform="translate(-394.597 -771.275)" fill="#ffbd14"/>
      <path id="路径_24786" data-name="路径 24786" d="M544.936,898.884c2.485,0,4.5-.936,4.5-2.09a1.037,1.037,0,0,0-.017-.154,1.074,1.074,0,0,1,.15.527c0,1.154-2.015,2.09-4.5,2.09-2.374,0-4.313-.854-4.483-1.936C541.089,898.22,542.843,898.884,544.936,898.884Z" transform="translate(-395.176 -821.914)" fill="#ef9e0d"/>
      <path id="路径_24787" data-name="路径 24787" d="M155.137,63.2l-1.012-3.248c0-10.576-8.551-10.611-8.993-10.611-.459,0-8.992.035-8.992,10.611L135.128,63.2s-3.435,4.314-1.118,8.068c.259.18.28.839,1.678-2.117a9.709,9.709,0,0,0,9.4,6.668v0h.095v0a9.71,9.71,0,0,0,9.4-6.668c1.4,2.956,1.426,2.357,1.678,2.117C158.572,67.518,155.137,63.2,155.137,63.2Z" fill="#121214"/>
      <path id="路径_24788" data-name="路径 24788" d="M544.448,198.994c0,1.412.814,2.556,1.818,2.556s1.818-1.145,1.818-2.556-.814-2.556-1.818-2.556S544.448,197.582,544.448,198.994Z" transform="translate(-398.922 -142.688)" fill="#fff"/>
      <path id="路径_24789" data-name="路径 24789" d="M388.48,198.994c0,1.412.814,2.556,1.818,2.556s1.818-1.145,1.818-2.556-.814-2.556-1.818-2.556S388.48,197.582,388.48,198.994Z" transform="translate(-247.626 -142.688)" fill="#fff"/>
      <path id="路径_24790" data-name="路径 24790" d="M437.781,239.616c0,.719.414,1.3.925,1.3s.925-.583.925-1.3-.414-1.3-.925-1.3S437.781,238.9,437.781,239.616Z" transform="translate(-295.45 -183.311)" fill="#161616"/>
      <path id="路径_24791" data-name="路径 24791" d="M560.771,242.883a.192.192,0,0,1-.191-.172,2.453,2.453,0,0,1,.33-1.612.778.778,0,0,1,1.134,0,2.456,2.456,0,0,1,.329,1.612.185.185,0,0,1-.211.171.192.192,0,0,1-.171-.211,2.115,2.115,0,0,0-.232-1.316.379.379,0,0,0-.564,0,2.1,2.1,0,0,0-.233,1.316.192.192,0,0,1-.171.211Z" transform="translate(-414.555 -185.771)" fill="#181818"/>
      <path id="路径_24792" data-name="路径 24792" d="M468.651,256.8c0,.22.127.4.284.4s.284-.179.284-.4-.127-.4-.284-.4S468.651,256.584,468.651,256.8Z" transform="translate(-325.396 -200.857)" fill="#fff"/>
      <path id="路径_24793" data-name="路径 24793" d="M350.14,377.346a13.029,13.029,0,0,0-9.613,0c-.706.24-.985.426-.985.652a10.777,10.777,0,0,0,3.688,2.37c.895.452,1.159.839,2.1.839s1.208-.386,2.1-.839a10.787,10.787,0,0,0,3.688-2.37C351.125,377.772,350.845,377.585,350.14,377.346Z" transform="translate(-200.153 -317.285)" fill="#fab718"/>
      <path id="路径_24794" data-name="路径 24794" d="M376.448,431.1a8.729,8.729,0,0,0,4.567,1.385,9.582,9.582,0,0,0,4.713-1.385s-1.571,1.039-2.783,1.757-1.371.919-1.984.919-1.4-.746-1.751-.919S377.886,431.97,376.448,431.1Z" transform="translate(-235.955 -370.324)" fill="#8c2b01"/>
      <path id="路径_24795" data-name="路径 24795" d="M287.494,475.776a13.033,13.033,0,0,1-14.738,0s-2.942,13.255,7.369,13.255,7.369-13.255,7.369-13.255Z" transform="translate(-134.992 -413.658)" fill="#f9f9f9"/>
      <path id="路径_24796" data-name="路径 24796" d="M216.33,403.563s-2.463,4.421-8.994,4.421-8.994-4.421-8.994-4.421a14.879,14.879,0,0,0-1.012,3.248,12.468,12.468,0,0,0,3.548,2.735c-.087.95-.206,2.411-.193,3.156.02,1.159.727,1.239,2.371,1.4s1.3-.28,1.3-1.019v-2.333a11.516,11.516,0,0,0,2.976.217,12.719,12.719,0,0,0,10.005-4.154A14.857,14.857,0,0,0,216.33,403.563Z" transform="translate(-62.203 -343.607)" fill="#e32b10"/>
    </g>
  </g>
</svg>
