<svg xmlns="http://www.w3.org/2000/svg" xmlns:xlink="http://www.w3.org/1999/xlink" version="1.1" width="28" height="28" viewBox="0 0 28 28"><defs><clipPath id="master_svg0_4774_17973"><rect x="0" y="0" width="28" height="28" rx="0"/></clipPath></defs><g clip-path="url(#master_svg0_4774_17973)"><g><path d="M22.75011171875,10.50009171875L15.75011171875,10.50009171875L15.75011171875,3.5000917187500002L5.25009171875,3.5000917187500002L5.25009171875,24.50011171875L22.75011171875,24.50011171875L22.75011171875,10.50009171875ZM22.03961171875,8.75009171875L17.50011171875,4.21059171875L17.50011171875,8.75009171875L22.03961171875,8.75009171875ZM4.37509271875,1.75009237275L17.50011171875,1.75009237275L24.50011171875,8.75009171875L24.50011171875,25.37511171875C24.50871171875,25.60991171875,24.42011171875,25.83781171875,24.25511171875,26.00511171875C24.08781171875,26.17011171875,23.85991171875,26.25871171875,23.62511171875,26.25011171875L4.37509271875,26.25011171875C4.1402987187499996,26.25871171875,3.91234371875,26.17011171875,3.74509271875,26.00511171875C3.58007561875,25.83781171875,3.49142608875,25.60991171875,3.50009250675,25.37511171875L3.50009250675,2.62509271875C3.50009250675,2.36959271875,3.58234241875,2.15959271875,3.74509271875,1.99509271875C3.91234271875,1.83007591875,4.1402987187499996,1.74142648875,4.37509271875,1.75009237275ZM8.75009171875,14.00011171875L19.25011171875,14.00011171875L19.25011171875,15.75011171875L8.75009171875,15.75011171875L8.75009171875,14.00011171875ZM8.75009171875,8.75009171875L13.12509171875,8.75009171875L13.12509171875,10.50009171875L8.75009171875,10.50009171875L8.75009171875,8.75009171875ZM8.75009171875,19.25011171875L19.25011171875,19.25011171875L19.25011171875,21.00011171875L8.75009171875,21.00011171875L8.75009171875,19.25011171875Z"  fill-opacity="1" style="mix-blend-mode:passthrough"/><path d="M4.37689371875,1.65009231875Q3.96701871875,1.63565071875,3.67485871875,1.92390771875L3.67400471875,1.92476071875Q3.40009251875,2.20161871875,3.40009251875,2.62509271875L3.40009251875,25.37331171875Q3.38565171875,25.78311171875,3.67485871875,26.07631171875Q3.96703671875,26.36451171875,4.37693171875,26.35011171875L23.62321171875,26.35011171875Q24.03311171875,26.36451171875,24.32631171875,26.07531171875Q24.61451171875,25.78321171875,24.60011171875,25.37321171875L24.60011171875,8.70867171875L17.54151171875,1.65009241875L4.37689371875,1.65009231875ZM3.81575671875,2.06585171875Q3.60009271875,2.28416971875,3.60009271875,2.62509271875L3.60009271875,25.37691171875L3.60002471875,25.37881171875Q3.58803791875,25.70351171875,3.81532571875,25.93391171875Q4.04665871875,26.16211171875,4.37140471875,26.15011171875L4.37324771875,26.15011171875L23.62691171875,26.15011171875L23.62881171875,26.15011171875Q23.95351171875,26.16211171875,24.18391171875,25.93481171875Q24.41211171875,25.70351171875,24.40011171875,25.37881171875L24.40011171875,25.37691171875L24.40011171875,8.79151171875L17.45871171875,1.85009271875L4.37324771875,1.85009271875L4.37140371875,1.85002471875Q4.04695671875,1.83804951875,3.81575671875,2.06585171875ZM5.15009171875,24.60011171875L22.85011171875,24.60011171875L22.85011171875,10.40009171875L15.85011171875,10.40009171875L15.85011171875,3.4000917187499997L5.15009171875,3.4000917187499997L5.15009171875,24.60011171875ZM22.65011171875,24.40011171875L5.35009171875,24.40011171875L5.35009171875,3.60009171875L15.65011171875,3.60009171875L15.65011171875,10.60009171875L22.65011171875,10.60009171875L22.65011171875,24.40011171875ZM17.40011171875,3.96917171875L17.40011171875,8.85009171875L22.28101171875,8.85009171875L17.40011171875,3.96917171875ZM17.60011171875,8.65009171875L21.79821171875,8.65009171875L17.60011171875,4.452011718750001L17.60011171875,8.65009171875ZM8.65009171875,8.65009171875L8.65009171875,10.60009171875L13.22509171875,10.60009171875L13.22509171875,8.65009171875L8.65009171875,8.65009171875ZM8.85009171875,10.40009171875L13.02509171875,10.40009171875L13.02509171875,8.85009171875L8.85009171875,8.85009171875L8.85009171875,10.40009171875ZM8.65009171875,13.90011171875L8.65009171875,15.85011171875L19.35011171875,15.85011171875L19.35011171875,13.90011171875L8.65009171875,13.90011171875ZM8.85009171875,15.65011171875L19.15011171875,15.65011171875L19.15011171875,14.10011171875L8.85009171875,14.10011171875L8.85009171875,15.65011171875ZM8.65009171875,19.15011171875L8.65009171875,21.10011171875L19.35011171875,21.10011171875L19.35011171875,19.15011171875L8.65009171875,19.15011171875ZM8.85009171875,20.90011171875L19.15011171875,20.90011171875L19.15011171875,19.35011171875L8.85009171875,19.35011171875L8.85009171875,20.90011171875Z" fill-rule="evenodd"  fill-opacity="1"/></g></g></svg>