<svg xmlns="http://www.w3.org/2000/svg" xmlns:xlink="http://www.w3.org/1999/xlink" fill="none" version="1.1" width="34" height="34" viewBox="0 0 34 34"><defs><clipPath id="master_svg0_4774_22619"><rect x="0" y="0" width="34" height="34" rx="0"/></clipPath></defs><g clip-path="url(#master_svg0_4774_22619)"><g><path d="M19.407,14.795006C19.2302,14.618061,19.0417,14.458556,18.8475,14.310657L18.8472,14.31098C18.6473,14.11853,18.375799999999998,14,18.0766,14C17.462400000000002,14,16.9645,14.498389,16.9645,15.11317C16.9645,15.38519,17.0622,15.634360000000001,17.2241,15.82772C17.2241,15.82775,17.2242,15.82781,17.2241,15.82772C17.302,15.92072,17.3946,16.00079,17.4985,16.06419C17.6034,16.15075,17.7063,16.23598,17.802500000000002,16.33232L17.894199999999998,16.42412C19.0467,17.57639,18.7027,19.561619999999998,17.5501,20.71535L12.63198,25.637C11.47946,26.7892,9.60574,26.7892,8.45317,25.637L8.360759999999999,25.5444C7.2081599999999995,24.390700000000002,7.2081599999999995,22.513759999999998,8.360759999999999,21.36287L10.53356,19.18862C10.812339999999999,18.96712,10.991299999999999,18.62525,10.991299999999999,18.24135C10.991299999999999,17.5736,10.45055,17.03231,9.783470000000001,17.03231C9.531749999999999,17.03231,9.29809,17.10945,9.1046,17.24131C9.10399,17.24002,9.10334,17.23879,9.102699999999999,17.237470000000002L9.07954,17.25917C8.99401,17.32072,8.91668,17.39291,8.84989,17.47427L6.59189,19.58929C4.46937,21.71541,4.46937,25.192700000000002,6.59189,27.3159L6.68357,27.407600000000002C8.806090000000001,29.5308,12.27839,29.5308,14.40091,27.407600000000002L19.3176,22.48451C21.4372,20.35997,21.6169,17.00851,19.4973,14.885316L19.407,14.795006Z" fill="#101010" fill-opacity="1" style="mix-blend-mode:passthrough"/></g><g><path d="M27.4052,6.73747L27.313299999999998,6.64285C25.186700000000002,4.452382,21.70766,4.452382,19.58101,6.64285L14.65476,11.71842C12.528103,13.90889,12.410988,17.0721,14.53764,19.2639L14.62803,19.355600000000003C14.72461,19.4551,14.82486,19.5488,14.92719,19.6388C15.00126,19.724,15.088280000000001,19.7969,15.185,19.854599999999998C15.18574,19.8552,15.1865,19.8559,15.18723,19.8565L15.18756,19.8562C15.34173,19.947499999999998,15.52036,20,15.711,20C16.29194,20,16.76287,19.5149,16.76287,18.916600000000003C16.76287,18.747700000000002,16.72532,18.5878,16.65837,18.4453C16.51931,18.1237,16.259,17.9279,16.07895,17.7424L15.98853,17.6508C14.83377,16.461399999999998,15.27228,14.73339,16.427039999999998,13.54398L21.3562,8.46987C22.508110000000002,7.2804,24.3861,7.2804,25.5409,8.46987L25.6329,8.56297C26.787599999999998,9.752469999999999,26.787599999999998,11.68836,25.6329,12.87632L23.463,15.1128C23.1678,15.3381,22.97634,15.6995,22.97634,16.1069C22.97634,16.7897,23.5138,17.3433,24.1767,17.3433C24.4075,17.3433,24.6229,17.2761,24.8059,17.1599C24.807299999999998,17.162300000000002,24.8086,17.1646,24.8099,17.167L24.843600000000002,17.134999999999998C24.9473,17.063499999999998,25.0394,16.9757,25.116799999999998,16.8754L27.4036,14.70188C29.5319,12.51143,29.5319,8.92791,27.4052,6.73747Z" fill="#101010" fill-opacity="1" style="mix-blend-mode:passthrough"/></g></g></svg>