<svg xmlns="http://www.w3.org/2000/svg" xmlns:xlink="http://www.w3.org/1999/xlink" fill="none" version="1.1" width="34" height="34" viewBox="0 0 34 34"><defs><clipPath id="master_svg0_4774_21879"><rect x="0" y="0" width="34" height="34" rx="0"/></clipPath></defs><g clip-path="url(#master_svg0_4774_21879)"><g><path d="M19.16135546875,7.79160796875C19.16135546875,8.63570796875,19.84565546875,9.32633796875,20.68205546875,9.32633796875L26.76505546875,9.32633796875C27.60145546875,9.32633796875,28.28575546875,8.63570796875,28.28575546875,7.79160796875L28.28575546875,6.25688796875C28.28575546875,5.41279296875,27.60145546875,4.72216796875,26.76505546875,4.72216796875L20.68205546875,4.72216796875C19.84565546875,4.72216796875,19.16135546875,5.41279296875,19.16135546875,6.25688796875C14.37103546875,6.25688796875,10.26504546875,9.47980796875,8.97241546875,13.93049796875L6.23509546875,13.93049796875C5.39868746875,13.93049796875,4.71435546875,14.62112796875,4.71435546875,15.46526796875L4.71435546875,18.53466796875C4.71435546875,19.378767968749997,5.39868746875,20.06936796875,6.23509546875,20.06936796875L8.97241546875,20.06936796875C10.26504546875,24.52006796875,14.37103546875,27.74296796875,19.16135546875,27.74296796875C19.16135546875,28.58706796875,19.84565546875,29.27776796875,20.68205546875,29.27776796875L26.76505546875,29.27776796875C27.60145546875,29.27776796875,28.28575546875,28.58706796875,28.28575546875,27.74296796875L28.28575546875,26.20826796875C28.28575546875,25.36416796875,27.60145546875,24.67356796875,26.76505546875,24.67356796875L20.68205546875,24.67356796875C19.84565546875,24.67356796875,19.16135546875,25.36416796875,19.16135546875,26.20826796875C15.20745546875,26.20826796875,11.78578546875,23.67596796875,10.56919546875,20.06936796875L12.31804546875,20.06936796875C13.15444546875,20.06936796875,13.83877546875,19.378767968749997,13.83877546875,18.53466796875L13.83877546875,17.767267968749998L19.16135546875,17.767267968749998C19.16135546875,18.611367968750002,19.84565546875,19.302067968750002,20.68205546875,19.302067968750002L26.76505546875,19.302067968750002C27.60145546875,19.302067968750002,28.28575546875,18.611367968750002,28.28575546875,17.767267968749998L28.28575546875,16.23256796875C28.28575546875,15.38846796875,27.60145546875,14.69785796875,26.76505546875,14.69785796875L20.68205546875,14.69785796875C19.84565546875,14.69785796875,19.16135546875,15.38846796875,19.16135546875,16.23256796875L13.83877546875,16.23256796875L13.83877546875,15.46526796875C13.83877546875,14.62112796875,13.15444546875,13.93049796875,12.31804546875,13.93049796875L10.56919546875,13.93049796875C11.78578546875,10.32390796875,15.20745546875,7.79160796875,19.16135546875,7.79160796875ZM20.68205546875,6.25688796875L26.76505546875,6.25688796875L26.76505546875,7.79160796875L20.68205546875,7.79160796875L20.68205546875,6.25688796875ZM20.68205546875,26.20826796875L26.76505546875,26.20826796875L26.76505546875,27.74296796875L20.68205546875,27.74296796875L20.68205546875,26.20826796875ZM20.68205546875,16.23256796875L26.76505546875,16.23256796875L26.76505546875,17.767267968749998L20.68205546875,17.767267968749998L20.68205546875,16.23256796875Z" fill="#101010" fill-opacity="1" style="mix-blend-mode:passthrough"/></g></g></svg>