<svg xmlns="http://www.w3.org/2000/svg" xmlns:xlink="http://www.w3.org/1999/xlink" fill="none" version="1.1" width="34" height="34" viewBox="0 0 34 34"><defs><clipPath id="master_svg0_4774_21883"><rect x="0" y="0" width="34" height="34" rx="0"/></clipPath></defs><g clip-path="url(#master_svg0_4774_21883)"><g><path d="M5.92857,7C4.8634509999999995,7,4,7.783502,4,8.75C4,9.7165,4.8634509999999995,10.5,5.92857,10.5C6.99369,10.5,7.857139999999999,9.7165,7.857139999999999,8.75C7.857139999999999,7.783502,6.99369,7,5.92857,7ZM5.92857,15.75C4.8634509999999995,15.75,4,16.5335,4,17.5C4,18.4665,4.8634509999999995,19.25,5.92857,19.25C6.99369,19.25,7.857139999999999,18.4665,7.857139999999999,17.5C7.857139999999999,16.5335,6.99369,15.75,5.92857,15.75ZM4,26.25C4,25.2835,4.8634509999999995,24.5,5.92857,24.5C6.99369,24.5,7.857139999999999,25.2835,7.857139999999999,26.25C7.857139999999999,27.2165,6.99369,28,5.92857,28C4.8634509999999995,28,4,27.2165,4,26.25ZM13.64286,7C12.57774,7,11.71429,7.783502,11.71429,8.75C11.71429,9.7165,12.57774,10.5,13.64286,10.5L29.0714,10.5C30.1365,10.5,31,9.7165,31,8.75C31,7.783502,30.1365,7,29.0714,7L13.64286,7ZM11.71429,17.5C11.71429,16.5335,12.57774,15.75,13.64286,15.75L29.0714,15.75C30.1365,15.75,31,16.5335,31,17.5C31,18.4665,30.1365,19.25,29.0714,19.25L13.64286,19.25C12.57774,19.25,11.71429,18.4665,11.71429,17.5ZM13.64286,24.5C12.57774,24.5,11.71429,25.2835,11.71429,26.25C11.71429,27.2165,12.57774,28,13.64286,28L29.0714,28C30.1365,28,31,27.2165,31,26.25C31,25.2835,30.1365,24.5,29.0714,24.5L13.64286,24.5Z" fill="#101010" fill-opacity="1" style="mix-blend-mode:passthrough"/></g></g></svg>