<svg xmlns="http://www.w3.org/2000/svg" xmlns:xlink="http://www.w3.org/1999/xlink" version="1.1" width="28" height="28" viewBox="0 0 28 28"><defs><clipPath id="master_svg0_4774_17992"><rect x="0" y="0" width="28" height="28" rx="0"/></clipPath></defs><g clip-path="url(#master_svg0_4774_17992)"><g><path d="M22.026325,2.10546875C23.242725,2.10546875,24.228825,3.09063675,24.228825,4.30587875L24.228825,19.58306875C24.228825,20.79836875,23.242725,21.78346875,22.026325,21.78346875L5.214785,21.78346875C4.372045,21.78346875,3.714265,22.38986875,3.714265,23.10376875C3.714265,23.81046875,4.358945,24.41186875,5.189545,24.42386875L5.214785,24.42396875L24.228825,24.42396875C24.680625,24.42396875,25.046925,24.78996875,25.046925,25.24126875C25.046925,25.68626875,24.691025,26.04816875,24.248125,26.05836875L24.228825,26.05856875L5.2147749999999995,26.05856875C3.496495,26.05856875,2.078125,24.75096875,2.078125,23.10376875C2.078125,23.04906875,2.07968365,22.99466875,2.08277344,22.94076875C2.08036777,22.91776875,2.078890037,22.89466875,2.078343697,22.87156875L2.078125,22.85226875L2.078125,4.30587875C2.078125,3.09066375,3.064223,2.10546875,4.2806049999999995,2.10546875L22.026325,2.10546875ZM22.026325,3.74007875L4.2806049999999995,3.74007875C3.973405,3.74007875,3.723345,3.9844187499999997,3.714485,4.289198750000001L3.714265,4.30587875L3.714265,19.58306875C3.714265,19.88996875,3.958855,20.13986875,4.263904999999999,20.14866875L4.280585,20.14886875L22.026325,20.14886875C22.333525,20.14886875,22.583625,19.90456875,22.592425,19.59976875L22.592725,19.58306875L22.592725,4.30587875C22.592725,3.99896875,22.348125,3.7491587500000003,22.043025,3.74029875L22.026325,3.74007875ZM20.390225,13.23326875C20.842025,13.23326875,21.208325,13.59926875,21.208325,14.05056875C21.208325,14.49556875,20.852425,14.85736875,20.409525,14.86766875L20.390225,14.86786875L5.916745000000001,14.86786875C5.464925,14.86786875,5.098675,14.50196875,5.098675,14.05056875C5.098675,13.60566875,5.454535,13.24376875,5.8974150000000005,13.23356875L5.916745000000001,13.23326875L20.390225,13.23326875ZM20.390225,8.58098875C20.842025,8.58098875,21.208325,8.946898749999999,21.208325,9.398288749999999C21.208325,9.843198749999999,20.852425,10.20509875,20.409525,10.21534875L20.390225,10.21556875L5.916745000000001,10.21556875C5.464925,10.21556875,5.098675,9.84965875,5.098675,9.39826875C5.098675,8.95335875,5.454535,8.591458750000001,5.8974150000000005,8.58123875L5.916745000000001,8.58095875L20.390225,8.58098875Z"  fill-opacity="1" style="mix-blend-mode:passthrough"/></g></g></svg>