<svg xmlns="http://www.w3.org/2000/svg" xmlns:xlink="http://www.w3.org/1999/xlink"  version="1.1" width="28" height="28" viewBox="0 0 28 28"><g><g><g transform="matrix(1,1.447334252446808e-8,-1.447334252446808e-8,1,5.789337009787232e-8,-1.7763568394002505e-15)"><path d="M0.5101721192092895,15.8123C0.33558211920928954,15.8765,0.33558211920928954,16.1235,0.5101721192092895,16.1877L6.985160119209289,18.5699C7.58680011920929,18.7913,8.045860119209289,19.287599999999998,8.21967011920929,19.9047L10.307500119209289,27.3166C10.36220011920929,27.5109,10.63780011920929,27.5109,10.69250011920929,27.3166L12.78030011920929,19.9047C12.95410011920929,19.287599999999998,13.41320011920929,18.7913,14.014800119209289,18.5699L20.48980011920929,16.1877C20.66440011920929,16.1235,20.66440011920929,15.8765,20.48980011920929,15.8123L14.014800119209289,13.43006C13.41320011920929,13.20871,12.95410011920929,12.71238,12.78030011920929,12.09533L10.69250011920929,4.68342C10.63780011920929,4.4890550000000005,10.36220011920929,4.4890550000000005,10.307500119209289,4.683419L8.21967011920929,12.09533C8.045860119209289,12.71238,7.586790119209289,13.20871,6.985160119209289,13.43006L0.5101721192092895,15.8123Z"  fill-opacity="1"/></g><g transform="matrix(1,1.447334252446808e-8,-1.447334252446808e-8,1,2.894668504893616e-8,-2.0262679534255312e-7)" style="opacity:0.6000000238418579;"><path d="M14.591375,7.80962C14.406425,7.86916,14.406425,8.13084,14.591375,8.190380000000001L17.5623,9.14679C18.17535,9.344149999999999,18.65585,9.82465,18.85321,10.4377L19.80962,13.4086C19.86916,13.5936,20.13084,13.5936,20.19038,13.4086L21.14679,10.4377C21.34415,9.82465,21.82465,9.344149999999999,22.4377,9.14679L25.4086,8.190380000000001C25.593600000000002,8.13084,25.593600000000002,7.86916,25.4086,7.80962L22.4377,6.85321C21.82465,6.65585,21.34415,6.17535,21.14679,5.5623000000000005L20.19038,2.591375C20.13084,2.406425,19.86916,2.406425,19.80962,2.591375L18.85321,5.5623000000000005C18.65585,6.17535,18.17535,6.65585,17.5623,6.85321L14.591375,7.80962Z" fill-opacity="1"/></g></g></g></svg>