<svg xmlns="http://www.w3.org/2000/svg" xmlns:xlink="http://www.w3.org/1999/xlink" version="1.1" width="28" height="28" viewBox="0 0 28 28"><defs><clipPath id="master_svg0_4774_17985"><rect x="0" y="0" width="28" height="28" rx="0"/></clipPath></defs><g clip-path="url(#master_svg0_4774_17985)"><g><path d="M24.6517,23.0582C24.6927,23.0117,24.7337,22.9625,24.772,22.916C24.8048,22.8778,24.8348,22.8395,24.8676,22.8013C24.9032,22.7575,24.9387,22.7138,24.9742,22.6673C25.007,22.6263,25.0371,22.5853,25.0699,22.5443C25.1027,22.5006,25.1382,22.4569,25.171,22.4131C25.2038,22.3721,25.2339,22.3284,25.264,22.2874C25.2968,22.2437,25.3296,22.1999,25.3624,22.1535C25.3924,22.1097,25.4225,22.0687,25.4526,22.025C25.4854,21.9785,25.5154,21.9348,25.5482,21.8883C25.5783,21.8446,25.6056,21.8036,25.6357,21.7599C25.6658,21.7134,25.6986,21.6669,25.7286,21.6205C25.756,21.5767,25.786,21.533,25.8134,21.4893C25.8434,21.4428,25.8735,21.3936,25.9036,21.3444C25.9309,21.3007,25.9582,21.2569,25.9828,21.2132C26.0129,21.164,26.043,21.1121,26.073,21.0601C26.0976,21.0191,26.1222,20.9754,26.1468,20.9344C26.1796,20.877,26.2124,20.8196,26.2452,20.7595C26.2644,20.7239,26.2862,20.6884,26.3054,20.6501L26.453,20.3713C26.4721,20.3358,26.4885,20.3003,26.5076,20.262C26.5377,20.2019,26.5678,20.1417,26.5978,20.0789C26.617,20.0379,26.6388,19.9941,26.658,19.9531C26.6853,19.8985,26.7099,19.8411,26.7372,19.7864C26.7564,19.7427,26.7782,19.6962,26.7974,19.6525C26.822,19.5978,26.8466,19.5431,26.8684,19.4885C26.8876,19.442,26.9067,19.3955,26.9258,19.3518C26.9477,19.2971,26.9723,19.2425,26.9942,19.1878C27.0133,19.1413,27.0297,19.0949,27.0488,19.0484C27.0707,18.9937,27.0926,18.9363,27.1117,18.8817C27.1281,18.8352,27.1472,18.7887,27.1636,18.7423C27.1855,18.6849,27.2046,18.6275,27.2238,18.5701C27.2402,18.5236,27.2566,18.4771,27.2702,18.4307L27.3276,18.2503C27.3413,18.2065,27.355,18.1628,27.3714,18.1163C27.3905,18.0507,27.4096,17.9879,27.4288,17.9223C27.4397,17.8813,27.4534,17.843,27.4643,17.802C27.4889,17.7173,27.5108,17.6353,27.5326,17.5506C27.5381,17.5287,27.5436,17.5068,27.5518,17.485C27.5791,17.3784,27.6064,17.2718,27.631,17.1652C27.6392,17.1296,27.6474,17.0968,27.6529,17.0613L27.7021,16.8399C27.7103,16.7962,27.7185,16.7524,27.7267,16.7114C27.7404,16.6458,27.754,16.5802,27.7649,16.5119L27.7896,16.3725C27.8005,16.3096,27.8114,16.244,27.8224,16.1812C27.8306,16.1347,27.836,16.0855,27.8442,16.039C27.8524,15.9762,27.8634,15.9106,27.8716,15.8477C27.877,15.7985,27.8852,15.752,27.8907,15.7028C27.8989,15.64,27.9071,15.5744,27.9126,15.5115C27.918,15.4623,27.9235,15.4158,27.929,15.3666L27.9454,15.1698C27.9481,15.1234,27.9536,15.0742,27.9563,15.0277C27.9618,14.9594,27.9645,14.891,27.97,14.8227C27.9727,14.779,27.9754,14.7325,27.9782,14.6888L27.9864,14.4592C27.9864,14.4209,27.9891,14.3826,27.9891,14.3471C27.9918,14.2323,27.9946,14.1175,27.9946,14.0027C27.9946,9.93282,26.248,6.26472,23.4655,3.70635L23.4545,3.69542C23.3807,3.62708,23.3042,3.56148,23.2304,3.49315C23.2222,3.48768,23.2167,3.47948,23.2085,3.47402L22.9871,3.28544C22.9762,3.27724,22.9652,3.2663,22.9543,3.2581C22.8832,3.19797,22.8095,3.13784,22.7357,3.08044C22.722,3.0695,22.7083,3.05857,22.6974,3.04764C22.6263,2.99024,22.5553,2.93557,22.4815,2.88091C22.4651,2.86997,22.4514,2.85631,22.435,2.84537C22.3639,2.79344,22.2929,2.73877,22.2218,2.68684C22.2027,2.67317,22.1863,2.65951,22.1671,2.64584C22.0988,2.59664,22.0277,2.54744,21.9567,2.49824C21.9348,2.48458,21.9157,2.46818,21.8938,2.45451C21.8255,2.40804,21.7544,2.36158,21.6861,2.31511C21.6642,2.29871,21.6396,2.28505,21.6177,2.26865C21.5494,2.22491,21.4811,2.18118,21.41,2.13745C21.3854,2.12105,21.3608,2.10738,21.3362,2.09098C21.2679,2.04998,21.1995,2.00625,21.1312,1.96525L21.0492,1.91605C20.9809,1.87778,20.9153,1.83678,20.8469,1.79852C20.8169,1.78212,20.7895,1.76572,20.7595,1.74932C20.6939,1.71105,20.6255,1.67552,20.5572,1.63998C20.5271,1.62358,20.4943,1.60719,20.4643,1.59079C20.3987,1.55525,20.3303,1.52245,20.2647,1.48965C20.2319,1.47325,20.1991,1.45685,20.1636,1.44045C20.098,1.40765,20.0324,1.37485,19.9668,1.34479L19.8602,1.29559L19.6634,1.20539C19.6251,1.18899,19.5896,1.17259,19.5513,1.15619C19.4857,1.12886,19.4229,1.10152,19.3573,1.07419C19.319,1.05779,19.278,1.04139,19.2397,1.02499C19.1769,0.997658,19.1113,0.973058,19.0484,0.948458C19.0074,0.932058,18.9664,0.918392,18.9254,0.901992C18.8625,0.877392,18.7969,0.855526,18.7341,0.830926C18.6903,0.814526,18.6493,0.800859,18.6056,0.78446L18.417,0.71886C18.3733,0.705194,18.3268,0.688794,18.2831,0.675127C18.2202,0.655994,18.1573,0.634128,18.0972,0.614995L17.9578,0.573995C17.8949,0.554862,17.8348,0.538462,17.772,0.519329C17.7228,0.505662,17.6763,0.491996,17.6271,0.481063C17.567,0.464663,17.5041,0.448263,17.444,0.431863C17.3948,0.418196,17.3428,0.407263,17.2936,0.393597C17.2335,0.37993,17.1734,0.36353,17.1132,0.349864C17.0613,0.338931,17.0094,0.327997,16.9574,0.314331C16.8973,0.300664,16.8399,0.289731,16.7798,0.276064C16.7251,0.265131,16.6704,0.254198,16.6158,0.245998C16.5584,0.235065,16.4982,0.224132,16.4408,0.213198C16.3862,0.202265,16.3288,0.194065,16.2714,0.185865C16.214,0.177665,16.1566,0.166732,16.0992,0.158532C16.0418,0.150332,15.9816,0.142132,15.9242,0.133933C15.8668,0.125733,15.8122,0.117533,15.7548,0.112066C15.6946,0.103866,15.6345,0.0983995,15.5716,0.0901996C15.517,0.0847329,15.4623,0.076533,15.4076,0.0710664L15.219,0.0546666C15.1671,0.0492,15.1124,0.0437333,15.0605,0.041C14.9922,0.0355334,14.9238,0.0328001,14.8582,0.0273335L14.7106,0.0191336C14.6314,0.0164003,14.5548,0.013667,14.4756,0.0109337C14.4346,0.0109337,14.3963,0.00820036,14.3553,0.00546705C14.2378,0.00273374,14.1175,4.33922e-7,14,4.33922e-7C13.8797,4.33922e-7,13.7622,0.00273374,13.6447,0.00546705C13.6037,0.00546705,13.5654,0.00820036,13.5244,0.0109337C13.4451,0.013667,13.3686,0.0164003,13.2893,0.0191336L13.1417,0.0273335C13.0734,0.0328001,13.0051,0.0355334,12.9395,0.041C12.8848,0.0437333,12.8329,0.0492,12.7809,0.0546666L12.5923,0.0710664C12.5377,0.076533,12.483,0.0819997,12.4283,0.0901996C12.3682,0.0983995,12.3081,0.103866,12.2452,0.112066C12.1878,0.120266,12.1331,0.128466,12.0757,0.133933C12.0183,0.142132,11.9582,0.150332,11.9008,0.158532C11.8434,0.166732,11.786,0.177665,11.7286,0.185865C11.6712,0.194065,11.6165,0.204999,11.5591,0.213198C11.5017,0.224132,11.4416,0.235065,11.3842,0.245998C11.3295,0.256931,11.2749,0.265131,11.2202,0.276064C11.1601,0.286998,11.1027,0.300664,11.0425,0.314331C10.9906,0.325264,10.9387,0.336197,10.8868,0.349864C10.8266,0.36353,10.7665,0.377197,10.7064,0.393597C10.6572,0.40453,10.6052,0.418196,10.556,0.431863C10.4959,0.448263,10.433,0.464663,10.3729,0.481063C10.3237,0.494729,10.2772,0.505662,10.228,0.519329C10.1652,0.535729,10.105,0.554862,10.0422,0.573995L9.90276,0.614995C9.83989,0.634128,9.77703,0.653261,9.7169,0.675127C9.67316,0.688794,9.6267,0.705194,9.58296,0.71886L9.39437,0.78446C9.35063,0.798126,9.30963,0.814526,9.2659,0.830926C9.20303,0.852792,9.13743,0.877392,9.07457,0.901992C9.03357,0.918392,8.99257,0.932058,8.95157,0.948458C8.88597,0.973058,8.8231,1.00039,8.76024,1.02499C8.72197,1.04139,8.68097,1.05779,8.64271,1.07419C8.57711,1.10152,8.51424,1.12886,8.44864,1.15619C8.41037,1.17259,8.37484,1.18899,8.33658,1.20539L8.13978,1.29559L8.03318,1.34479C7.96758,1.37485,7.90198,1.40765,7.83638,1.44045C7.80358,1.45685,7.77078,1.47325,7.73525,1.48965C7.66965,1.52245,7.60132,1.55799,7.53572,1.59079C7.50292,1.60719,7.47285,1.62358,7.44278,1.63998C7.37445,1.67552,7.30885,1.71378,7.24052,1.74932C7.21045,1.76572,7.18312,1.78212,7.15305,1.79852C7.08472,1.83678,7.01639,1.87505,6.94806,1.91605C6.92072,1.93245,6.89339,1.94885,6.86606,1.96251C6.79772,2.00351,6.72939,2.04451,6.66106,2.08825C6.63646,2.10465,6.61186,2.11831,6.58726,2.13471C6.51893,2.17845,6.44786,2.22218,6.37953,2.26591C6.35766,2.27958,6.33306,2.29598,6.31119,2.31238C6.24013,2.35884,6.1718,2.40531,6.10346,2.45178C6.0816,2.46544,6.06246,2.47911,6.0406,2.49551C5.96953,2.54471,5.9012,2.59391,5.83013,2.64311C5.811,2.65677,5.7946,2.67044,5.77547,2.68411C5.7044,2.73604,5.63333,2.78797,5.56227,2.84264C5.54587,2.85357,5.5322,2.86724,5.5158,2.87817C5.44474,2.93284,5.37094,2.99024,5.29987,3.0449C5.2862,3.05584,5.27254,3.06677,5.26161,3.0777C5.18781,3.1351,5.11674,3.19524,5.04294,3.25537C5.03201,3.26357,5.02107,3.2745,5.01014,3.2827L4.78874,3.4713C4.78054,3.47677,4.77508,3.48497,4.76688,3.49043C4.69034,3.55603,4.61654,3.62437,4.54275,3.6927L4.53181,3.70363C1.74658,6.26201,0,9.93011,0,14C0,14.1148,0.00273331,14.2296,0.00546662,14.3444C0.00546662,14.3827,0.00819993,14.4209,0.00819993,14.4565L0.0163999,14.6861C0.0191332,14.7298,0.0218665,14.7763,0.0245998,14.82C0.0273331,14.8883,0.0327997,14.9567,0.0382663,15.025C0.0409996,15.0715,0.0464662,15.1207,0.0491995,15.1671L0.0655994,15.3639C0.071066,15.4131,0.0765326,15.4596,0.0819992,15.5088C0.0901992,15.5744,0.0956658,15.6373,0.103866,15.7001C0.109332,15.7493,0.114799,15.7958,0.122999,15.845C0.131199,15.9078,0.139399,15.9734,0.150332,16.0363C0.158532,16.0828,0.163998,16.132,0.172198,16.1784C0.183132,16.244,0.194065,16.3069,0.204998,16.3725L0.229598,16.5119C0.240531,16.5775,0.254198,16.6431,0.267864,16.7114C0.276064,16.7552,0.284264,16.7989,0.292464,16.8399L0.341663,17.0613C0.349863,17.0968,0.35533,17.1296,0.36353,17.1652C0.38813,17.2718,0.415463,17.3784,0.442796,17.485C0.448262,17.5068,0.453729,17.5287,0.461929,17.5506C0.483795,17.6353,0.505662,17.72,0.530262,17.802C0.541195,17.843,0.554861,17.8813,0.565795,17.9223C0.584928,17.9879,0.604061,18.0535,0.623194,18.1164C0.636861,18.1601,0.650527,18.2038,0.664194,18.2503L0.721593,18.4307C0.737993,18.4772,0.754393,18.5236,0.768059,18.5674C0.787192,18.6248,0.809059,18.6822,0.828192,18.7396C0.844592,18.786,0.860992,18.8325,0.880125,18.879C0.901991,18.9336,0.921125,18.991,0.942991,19.0457C0.962124,19.0922,0.978524,19.1386,0.997657,19.1851C1.01952,19.2398,1.04139,19.2944,1.06599,19.3491C1.08512,19.3956,1.10426,19.442,1.12339,19.4858C1.14799,19.5404,1.16986,19.5951,1.19446,19.6498C1.21359,19.6935,1.23545,19.74,1.25459,19.7837C1.27919,19.8384,1.30652,19.8958,1.33112,19.9504C1.35025,19.9942,1.37212,20.0352,1.39125,20.0789C1.42132,20.139,1.45139,20.1992,1.48145,20.262C1.50059,20.2976,1.51699,20.3331,1.53612,20.3713L1.68372,20.6501C1.70285,20.6857,1.72472,20.7212,1.74385,20.7595C1.77665,20.8169,1.80672,20.8743,1.84225,20.9317C1.86685,20.9727,1.89145,21.0164,1.91605,21.0574C1.94611,21.1093,1.97618,21.1585,2.00625,21.2105C2.03358,21.2542,2.06091,21.2979,2.08551,21.3417C2.11558,21.3909,2.14565,21.4373,2.17571,21.4865C2.20305,21.5303,2.23311,21.574,2.26045,21.6177C2.29051,21.6642,2.32058,21.7107,2.35338,21.7571C2.38344,21.8009,2.41078,21.8446,2.44084,21.8856C2.47091,21.9321,2.50371,21.9758,2.53651,22.0223C2.56658,22.066,2.59664,22.107,2.62671,22.1507C2.65951,22.1945,2.69231,22.2409,2.72511,22.2847C2.75517,22.3257,2.78797,22.3694,2.81804,22.4104C2.85084,22.4541,2.88637,22.4979,2.91917,22.5416C2.95197,22.5826,2.98204,22.6236,3.01484,22.6646C3.05037,22.7083,3.0859,22.7548,3.12144,22.7985C3.15424,22.8368,3.1843,22.8751,3.2171,22.9161C3.2581,22.9653,3.29637,23.0117,3.33737,23.0582C3.64076,23.4135,3.96056,23.7552,4.29949,24.0805C4.37602,24.1515,4.44982,24.2253,4.52909,24.2964C4.53456,24.2991,4.53729,24.3046,4.54276,24.3073C4.61656,24.3757,4.69036,24.4413,4.76689,24.5096C4.77509,24.5151,4.78055,24.5233,4.78875,24.5287C4.86255,24.5916,4.93362,24.6545,5.00742,24.7173C5.01835,24.7255,5.02929,24.7365,5.04022,24.7447C5.11128,24.8048,5.18508,24.8622,5.25615,24.9223C5.26982,24.9333,5.28348,24.9442,5.29442,24.9551C5.36548,25.0125,5.43655,25.0672,5.50761,25.1219C5.52401,25.1328,5.54041,25.1465,5.55681,25.1574C5.62788,25.2093,5.69895,25.264,5.77001,25.3159C5.78914,25.3296,5.80554,25.3432,5.82468,25.3569C5.89301,25.4061,5.96408,25.4553,6.03514,25.5045C6.05701,25.5182,6.07614,25.5346,6.09801,25.5482C6.16634,25.5947,6.23741,25.6412,6.30574,25.6876C6.32761,25.704,6.35221,25.7177,6.37407,25.7341L6.57907,25.8653C6.60367,25.8817,6.62827,25.8981,6.6556,25.9118L6.8606,26.0348L6.9426,26.084C7.01093,26.1222,7.07653,26.1632,7.14486,26.2015C7.17493,26.2179,7.20226,26.2343,7.23233,26.2507C7.29793,26.289,7.36626,26.3245,7.4346,26.36C7.46739,26.3764,7.49746,26.3928,7.53026,26.4092C7.59586,26.4448,7.66146,26.4776,7.72979,26.5104C7.76259,26.5268,7.79539,26.5432,7.83092,26.5596C7.89652,26.5924,7.96212,26.6224,8.02772,26.6552L8.13432,26.7044L8.33112,26.7946C8.36939,26.811,8.40492,26.8274,8.44319,26.8438C8.50879,26.8712,8.57165,26.8985,8.63725,26.9258C8.67552,26.9422,8.71652,26.9586,8.75478,26.975C8.81765,27.0024,8.88325,27.027,8.94885,27.0516C8.98985,27.068,9.03085,27.0816,9.07185,27.098C9.13471,27.1226,9.20031,27.1472,9.26318,27.1691C9.30691,27.1855,9.34791,27.1992,9.39164,27.2156L9.58024,27.2812C9.62397,27.2948,9.67044,27.3112,9.71417,27.3249C9.77704,27.344,9.83717,27.3659,9.90004,27.385L10.0394,27.426C10.0996,27.4452,10.1624,27.4616,10.2253,27.4807C10.2745,27.4944,10.321,27.508,10.3702,27.519C10.4303,27.5354,10.4932,27.5518,10.5533,27.5682C10.6025,27.5818,10.6544,27.5928,10.7036,27.6064C10.7638,27.6201,10.8239,27.6365,10.884,27.6502C10.936,27.6611,10.9879,27.672,11.0398,27.6857C11.1,27.6994,11.1574,27.7103,11.2175,27.724C11.2722,27.7349,11.3268,27.7458,11.3788,27.754C11.4362,27.765,11.4963,27.7759,11.5537,27.7868C11.6084,27.7978,11.6658,27.806,11.7232,27.8142C11.7806,27.8224,11.838,27.8333,11.8954,27.8415C11.9528,27.8497,12.0129,27.8579,12.0703,27.8661C12.1277,27.8743,12.1824,27.8825,12.2397,27.888C12.2999,27.8962,12.36,27.9016,12.4229,27.9098C12.4775,27.9153,12.5322,27.9235,12.5869,27.929L12.7755,27.9454C12.8274,27.9508,12.8821,27.9563,12.934,27.959C13.0023,27.9645,13.0707,27.9672,13.1363,27.9727L13.2839,27.9809C13.3631,27.9836,13.4397,27.9864,13.5189,27.9891C13.5599,27.9891,13.5982,27.9918,13.6392,27.9946C13.7567,27.9973,13.877,28,13.9945,28C14.1148,28,14.2323,27.9973,14.3499,27.9946C14.3909,27.9946,14.4291,27.9918,14.4701,27.9891C14.5494,27.9864,14.6259,27.9836,14.7052,27.9809L14.8528,27.9727C14.9211,27.9672,14.9895,27.9645,15.0551,27.959C15.1097,27.9563,15.1617,27.9508,15.2136,27.9454L15.4022,27.929C15.4569,27.9235,15.5115,27.918,15.5662,27.9098C15.6263,27.9016,15.6864,27.8962,15.7493,27.888C15.8067,27.8798,15.8614,27.8716,15.9188,27.8661C15.9762,27.8579,16.0363,27.8497,16.0937,27.8415C16.1511,27.8333,16.2085,27.8224,16.2659,27.8142C16.3233,27.806,16.378,27.795,16.4354,27.7868C16.4928,27.7759,16.5529,27.765,16.6103,27.754C16.665,27.7431,16.7196,27.7349,16.7716,27.724C16.8317,27.713,16.8891,27.6994,16.9492,27.6857C17.0012,27.6748,17.0531,27.6638,17.105,27.6502C17.1652,27.6365,17.2253,27.6228,17.2854,27.6064C17.3346,27.5955,17.3866,27.5818,17.4358,27.5682C17.4959,27.5518,17.5588,27.5354,17.6189,27.519C17.6681,27.5053,17.7146,27.4944,17.7638,27.4807C17.8266,27.4643,17.8868,27.4452,17.9496,27.426L18.089,27.385C18.1519,27.3659,18.2148,27.3468,18.2749,27.3249C18.3186,27.3112,18.3651,27.2948,18.4088,27.2812L18.5974,27.2156C18.6412,27.2019,18.6822,27.1855,18.7259,27.1691C18.7888,27.1472,18.8544,27.1226,18.9172,27.098C18.9582,27.0816,18.9992,27.068,19.0402,27.0516C19.1058,27.027,19.1687,26.9996,19.2343,26.975C19.2726,26.9586,19.3136,26.9422,19.3518,26.9258C19.4174,26.8985,19.483,26.8712,19.5459,26.8438C19.5841,26.8274,19.6197,26.811,19.6579,26.7946L19.8547,26.7044L19.9613,26.6552C20.0269,26.6252,20.0925,26.5924,20.1581,26.5596C20.1909,26.5432,20.2265,26.5268,20.2593,26.5104C20.3249,26.4776,20.3932,26.442,20.4588,26.4092C20.4916,26.3928,20.5217,26.3764,20.5545,26.36C20.6228,26.3245,20.6884,26.289,20.7567,26.2507C20.7868,26.2343,20.8141,26.2179,20.8442,26.2015C20.9125,26.1632,20.9809,26.125,21.0465,26.084L21.1285,26.0348L21.3335,25.9118C21.3581,25.8954,21.3827,25.879,21.41,25.8653L21.615,25.7341C21.6369,25.7204,21.6615,25.704,21.6833,25.6876C21.7517,25.6412,21.8227,25.5947,21.8911,25.5482C21.9129,25.5346,21.9321,25.5182,21.9539,25.5045C22.025,25.4553,22.0933,25.4061,22.1644,25.3569C22.1835,25.3432,22.1999,25.3296,22.2191,25.3159C22.2901,25.264,22.3612,25.212,22.4323,25.1574C22.4487,25.1464,22.4651,25.1328,22.4815,25.1219C22.5525,25.0672,22.6263,25.0125,22.6947,24.9551C22.7083,24.9442,22.722,24.9333,22.7329,24.9223C22.8067,24.8649,22.8778,24.8048,22.9489,24.7447C22.9598,24.7365,22.9707,24.7255,22.9817,24.7173C23.0555,24.6545,23.1293,24.5916,23.2003,24.5287C23.2085,24.5233,23.214,24.5151,23.2222,24.5096C23.2987,24.444,23.3725,24.3757,23.4463,24.3073C23.4518,24.3046,23.4545,24.2991,23.46,24.2964C23.5365,24.2253,23.6131,24.1543,23.6896,24.0805C24.0285,23.7579,24.3483,23.4163,24.6517,23.0582ZM26.7372,14.9512C26.7345,14.9949,26.729,15.0414,26.7263,15.0851L26.7099,15.2655C26.7044,15.312,26.6989,15.3585,26.6962,15.4049C26.6907,15.4623,26.6825,15.5197,26.6771,15.5771C26.6716,15.6236,26.6661,15.6701,26.6579,15.7165C26.6497,15.7739,26.6415,15.8286,26.6333,15.8832C26.6251,15.9297,26.6197,15.9789,26.6115,16.0254C26.6033,16.08,26.5923,16.1347,26.5841,16.1894C26.5759,16.2358,26.5677,16.285,26.5595,16.3315C26.5486,16.3862,26.5404,16.4408,26.5295,16.4928C26.5213,16.5392,26.5103,16.5884,26.4994,16.6349C26.4885,16.6896,26.4775,16.7415,26.4639,16.7934C26.453,16.8399,26.442,16.8864,26.4311,16.9356C26.4174,16.9875,26.4065,17.0422,26.3928,17.0941C26.3819,17.1406,26.371,17.187,26.3573,17.2335C26.3436,17.2854,26.33,17.3374,26.3136,17.392C26.2999,17.4385,26.2889,17.485,26.2753,17.5287C26.2589,17.5806,26.2452,17.6326,26.2288,17.6845C26.2151,17.731,26.2015,17.7747,26.1878,17.8212C26.1714,17.8731,26.155,17.925,26.1359,17.977C26.1222,18.0207,26.1085,18.0644,26.0921,18.1109C26.073,18.1656,26.0539,18.2202,26.0347,18.2722C26.0211,18.3132,26.0047,18.3542,25.991,18.3952C25.9582,18.4881,25.9227,18.5783,25.8871,18.6712C25.8708,18.715,25.8516,18.7614,25.8325,18.8052C25.8134,18.8544,25.7942,18.9008,25.7724,18.95C25.7532,18.9965,25.7314,19.043,25.7122,19.0894C25.6931,19.1332,25.674,19.1796,25.6521,19.2234C25.6302,19.2698,25.6084,19.319,25.5865,19.3655C25.5674,19.4092,25.5455,19.453,25.5264,19.4967C25.5045,19.5432,25.4799,19.5924,25.458,19.6388C25.4362,19.6798,25.417,19.7236,25.3952,19.7646C25.3706,19.811,25.346,19.8575,25.3214,19.9067L25.2558,20.0297C25.2312,20.0762,25.2038,20.1226,25.1792,20.1718C25.1574,20.2128,25.1355,20.2511,25.1109,20.2921L25.0289,20.4315C25.007,20.4697,24.9824,20.5107,24.9606,20.549C24.9332,20.5955,24.9059,20.6419,24.8758,20.6884C24.8512,20.7267,24.8294,20.7649,24.8048,20.8032C24.7747,20.8497,24.7474,20.8961,24.7173,20.9426C24.6927,20.9809,24.6681,21.0164,24.6435,21.0519C24.6134,21.0984,24.5834,21.1449,24.5506,21.1886L24.4768,21.2952L24.3784,21.4346C24.3538,21.4674,24.3292,21.5002,24.3046,21.5357C24.2718,21.5822,24.2362,21.6287,24.2007,21.6751C24.1761,21.7052,24.1515,21.738,24.1296,21.7681C24.0941,21.8145,24.0558,21.8637,24.0203,21.9102C23.9984,21.9375,23.9766,21.9649,23.9547,21.9895C23.9137,22.0387,23.8727,22.0906,23.8317,22.1398C23.8235,22.1507,23.8153,22.1617,23.8044,22.1699C23.6896,22.3065,23.572,22.4405,23.4545,22.5744C22.4896,22.1179,21.3991,21.7325,20.2073,21.4319C20.8387,19.4666,21.2214,17.1625,21.2815,14.6724L26.7481,14.6724C26.7454,14.7025,26.7454,14.7353,26.7427,14.7653C26.7454,14.8255,26.7427,14.8883,26.7372,14.9512ZM20.9344,24.7228C20.8633,24.7692,20.7923,24.813,20.7212,24.8567C20.7075,24.8649,20.6966,24.8731,20.6829,24.8813C20.6173,24.9223,20.549,24.9633,20.4807,25.0016C20.4643,25.0125,20.4451,25.0234,20.4287,25.0316C20.3631,25.0699,20.3003,25.1054,20.2347,25.1437C20.2128,25.1546,20.1937,25.1683,20.1718,25.1792C20.1089,25.2148,20.0433,25.2503,19.9805,25.2831C19.9586,25.2968,19.934,25.3077,19.9121,25.3186L19.7235,25.417C19.6989,25.4307,19.6743,25.4416,19.6497,25.4553C19.5869,25.4854,19.524,25.5182,19.4611,25.5482C19.4365,25.5592,19.4092,25.5728,19.3846,25.5838C19.3217,25.6138,19.2589,25.6439,19.1933,25.6712C19.1687,25.6822,19.1413,25.6931,19.1167,25.704C19.0511,25.7314,18.9883,25.7614,18.9227,25.7888C18.8981,25.7997,18.8762,25.8079,18.8516,25.8188L18.6466,25.9008C18.6302,25.9063,18.6138,25.9145,18.5974,25.92C18.3569,26.0129,18.1136,26.0976,17.8649,26.1769L17.8157,26.1933C17.7556,26.2124,17.6954,26.2288,17.638,26.248C17.6134,26.2562,17.5861,26.2644,17.5615,26.2698C18.4361,25.3514,19.196,24.0996,19.8001,22.5963C20.7868,22.8423,21.7052,23.1484,22.5279,23.5037C22.0359,23.9465,21.5084,24.351,20.9508,24.7118C20.9426,24.7173,20.9371,24.72,20.9344,24.7228ZM10.1788,26.196L10.1296,26.1796C9.88091,26.1004,9.63764,26.0156,9.39711,25.9227C9.38071,25.9172,9.36431,25.9118,9.35064,25.9036L9.14565,25.8216C9.12105,25.8106,9.09918,25.8024,9.07458,25.7942C9.00898,25.7669,8.94338,25.7396,8.88052,25.7095C8.85592,25.6986,8.82858,25.6876,8.80398,25.6767C8.74112,25.6494,8.67552,25.6193,8.61265,25.5892C8.58805,25.5783,8.56072,25.5646,8.53612,25.5537C8.47325,25.5236,8.41039,25.4936,8.34752,25.4608C8.32292,25.4471,8.29832,25.4362,8.27372,25.4225L8.08512,25.3241C8.06326,25.3132,8.03866,25.2995,8.01679,25.2886C7.95119,25.253,7.88832,25.2202,7.82546,25.1847C7.80359,25.1738,7.78446,25.1628,7.76259,25.1492C7.69699,25.1136,7.63139,25.0754,7.56853,25.0371C7.55213,25.0262,7.53299,25.0152,7.51659,25.007C7.44826,24.966,7.38266,24.9278,7.31433,24.8868C7.30066,24.8786,7.28973,24.8704,7.27606,24.8649C7.205,24.8212,7.13393,24.7747,7.06287,24.731C7.06013,24.7282,7.05467,24.7255,7.05193,24.7228C6.49434,24.3592,5.96954,23.9574,5.47755,23.5146C6.30027,23.1593,7.21866,22.8532,8.20539,22.6072C8.80672,24.1105,9.56931,25.3624,10.444,26.2807C10.4194,26.2725,10.392,26.2643,10.3674,26.2589C10.2964,26.2315,10.2362,26.2124,10.1788,26.196ZM4.15189,22.1371C4.11089,22.0879,4.06989,22.0359,4.02889,21.9867C4.00703,21.9594,3.98516,21.9348,3.96603,21.9075C3.92776,21.861,3.89223,21.8118,3.8567,21.7653C3.8321,21.7353,3.81023,21.7052,3.78563,21.6724C3.7501,21.6259,3.7173,21.5795,3.68176,21.533C3.65717,21.5002,3.63257,21.4674,3.60797,21.4319L3.50957,21.2925L3.43577,21.1859C3.4057,21.1394,3.3729,21.0929,3.34283,21.0465C3.31824,21.0109,3.29364,20.9727,3.27177,20.9371C3.2417,20.8907,3.21164,20.8442,3.1843,20.7977C3.1597,20.7595,3.13784,20.7212,3.11324,20.6829C3.0859,20.6365,3.05584,20.59,3.0285,20.5435C3.0039,20.5053,2.98204,20.4643,2.96017,20.426C2.93284,20.3795,2.90551,20.3331,2.88091,20.2866C2.85904,20.2456,2.83717,20.2073,2.81257,20.1663C2.78797,20.1199,2.76064,20.0734,2.73604,20.0269L2.67044,19.9039C2.64584,19.8575,2.62124,19.811,2.59664,19.7618C2.57478,19.7208,2.55564,19.6771,2.53378,19.6361C2.50918,19.5896,2.48731,19.5404,2.46544,19.4939C2.44358,19.4502,2.42444,19.4065,2.40531,19.3627C2.38344,19.3163,2.36158,19.2698,2.33971,19.2206C2.32058,19.1769,2.30145,19.1304,2.27958,19.0867C2.26045,19.0402,2.23858,18.9937,2.21945,18.9473C2.20031,18.8981,2.17845,18.8489,2.15931,18.7997C2.14018,18.7559,2.12378,18.7122,2.10465,18.6685C2.06911,18.5783,2.03358,18.4853,2.00078,18.3924C1.98711,18.3514,1.97071,18.3104,1.95705,18.2694L1.89965,18.1054C1.88598,18.0617,1.86958,18.0179,1.85592,17.9715C1.83952,17.9195,1.82038,17.8676,1.80398,17.8157C1.79032,17.7692,1.77665,17.7255,1.76298,17.679C1.74658,17.6271,1.73018,17.5751,1.71652,17.5232C1.70285,17.4767,1.69192,17.4303,1.67825,17.3838C1.66458,17.3319,1.64818,17.28,1.63452,17.2253C1.62358,17.1788,1.60992,17.1324,1.59899,17.0859C1.58532,17.034,1.57165,16.9793,1.56072,16.9274L1.52792,16.788C1.51699,16.7333,1.50332,16.6814,1.49239,16.6267C1.48145,16.5802,1.47325,16.5338,1.46232,16.4846C1.45139,16.4299,1.44045,16.3752,1.43225,16.3233C1.42405,16.2768,1.41585,16.2276,1.40765,16.1812C1.39945,16.1265,1.38852,16.0718,1.38032,16.0172C1.37212,15.9707,1.36665,15.9215,1.35845,15.875C1.35025,15.8204,1.34205,15.763,1.33385,15.7083C1.32839,15.6618,1.32019,15.6154,1.31472,15.5689C1.30652,15.5115,1.30105,15.4541,1.29559,15.3967C1.29012,15.3502,1.28465,15.3038,1.28192,15.2573L1.26552,15.0769C1.26279,15.0332,1.25732,14.9867,1.25459,14.943C1.24912,14.8801,1.24639,14.8172,1.24366,14.7544C1.24092,14.7243,1.24092,14.6915,1.23819,14.6614L6.7048,14.6614C6.7622,17.1542,7.1476,19.4557,7.77899,21.4209C6.59,21.7216,5.49668,22.107,4.53182,22.5634C4.41156,22.4295,4.29403,22.2928,4.17649,22.1562C4.16556,22.1562,4.15736,22.148,4.15189,22.1371ZM7.05467,3.27724C7.12573,3.23077,7.1968,3.18704,7.26786,3.1433C7.28153,3.1351,7.29246,3.1269,7.30613,3.1187C7.37173,3.0777,7.44006,3.03671,7.5084,2.99844C7.5248,2.98751,7.54393,2.97657,7.56033,2.96837C7.62593,2.93011,7.69153,2.89457,7.75439,2.85631C7.77626,2.84537,7.79539,2.83171,7.81726,2.82077C7.88013,2.78524,7.94572,2.74971,8.00859,2.71691C8.03046,2.70324,8.05506,2.69231,8.07692,2.68138L8.26552,2.58298C8.29012,2.56931,8.31472,2.55838,8.33932,2.54471C8.40219,2.51464,8.46505,2.48184,8.52792,2.45178C8.55252,2.44084,8.57985,2.42718,8.60445,2.41624C8.66732,2.38618,8.73018,2.35611,8.79578,2.32878C8.82038,2.31785,8.84772,2.30691,8.87232,2.29598C8.93791,2.26865,9.00351,2.23858,9.06638,2.21125C9.09098,2.20031,9.11285,2.19211,9.13745,2.18118C9.20578,2.15385,9.27411,2.12378,9.34244,2.09918C9.35884,2.09371,9.37524,2.08551,9.39164,2.08005C9.63217,1.98712,9.87544,1.90238,10.1214,1.82312L10.1706,1.80672C10.2308,1.78758,10.2909,1.77118,10.351,1.75205C10.3756,1.74385,10.4002,1.73565,10.4276,1.73018C9.55291,2.64858,8.79305,3.90043,8.18899,5.40375C7.20226,5.15775,6.28387,4.85162,5.46115,4.49629C5.95314,4.0535,6.48067,3.64897,7.03553,3.28817C7.04647,3.2827,7.05193,3.27997,7.05467,3.27724ZM17.813,1.80398L17.8622,1.82038C18.1082,1.89965,18.3542,1.98438,18.5947,2.07731C18.6111,2.08278,18.6275,2.09098,18.6439,2.09645L18.8489,2.17845C18.8735,2.18938,18.8981,2.19758,18.92,2.20851C18.9856,2.23585,19.0512,2.26318,19.114,2.29325C19.1386,2.30418,19.166,2.31511,19.1906,2.32605C19.2534,2.35338,19.319,2.38344,19.3819,2.41351C19.4065,2.42444,19.4338,2.43811,19.4584,2.44904C19.5213,2.47911,19.5841,2.50918,19.6497,2.54198C19.6743,2.55291,19.6989,2.56658,19.7235,2.57751C19.7864,2.61031,19.852,2.64311,19.9149,2.67591C19.9367,2.68684,19.9613,2.70051,19.9832,2.71144C20.0461,2.74697,20.1117,2.77977,20.1745,2.81531C20.1964,2.82624,20.2155,2.83991,20.2374,2.85084C20.303,2.88637,20.3686,2.92464,20.4315,2.96291C20.4479,2.97384,20.467,2.98477,20.4834,2.99297C20.5517,3.03397,20.6173,3.07224,20.6857,3.11324C20.6993,3.12144,20.7103,3.12964,20.7239,3.13784C20.795,3.18157,20.8661,3.22804,20.9371,3.27177C20.9399,3.2745,20.9453,3.27724,20.9481,3.27997C21.5057,3.6435,22.0305,4.04803,22.5252,4.48809C21.7025,4.84342,20.7841,5.14955,19.7974,5.39555C19.196,3.89223,18.4334,2.64037,17.5588,1.72198C17.5834,1.73018,17.608,1.73565,17.6326,1.74385C17.6927,1.76845,17.7528,1.78485,17.813,1.80398ZM21.287,13.3303C21.2296,10.8376,20.8442,8.53612,20.2128,6.57087C21.4018,6.27021,22.4951,5.88481,23.46,5.42835C25.376,7.5412,26.5951,10.2991,26.7536,13.3331L21.287,13.3331L21.287,13.3303ZM13.3249,6.08161C11.9637,6.04608,10.649,5.90394,9.42171,5.67161C10.4057,3.30457,11.7888,1.67552,13.3249,1.30379L13.3249,6.08161ZM13.3249,7.29793L13.3249,13.3303L7.91839,13.3303C7.98126,10.9524,8.36939,8.72198,8.98985,6.84147C10.3401,7.10387,11.797,7.2624,13.3249,7.29793ZM13.3249,14.6697L13.3249,20.7021C11.797,20.7376,10.3401,20.8961,8.98985,21.1585C8.36939,19.2753,7.98126,17.0476,7.91839,14.6697L13.3249,14.6697ZM13.3249,21.9184L13.3249,26.6962C11.7888,26.3245,10.4057,24.6954,9.42171,22.3284C10.6517,22.0961,11.9637,21.9539,13.3249,21.9184ZM14.6642,21.9184C16.0254,21.9539,17.3401,22.0961,18.5674,22.3284C17.5834,24.6954,16.2003,26.3245,14.6642,26.6962L14.6642,21.9184ZM14.6642,20.7021L14.6642,14.6697L20.0707,14.6697C20.0078,17.0476,19.6197,19.278,18.9992,21.1585C17.649,20.8961,16.1921,20.7376,14.6642,20.7021ZM14.6642,13.3303L14.6642,7.29793C16.1921,7.2624,17.649,7.10387,18.9992,6.84147C19.6197,8.72472,20.0078,10.9524,20.0707,13.3303L14.6642,13.3303ZM14.6642,6.08161L14.6642,1.30379C16.2003,1.67552,17.5834,3.30457,18.5674,5.67161C17.3374,5.90394,16.0254,6.04608,14.6642,6.08161ZM4.52909,5.42561C5.49395,5.88208,6.58454,6.26747,7.77626,6.56814C7.14487,8.53338,6.7622,10.8376,6.70207,13.3276L1.23546,13.3276C1.39125,10.2964,2.61031,7.54119,4.52909,5.42561Z"  fill-opacity="1"/></g></g></svg>