<svg xmlns="http://www.w3.org/2000/svg" viewBox="0 0 18 18" class="design-iconfont">
  <g>
    <path d="M52.551,117.32a1.6,1.6,0,0,1-.914-.292l-2.705-1.791a.284.284,0,0,0-.292-.073H46.445a1.638,1.638,0,0,1-1.645-1.645v-6.4a1.638,1.638,0,0,1,1.645-1.645h2.194a.689.689,0,0,0,.292-.073l2.705-1.828a1.658,1.658,0,0,1,2.3.475,1.57,1.57,0,0,1,.256.914v10.712A1.687,1.687,0,0,1,52.551,117.32Zm-6.142-10.749a.538.538,0,0,0-.548.548v6.362a.562.562,0,0,0,.548.548H48.6a1.6,1.6,0,0,1,.914.292l2.705,1.791a.541.541,0,0,0,.768-.146.415.415,0,0,0,.11-.292V104.926a.625.625,0,0,0-.256-.475.5.5,0,0,0-.548.037l-2.742,1.791a1.6,1.6,0,0,1-.914.292ZM58.035,116.3a.767.767,0,0,1-.4-.146.53.53,0,0,1,0-.768,7.15,7.15,0,0,0,0-10.091l-.037-.037a.53.53,0,0,1,.037-.768.555.555,0,0,1,.731,0,8.242,8.242,0,0,1,.073,11.626l-.037.037A.559.559,0,0,1,58.035,116.3Z" transform="translate(-43.8 -101.309)"/>
    <path d="M675.487,267.64a.543.543,0,0,1-.4-.914,4.854,4.854,0,0,0,0-6.873.544.544,0,0,1,.731-.8.036.036,0,0,1,.037.037,5.991,5.991,0,0,1,.036,8.445A1.3,1.3,0,0,1,675.487,267.64Z" transform="translate(-663.116 -254.261)"/>
  </g>
</svg>
