<?xml version="1.0" standalone="no"?><!DOCTYPE svg PUBLIC "-//W3C//DTD SVG 1.1//EN" "http://www.w3.org/Graphics/SVG/1.1/DTD/svg11.dtd"><svg t="1711439040750" class="icon" viewBox="0 0 1024 1024" version="1.1" xmlns="http://www.w3.org/2000/svg" p-id="16591" xmlns:xlink="http://www.w3.org/1999/xlink" width="200" height="200"><path d="M670.0544 299.1616H205.824L344.8832 155.648a31.744 31.744 0 0 0 0-44.032 29.44 29.44 0 0 0-42.7008 0l-190.9248 197.12a31.7952 31.7952 0 0 0 0 44.032l190.976 197.12c11.776 12.1344 30.8224 12.1344 42.6496 0a31.7952 31.7952 0 0 0 0-44.0832l-137.216-141.568h462.3872c104.192 0 188.672 87.296 188.672 195.0208 0 107.6736-84.48 194.9696-188.672 194.9696H261.3248a32 32 0 0 0-31.4368 32.512c0 17.92 14.08 32.512 31.4368 32.512h408.7296C808.96 819.2 921.6 702.7712 921.6 559.2064c0-143.616-112.64-260.0448-251.5456-260.0448z" p-id="16592"></path></svg>