<svg xmlns="http://www.w3.org/2000/svg" width="20" height="20" viewBox="0 0 20 20">
  <g id="绑定账号" transform="translate(-20 -212)">
    <rect id="矩形_6255" data-name="矩形 6255" width="20" height="20" transform="translate(20 212)" fill="#333" opacity="0"/>
    <g id="身份识别" transform="translate(-50.533 141.467)">
      <path id="路径_24739" data-name="路径 24739" d="M275.016,499.982a.6.6,0,0,1-.583-.583,3.3,3.3,0,1,0-6.6,0,.583.583,0,0,1-1.165,0,4.466,4.466,0,1,1,8.932,0A.572.572,0,0,1,275.016,499.982Z" transform="translate(-190.599 -414.711)"  />
      <path id="路径_24740" data-name="路径 24740" d="M80.533,81.388a2.8,2.8,0,1,1,2.8-2.8A2.784,2.784,0,0,1,80.533,81.388Zm0-4.427a1.651,1.651,0,0,0,.039,3.3,1.625,1.625,0,0,0,1.631-1.67A1.7,1.7,0,0,0,80.533,76.961Zm-7.417.621A.6.6,0,0,1,72.533,77V73.5a.961.961,0,0,1,.971-.971H77A.583.583,0,1,1,77,73.7H73.7V77A.6.6,0,0,1,73.116,77.582Zm14.835,0A.6.6,0,0,1,87.368,77V73.7h-3.3a.583.583,0,1,1,0-1.165h3.5a.961.961,0,0,1,.971.971V77A.572.572,0,0,1,87.951,77.582ZM77,88.533H73.5a.961.961,0,0,1-.971-.971v-3.5a.583.583,0,1,1,1.165,0v3.3H77a.6.6,0,0,1,.583.583A.572.572,0,0,1,77,88.533Zm10.563,0h-3.5a.583.583,0,1,1,0-1.165h3.3v-3.3a.583.583,0,1,1,1.165,0v3.5A.961.961,0,0,1,87.562,88.533Z"  />
    </g>
  </g>
</svg>
