<svg xmlns="http://www.w3.org/2000/svg" width="22" height="22" viewBox="0 0 22 22">
  <g id="扮演" transform="translate(-29 -126)">
    <rect id="矩形_8130" data-name="矩形 8130" width="22" height="22" transform="translate(29 126)" opacity="0"/>
    <g id="联系人_2_" data-name="联系人 (2)" transform="translate(-58.606 61.918)">
      <path id="路径_24584" data-name="路径 24584" d="M98.025,79.692a.034.034,0,0,1,.007.01c.1.277-.491,6.411-.427,6.38s2.36-.066,2.36-.066l-.646-6.289H99.3l.015-.032-.646-.9-.636.886C98.015,79.68,98.01,79.685,98.025,79.692Zm-3.681-7.418a4.112,4.112,0,0,0,3.848,2.993,4.242,4.242,0,0,0,4.253-3.322,1.511,1.511,0,0,0,1.107-1.682,1.569,1.569,0,0,0-.906-1.358c0-2.311-.56-4.862-4.452-4.823-4.278.039-4.589,2.9-4.4,5.137a1.564,1.564,0,0,0-.867,1.338C92.924,71.437,93.285,72.245,94.344,72.274Zm7.34,13.616a30.794,30.794,0,0,0,7.33-1.061,5.852,5.852,0,0,0-2.33-4.56,34.823,34.823,0,0,0-3.647-1.643c-.638.339-1.861.98-2.6,1.336Zm-7.6-7.386a11.938,11.938,0,0,0-3.806,1.743A7.142,7.142,0,0,0,88.2,84.92a36.822,36.822,0,0,0,7.769,1.041l.955-5.815.118-.12C96.325,79.646,94.656,78.794,94.084,78.5Z" transform="translate(0 0)"  />
      <path id="路径_24585" data-name="路径 24585" d="M360.371,554.4l-.771,1.5,2.384,1.3,1.422-1.549L364.7,557.2l2.252-1.125-.8-1.672S363.018,555.94,360.371,554.4Z" transform="translate(-264.736 -478.278)"  />
    </g>
  </g>
</svg>
