<svg xmlns="http://www.w3.org/2000/svg" xmlns:xlink="http://www.w3.org/1999/xlink"  version="1.1" width="14" height="14" viewBox="0 0 14 14"><defs><clipPath id="master_svg0_3585_64259"><rect x="0" y="0" width="14" height="14" rx="0"/></clipPath></defs><g clip-path="url(#master_svg0_3585_64259)"><g><path d="M8.09375,6.453125Q8.09375,6.506987,8.08324,6.559815Q8.07273,6.612642,8.05212,6.662405Q8.03151,6.712167,8.00159,6.756952Q7.971661,6.801737,7.933574,6.839824Q7.895488,6.87791,7.850703,6.90783Q7.805918,6.93776,7.756155,6.95837Q7.706393,6.97898,7.653565,6.98949Q7.600738,7,7.546875,7Q7.493013,7,7.440185,6.98949Q7.387358,6.97898,7.337595,6.95837Q7.287833,6.93776,7.243048,6.90783Q7.198263,6.87791,7.160176,6.839824Q7.122089,6.801737,7.0921651,6.756952Q7.0622407,6.712167,7.0416284,6.662405Q7.0210161,6.612642,7.0105081,6.559815Q7,6.506987,7,6.453125Q7,6.399262,7.0105081,6.346435Q7.0210161,6.293607,7.0416284,6.243845Q7.0622407,6.194082,7.0921651,6.149297Q7.122089,6.104512,7.160176,6.066426Q7.198263,6.028339,7.243048,5.998415Q7.287833,5.9684907,7.337595,5.9478784Q7.387358,5.9272661,7.440185,5.916758Q7.493013,5.90625,7.546875,5.90625Q7.600738,5.90625,7.653565,5.916758Q7.706393,5.9272661,7.756155,5.9478784Q7.805918,5.9684907,7.850703,5.998415Q7.895488,6.028339,7.933574,6.066426Q7.971661,6.104512,8.00159,6.149297Q8.03151,6.194082,8.05212,6.243845Q8.07273,6.293607,8.08324,6.346435Q8.09375,6.399262,8.09375,6.453125Z"  fill-opacity="1" style="mix-blend-mode:passthrough"/></g><g><path d="M12.017483984375,11.27792625L9.519673984375,4.812496250000001L9.519673984375,2.43359425L10.499953984375,2.43359425L10.499953984375,1.50390625L3.499953984375,1.50390625L3.499953984375,2.43359425L4.480223984375,2.43359425L4.480223984375,4.812496250000001L1.982373084375,11.27792625C1.944091784375,11.37910625,1.923583984375,11.48574625,1.923583984375,11.59370625C1.923583984375,12.07640625,2.315966984375,12.46870625,2.798583984375,12.46870625L11.201313984375,12.46870625C11.309323984375,12.46870625,11.415963984375,12.44820625,11.517143984375,12.41000625C11.968283984375,12.23630625,12.192483984375,11.72910625,12.017483984375,11.27792625ZM5.409913984375001,4.9861362499999995L5.409913984375001,2.4609372499999997L8.589993984374999,2.4609372499999997L8.589993984374999,4.9861362499999995L9.832763984375,8.20312625C9.549753984375,8.13066625,9.257173984375001,8.093746249999999,8.959133984375,8.093746249999999C8.122413984375001,8.093746249999999,7.329443984375,8.387696250000001,6.699173984375,8.914066250000001C6.235693984375,9.29960625,5.656003984374999,9.51425625,5.040773984375,9.51425625C4.593703984375,9.51425625,4.164403984374999,9.40077625,3.785693984375,9.19023625L5.409913984375001,4.9861362499999995ZM2.877880984375,11.53910625L3.447993984375,10.06523625C3.936083984375,10.31269625,4.478853984375,10.44531625,5.042133984375,10.44531625C5.8788539843750005,10.44531625,6.671823984375,10.15136625,7.302103984375,9.62499625C7.765573984375,9.23945625,8.345263984375,9.024806250000001,8.960493984374999,9.024806250000001C9.439013984375,9.024806250000001,9.895653984375,9.154686250000001,10.294873984375,9.39531625L11.122023984375,11.53910625L2.877880984375,11.53910625Z"  fill-opacity="1" style="mix-blend-mode:passthrough"/></g></g></svg>