<svg xmlns="http://www.w3.org/2000/svg" xmlns:xlink="http://www.w3.org/1999/xlink"  version="1.1" width="15" height="15.032470703125" viewBox="0 0 15 15.032470703125"><g><g><path d="M8.80408619277954,13.57896663017273L6.181716192779541,13.57896663017273C5.655546192779541,13.558666630172729,5.240716192779541,13.12395663017273,5.245156192779541,12.597416630172729L5.245156192779541,11.18882663017273C3.631555192779541,10.17373663017273,2.871498192779541,8.22287663017273,3.373088192779541,6.38370663017273C3.874679192779541,4.5445466301727295,5.519936192779541,3.2496748301727294,7.425466192779541,3.1943529101727295C8.613876192779541,3.1675604301727294,9.75967619277954,3.6372846301727293,10.58729619277954,4.490546630172729C12.52281619277954,6.47671663017273,12.10948619277954,9.74672663017273,9.74064619277954,11.18882663017273L9.74064619277954,12.597416630172729C9.745086192779542,13.12395663017273,9.33025619277954,13.558666630172729,8.80408619277954,13.57896663017273ZM6.256646192779542,12.500006630172729L8.729166192779541,12.500006630172729L8.729166192779541,11.121396630172729C8.730986192779541,10.775016630172729,8.91255619277954,10.45443663017273,9.208676192779542,10.274746630172729C10.972306192779541,9.20531663017273,11.286576192779542,6.7751466301727294,9.853036192779541,5.29224663017273C8.528386192779541,3.9329286301727295,6.329176192779541,3.9811116301727294,5.065336192779541,5.397146630172729C4.499176192779541,6.00681663017273,4.192802192779541,6.81307663017273,4.211196192779541,7.64488663017273C4.2595361927795405,8.728516630172729,4.847456192779541,9.715896630172729,5.777126192779541,10.274746630172729C6.073246192779541,10.45443663017273,6.254816192779542,10.775016630172729,6.256646192779542,11.121396630172729L6.256646192779542,12.500006630172729Z"  fill-opacity="1"/></g><g><path d="M5.222096795135498,13.953460693359375L9.762535795135499,13.953460693359375Q10.279515795135499,13.953460693359375,10.279515795135499,14.470441693359374L10.279515795135499,14.515396693359374Q10.279515795135499,15.032380693359375,9.762535795135499,15.032380693359375L5.222096795135498,15.032380693359375Q4.705115795135498,15.032380693359375,4.705115795135498,14.515396693359374L4.705115795135498,14.470441693359374Q4.705115795135498,13.953460693359375,5.222096795135498,13.953460693359375Z"  fill-opacity="1"/></g><g><path d="M7.41012,3.04458C7.11745,3.04052,6.88475,2.7977,6.89314,2.50512L6.89314,0.587049C6.85562,0.274826,7.09939,0,7.41386,0C7.72833,0,7.97211,0.274826,7.93459,0.587049L7.93459,2.47515C7.95617,2.78051,7.71622,3.04103,7.41012,3.04458ZM14.4605,7.97463L12.5649,7.97463C12.267,7.97463,12.0255,7.73311,12.0255,7.43517C12.0255,7.13724,12.267,6.89572,12.5649,6.89571L14.4605,6.89571C14.7585,6.89572,15,7.13724,15,7.43517C15,7.73311,14.7585,7.97463,14.4605,7.97463ZM2.42013,8.13947L0.52453,8.13947C0.229528,8.1313,-0.00415593,7.8876,0.000056002,7.59252C-0.00411078,7.29871,0.230721,7.05717,0.52453,7.05306L2.42013,7.05306C2.71394,7.05717,2.94877,7.29871,2.9446,7.59252C2.94881,7.8876,2.71513,8.1313,2.42013,8.13947ZM11.0215,4.43818C10.8798,4.43458,10.7452,4.37537,10.6469,4.27335C10.4561,4.06004,10.4561,3.73741,10.6469,3.5241L11.988,2.16796C12.1918,1.95368,12.5335,1.95368,12.7373,2.16796C12.9281,2.38127,12.9281,2.7039,12.7373,2.91721L11.3886,4.25087C11.2987,4.36298,11.165,4.43118,11.0215,4.43818ZM3.85119,4.54308C3.71636,4.54194,3.5873,4.48817,3.49155,4.39323L2.1429,3.04458C1.95867,2.82881,1.95867,2.51111,2.1429,2.29533C2.34856,2.08544,2.6865,2.08544,2.89215,2.29533L4.21083,3.61401C4.40162,3.82732,4.40162,4.14995,4.21083,4.36326C4.1196,4.46859,3.9902,4.53329,3.85119,4.54308ZM9.84517,7.64496C9.61705,7.63908,9.41809,7.48835,9.35067,7.27034C9.21606,6.656,8.73624,6.17618,8.1219,6.04157C7.83439,5.99903,7.63035,5.73905,7.65737,5.44967C7.66882,5.14309,7.93651,4.90972,8.24178,4.94018C9.28418,5.11719,10.121,5.89802,10.3696,6.92568C10.4609,7.20659,10.3159,7.5097,10.04,7.61499C9.97679,7.63416,9.9112,7.64425,9.84517,7.64496Z"  fill-opacity="1"/></g></g></svg>