<svg xmlns="http://www.w3.org/2000/svg" viewBox="0 0 30 30" class="design-iconfont">
  <path d="M57.684,71.866A14.983,14.983,0,0,0,72.667,56.844,14.69,14.69,0,0,0,68.24,46.309,14.962,14.962,0,1,0,57.684,71.866Zm0-28a12.979,12.979,0,0,1,12.94,12.982,12.737,12.737,0,0,1-3.814,9.108A12.99,12.99,0,0,1,48.421,47.6,13.581,13.581,0,0,1,57.684,43.862ZM47.809,66.7Z" transform="translate(-42.667 -41.866)"/>
  <path d="M212.345,213.08a1.425,1.425,0,0,0,.748-.272.986.986,0,0,0,0-1.427L194.809,193.1a1.01,1.01,0,0,0-1.5,1.359.067.067,0,0,0,.068.068l18.284,18.284A.873.873,0,0,0,212.345,213.08Z" transform="translate(-188.25 -187.974)" />
</svg>
