<svg xmlns="http://www.w3.org/2000/svg" xmlns:xlink="http://www.w3.org/1999/xlink" fill="none" version="1.1" width="16" height="19.58820915222168" viewBox="0 0 16 19.58820915222168"><defs><linearGradient x1="0" y1="0.5" x2="1" y2="0.5" id="master_svg0_62_38615"><stop offset="0%" stop-color="#70C3EC" stop-opacity="1"/><stop offset="100%" stop-color="#4A92FF" stop-opacity="1"/></linearGradient></defs><g><path d="M7.90667,0Q8.47359,0,9.03074,0.127069Q9.58789,0.254138,10.0766,0.469179Q10.5653,0.684219,10.9466,0.957906Q11.3278,1.23159,11.5428,1.50528Q12.0511,2.13085,12.2857,2.88349Q12.5203,3.63613,12.618,4.32035Q12.7158,5.10232,12.7158,5.90383Q12.8526,6.00158,12.9308,6.15797Q13.009,6.29481,13.0579,6.50985Q13.1067,6.72489,13.0676,7.03768Q13.0285,7.44821,12.9015,7.69257Q12.7744,7.93694,12.618,8.07378Q12.4421,8.23018,12.2466,8.28882Q12.1488,8.62116,12.0511,8.91439Q11.9533,9.16853,11.8263,9.4129Q11.6992,9.65726,11.5428,9.7941Q11.1714,10.0873,10.9368,10.2926Q10.7022,10.4979,10.624,10.9866Q10.5653,11.2798,10.5849,11.5828Q10.6044,11.8859,10.7511,12.1889Q10.8977,12.4919,11.2007,12.7656Q11.5037,13.0393,12.0511,13.2543Q12.5398,13.4498,13.1165,13.6062Q13.6932,13.7626,14.2406,13.9678Q14.788,14.1731,15.2083,14.4761Q15.6286,14.7791,15.8045,15.307Q15.9023,15.6197,15.9511,16.0791Q16,16.5385,16,17.0077Q16,17.4769,15.9316,17.8874Q15.8632,18.298,15.7263,18.513Q15.6286,18.6499,15.1692,18.7867Q14.7098,18.9235,14.0353,19.0506Q13.3609,19.1777,12.53,19.2754Q11.6992,19.3732,10.8586,19.4416Q10.018,19.51,9.24578,19.5491Q8.47359,19.5882,7.90667,19.5882Q7.33975,19.5882,6.5871,19.5491Q5.83446,19.51,5.03295,19.4416Q4.23144,19.3732,3.4397,19.2852Q2.64796,19.1972,2.00284,19.0995Q1.35772,19.0017,0.908088,18.904Q0.458458,18.8062,0.341163,18.7085Q0.145672,18.5521,0.0381523,17.7506Q-0.0693678,16.9491,0.126123,15.6784Q0.223869,14.9551,0.702822,14.5739Q1.18178,14.1927,1.81712,13.9678Q2.45247,13.743,3.13669,13.5671Q3.8209,13.3911,4.34873,13.0588Q4.75926,12.8047,4.9743,12.5701Q5.18934,12.3355,5.28709,12.1009Q5.38483,11.8663,5.38483,11.6122Q5.38483,11.358,5.36528,11.0452Q5.32619,10.5956,5.0525,10.3317Q4.77881,10.0678,4.44648,9.79411Q4.29008,9.65726,4.17279,9.4129Q4.0555,9.16853,3.95775,8.9144Q3.86,8.62116,3.76226,8.28882Q3.62541,8.24973,3.48857,8.15198Q3.37128,8.05424,3.23443,7.87829Q3.09759,7.70235,2.99984,7.37002Q2.88255,7.03768,2.91187,6.76399Q2.9412,6.49031,3.01939,6.29482Q3.09759,6.07978,3.27353,5.88428Q3.25398,5.14142,3.35173,4.39855Q3.42992,3.77298,3.63519,3.04966Q3.84045,2.32635,4.25099,1.75942Q4.62242,1.21205,5.08182,0.869937Q5.54123,0.527827,6.02018,0.332336Q6.49913,0.136845,6.97809,0.0684232Q7.45704,0.00000127701,7.90667,0Z" fill="url(#master_svg0_62_38615)" fill-opacity="1"/></g></svg>