<?xml version="1.0" standalone="no"?><!DOCTYPE svg PUBLIC "-//W3C//DTD SVG 1.1//EN" "http://www.w3.org/Graphics/SVG/1.1/DTD/svg11.dtd"><svg t="1713954158793" class="icon" viewBox="0 0 1168 1024" version="1.1" xmlns="http://www.w3.org/2000/svg" p-id="24792" xmlns:xlink="http://www.w3.org/1999/xlink" width="228.125" height="200"><path d="M1058.167302 463.523339c-0.864552 0-1.605596 0-2.470148-0.123508-14.079846-1.111567-25.689543-11.733205-28.036184-25.689543C991.596804 219.843203 804.853588 61.753709 583.528296 61.753709c-218.978652 0-405.474852 156.236883-443.39163 371.63382-2.964178 16.797009-19.020142 28.036184-35.817151 25.072005-16.797009-2.964178-28.036184-19.020142-25.072006-35.817151 20.625739-117.085032 82.132433-224.042456 173.404415-301.358099 45.203715-38.410807 96.212278-68.299602 151.543601-88.925341C461.626475 10.868653 521.898094 0 583.528296 0c62.124231 0 122.766373 10.99216 180.444337 32.729466 55.701845 20.996261 106.957424 51.255578 152.284646 90.160415 64.717887 55.454831 114.367869 125.854059 144.750694 204.157761l47.426848-141.539501c5.434326-16.179472 22.97238-24.824991 39.028344-19.514172 16.179472 5.434326 24.824991 22.97238 19.514172 39.028344l-79.538777 237.504765c-4.199252 12.597757-16.055964 20.996261-29.271258 20.996261zM583.528296 1024c-61.630201 0-122.025329-10.868653-179.209263-32.235436-55.331323-20.625739-106.339887-50.638041-151.543602-88.925341-64.841394-54.960801-114.861898-125.113014-145.615245-203.169702L60.227367 837.380292c-5.557834 16.055964-23.095887 24.701484-39.275359 19.267157-16.179472-5.557834-24.824991-23.095887-19.267157-39.151851l78.797733-231.329394c4.569774-13.338801 17.538053-21.860813 31.617899-20.872753 14.079846 1.111567 25.566035 11.48619 28.036183 25.442528 37.916777 215.273429 224.412978 371.63382 443.39163 371.63382 221.572307 0 408.43903-158.460017 444.256181-376.697624 2.717163-16.797009 18.64962-28.159691 35.446629-25.442528 16.797009 2.717163 28.283199 18.64962 25.442528 35.446628C1069.28297 714.119889 1008.02329 822.559402 916.504294 900.986612c-45.45073 38.904837-96.706308 69.287661-152.408154 90.283922-57.554457 21.737306-118.320106 32.729466-180.567844 32.729466z" p-id="24793"></path><path d="M831.284176 438.080811H337.00749c-17.044024 0-30.876854-13.832831-30.876854-30.876855s13.832831-30.876854 30.876854-30.876854H831.284176c17.044024 0 30.876854 13.832831 30.876854 30.876854s-13.709323 30.876854-30.876854 30.876855zM831.284176 639.150887H337.00749c-17.044024 0-30.876854-13.832831-30.876854-30.876855s13.832831-30.876854 30.876854-30.876854H831.284176c17.044024 0 30.876854 13.832831 30.876854 30.876854s-13.709323 30.876854-30.876854 30.876855zM513.252575 359.777108c-7.533952 0-15.191412-2.717163-21.119768-8.398505L387.275009 253.190206c-12.474249-11.609697-13.091786-31.247377-1.482089-43.598118 11.609697-12.474249 31.247377-13.091786 43.598119-1.482089l104.857797 98.311904c12.474249 11.609697 13.091786 31.247377 1.482089 43.598119-5.928356 6.422386-14.203353 9.757086-22.47835 9.757086zM625.026788 359.777108c-8.274997 0-16.426487-3.3347-22.601857-9.757086-11.609697-12.474249-10.99216-31.988421 1.482089-43.598119l104.857797-98.311904c12.474249-11.609697 31.988421-10.99216 43.598119 1.482089 11.609697 12.474249 10.99216 31.988421-1.482089 43.598118L646.023049 351.502111c-5.928356 5.557834-13.462309 8.274997-20.996261 8.274997z" p-id="24794"></path><path d="M584.145833 832.68701c-17.044024 0-30.876854-13.832831-30.876854-30.876854V420.41925c0-17.044024 13.832831-30.876854 30.876854-30.876855s30.876854 13.832831 30.876854 30.876855v381.390906c0 17.044024-13.832831 30.876854-30.876854 30.876854z" p-id="24795"></path></svg>