<svg xmlns="http://www.w3.org/2000/svg" width="22" height="22" viewBox="0 0 22 22">
  <g id="创作" transform="translate(-29 -126)">
    <rect id="矩形_8130" data-name="矩形 8130" width="22" height="22" transform="translate(29 126)" opacity="0"/>
    <path id="路径_24508" data-name="路径 24508" d="M-40.733,705.126a.733.733,0,0,1,.733.733.733.733,0,0,1-.716.733H-61.267a.733.733,0,0,1-.733-.733.734.734,0,0,1,.716-.733h20.551Zm-7.3-18.427a2.144,2.144,0,0,1,2.989.041l2.093,2.092a2.143,2.143,0,0,1,0,3.031l-7.538,7.537a6.373,6.373,0,0,1-2.387,1.5l-4.6,1.622a.846.846,0,0,1-1.079-.516.844.844,0,0,1-.028-.465l.942-4.247A6.375,6.375,0,0,1-55.8,694.05Zm0,0" transform="translate(91 -559.354)"  />
  </g>
</svg>
