<svg xmlns="http://www.w3.org/2000/svg" xmlns:xlink="http://www.w3.org/1999/xlink" version="1.1" width="39.21875" height="39.21875" viewBox="0 0 39.21875 39.21875"><g><path d="M5.7632,39.2188C4.28203,39.2188,3.07695,38.0137,3.07695,36.5324L3.07695,21.1478C3.07695,19.6666,4.28203,18.4615,5.7632,18.4615L33.4555,18.4615C34.9367,18.4615,36.1418,19.6666,36.1418,21.1478L36.1418,36.5324C36.1418,38.0137,34.9367,39.2188,33.4555,39.2188L5.7632,39.2188ZM5.37258,36.923L33.8461,36.923L33.8461,20.7572L5.37258,20.7572L5.37258,36.923ZM19.6094,39.2188C18.9764,39.2188,18.4616,38.7038,18.4616,38.0709L18.4616,30.3786C18.4616,29.7457,18.9765,29.2309,19.6094,29.2309C20.2423,29.2309,20.7572,29.7458,20.7572,30.3786L20.7572,38.0709C20.7572,38.7038,20.2423,39.2188,19.6094,39.2188ZM25.7633,39.218C25.1306,39.218,24.6158,38.7034,24.6155,38.0707L24.6155,30.3785C24.6155,29.7456,25.1304,29.2308,25.7633,29.2308C26.3962,29.2308,26.9111,29.7457,26.9111,30.3785L26.9111,38.0709C26.9108,38.7032,26.3961,39.2178,25.7637,39.218L25.7633,39.218ZM13.4555,39.218C12.8228,39.218,12.308,38.7034,12.3077,38.0707L12.3077,30.3785C12.3077,29.7456,12.8226,29.2308,13.4555,29.2308C14.0884,29.2308,14.6033,29.7457,14.6033,30.3785L14.6033,38.0709C14.603,38.7032,14.0884,39.2178,13.4559,39.218L13.4555,39.218ZM3.98781,20.7572C1.78891,20.7572,0,18.862,0,16.5324C0,14.2029,1.78891,12.3077,3.98781,12.3077L14.9939,12.3077C15.6267,12.3079,16.1414,12.823,16.1411,13.4559C16.1408,14.0884,15.6261,14.603,14.9937,14.6033L3.98781,14.6033C3.05477,14.6033,2.29563,15.4687,2.29563,16.5323C2.29563,17.596,3.05469,18.4614,3.98781,18.4614L35.2309,18.4614C36.164,18.4614,36.923,17.596,36.923,16.5323C36.923,15.4687,36.164,14.6033,35.2309,14.6033L24.2248,14.6033C23.9202,14.6039,23.6281,14.4828,23.4134,14.2668C23.1976,14.0519,23.0766,13.7596,23.0776,13.455C23.0779,12.8227,23.5926,12.3079,24.2249,12.3077L35.2309,12.3077C37.4298,12.3077,39.2188,14.2029,39.2188,16.5324C39.2188,18.8619,37.4298,20.7572,35.2309,20.7572L3.98781,20.7572ZM23.077,13.2587L23.077,4.22477C23.077,3.16109,22.2116,2.2957,21.1479,2.2957L18.0709,2.2957C17.0073,2.2957,16.1419,3.16109,16.1419,4.22477L16.1419,13.0649L13.8463,13.0649L13.8463,4.22477C13.8462,1.89523,15.7414,0,18.0709,0L21.1479,0C23.4774,0,25.3727,1.89523,25.3727,4.22477L25.3727,13.2587L23.077,13.2587Z" fill-opacity="1"/></g></svg>