<svg xmlns="http://www.w3.org/2000/svg" xmlns:xlink="http://www.w3.org/1999/xlink" fill="none" version="1.1" width="18" height="18" viewBox="0 0 18 18"><defs><clipPath id="master_svg0_3593_65051"><rect x="0" y="0" width="18" height="18" rx="0"/></clipPath></defs><g><g clip-path="url(#master_svg0_3593_65051)"><g><path d="M9,16.5C13.1422,16.5,16.5,13.1422,16.5,9C16.5,4.85775,13.1422,1.5,9,1.5C4.85775,1.5,1.5,4.85775,1.5,9C1.5,13.1422,4.85775,16.5,9,16.5ZM9,18C4.02975,18,0,13.9703,0,9C0,4.02975,4.02975,0,9,0C13.9703,0,18,4.02975,18,9C18,13.9703,13.9703,18,9,18ZM9.75,9.44175L9.75,5.24775C9.75,4.83975,9.414,4.5,9,4.5C8.583,4.5,8.25,4.8345,8.25,5.24775L8.25,9.75225C8.24872,9.94883,8.32593,10.1378,8.4645,10.2773L10.596,12.4087C10.8885,12.6995,11.3616,12.6971,11.6512,12.4035C11.942,12.1127,11.9444,11.642,11.6565,11.3482L9.75,9.44175Z" fill="#333333" fill-opacity="1" style="mix-blend-mode:passthrough"/></g></g></g></svg>