<svg xmlns="http://www.w3.org/2000/svg" xmlns:xlink="http://www.w3.org/1999/xlink" version="1.1" width="14" height="14" viewBox="0 0 14 14"><defs><clipPath id="master_svg0_3585_64249"><rect x="0" y="0" width="14" height="14" rx="0"/></clipPath></defs><g clip-path="url(#master_svg0_3585_64249)"><g><path d="M7.0006967578125,0.4375L10.1176767578125,2.22724L10.1146367578125,2.22724L10.1083467578125,2.23039L12.6701767578125,3.70869L12.6701767578125,10.25103L7.0006967578125,13.5222L1.3311767578125,10.25105L1.3311767578125,3.70869L3.8930567578125,2.2319199999999997L3.8820167578125,2.22724L3.8852467578125,2.22724L7.0005367578125,0.4375L7.0006967578125,0.4375ZM2.2511437578124998,4.79227L2.2511437578124998,9.72106L6.5398767578125,12.1949L6.5398767578125,7.26612L2.2511437578124998,4.79227ZM11.7502767578125,4.79548L7.4614367578125,7.2692L7.4614367578125,12.1932L9.7245867578125,10.888L9.7245867578125,10.8878L11.7501767578125,9.71946L11.7501767578125,4.79533L11.7502767578125,4.79548ZM7.0021467578125,1.50038L4.8155867578125005,2.76175L4.8130867578125,2.76038L2.6945767578125,3.9839L2.6957767578125003,3.98448L2.6945767578125,3.98527L4.8209067578125,5.21194L4.8225067578125,5.2109L7.0037567578125,6.46871L9.1903967578125,5.20727L9.1928967578125,5.20881L11.3113267578125,3.9852L11.3100467578125,3.98454L11.3113267578125,3.9839L9.1850767578125,2.75725L9.183306757812499,2.75812L7.0022267578125,1.50038L7.0021467578125,1.50038ZM7.0084367578125,3.95533L7.0538367578125,3.98133L6.9974867578125,4.013780000000001L6.9519867578125,3.98777L7.0084367578125,3.95533Z"  fill-opacity="1"/></g></g></svg>