<svg xmlns="http://www.w3.org/2000/svg" xmlns:xlink="http://www.w3.org/1999/xlink" fill="inherit" version="1.1" width="20" height="21.421295166015625" viewBox="0 0 20 21.421295166015625"><g><g><g><path d="M10.10167,3Q11.84805,3,13.3786,3.586251Q14.9091,4.1725,16.0472,5.18928Q17.185299999999998,6.20606,17.8427,7.58009Q18.5,8.95411,18.5,10.51134Q18.5,12.08689,17.823,13.4609Q17.1461,14.8349,15.9687,15.8609Q15.5959,16.2456,14.9876,16.2456Q14.5559,16.2456,14.1831,16.0074Q13.359,15.5128,12.996,14.9723Q12.6329,14.4319,12.46615,13.8548Q12.29936,13.2777,12.23068,12.6823Q12.16201,12.08689,11.94616,11.49148Q11.73032,10.89607,11.24957,10.2915Q10.76883,9.68692,9.78771,9.08235Q9.29715,8.78923,8.865459999999999,8.642669999999999Q8.433769999999999,8.4961,8.002089999999999,8.37702Q7.57039,8.25794,7.15833,8.12054Q6.74626,7.98313,6.29495,7.69917Q5.84363,7.4152,5.36289,6.94803Q4.88214,6.4808699999999995,4.35234,5.71141Q4.8429,5.051880000000001,5.51987,4.54807Q6.19684,4.0442599999999995,6.9621,3.696173Q7.72737,3.348087,8.53189,3.174043Q9.336400000000001,3,10.10167,3ZM10.94543,11.53728Q11.22014,12.10521,11.32806,12.6365Q11.43598,13.1678,11.49485,13.6624Q11.55372,14.1571,11.66164,14.6059Q11.76956,15.0548,12.05408,15.467Q12.3386,15.8792,12.8684,16.2548Q13.3982,16.6303,14.3401,16.9601Q14.3989,17.0151,14.4382,17.1708Q14.4774,17.3265,14.5363,17.528Q14.5952,17.729599999999998,14.7227,17.9952Q14.8503,18.2608,15.1053,18.5357Q13.3393,18.9387,11.82843,18.9937Q10.31751,19.0486,8.78698,18.627299999999998Q8.96357,18.2242,9.04206,17.894399999999997Q9.12055,17.564700000000002,9.14018,17.2807Q9.1598,16.9967,9.149989999999999,16.740299999999998Q9.14018,16.483800000000002,9.12055,16.209Q9.08131,15.6777,8.7183,15.5494Q8.35528,15.4212,7.87454,15.4853Q7.39379,15.5494,6.91305,15.7052Q6.4323,15.8609,6.13797,15.8975Q5.80439,15.9525,5.4413800000000005,15.98Q5.07837,16.0074,4.76441,15.9616Q4.45045,15.9158,4.26404,15.7876Q4.07763,15.6594,4.1365,15.3846Q4.17574,15.1647,4.2248,14.8716Q4.2738499999999995,14.5785,4.2738499999999995,14.267Q4.2738499999999995,13.9556,4.1659299999999995,13.6716Q4.0580099999999995,13.3876,3.7833,13.1861Q3.66556,13.1128,3.400662,12.99375Q3.135761,12.87467,2.900294,12.7281Q2.664827,12.58154,2.5470934,12.43498Q2.4293598,12.28842,2.60596,12.14185Q2.998406,11.86705,3.410473,11.51896Q3.82254,11.17087,4.03839,10.76783Q4.1365,10.584620000000001,4.15612,10.383099999999999Q4.17574,10.18158,4.14631,10.00753Q4.11688,9.833490000000001,4.07763,9.69609Q4.03839,9.558679999999999,4.03839,9.46708Q4.03839,9.37548,3.9599,9.228919999999999Q3.88141,9.08235,3.8029200000000003,8.82587Q3.72443,8.56939,3.68519,8.184660000000001Q3.64594,7.79993,3.72443,7.21368Q3.214251,7.34192,2.998406,7.76329Q2.782561,8.184660000000001,2.86105,8.807549999999999Q2.5470937,8.36786,2.5274713,7.9923Q2.50784904,7.61673,2.655016,7.31444Q2.802183,7.01216,3.086706,6.7739899999999995Q3.371229,6.53583,3.68519,6.37094Q4.19536,7.39688,4.793839999999999,7.90985Q5.39232,8.42282,6.04967,8.688469999999999Q6.70702,8.95411,7.37417,9.07319Q8.04133,9.19228,8.67905,9.43044Q9.31678,9.6686,9.89563,10.13577Q10.47449,10.60294,10.94543,11.53728Z" fill="inherit" fill-opacity="1"/></g></g></g></svg>