<?xml version="1.0" standalone="no"?><!DOCTYPE svg PUBLIC "-//W3C//DTD SVG 1.1//EN" "http://www.w3.org/Graphics/SVG/1.1/DTD/svg11.dtd"><svg t="1719890879235" class="icon" viewBox="0 0 1024 1024" version="1.1" xmlns="http://www.w3.org/2000/svg" p-id="4336" xmlns:xlink="http://www.w3.org/1999/xlink" width="64" height="64"><path d="M430.08 412.7232h163.84a51.2 51.2 0 0 0 51.2-51.2v-163.84a51.2 51.2 0 0 0-51.2-51.2H430.08a51.2 51.2 0 0 0-51.2 51.2v163.84a51.2 51.2 0 0 0 51.2 51.2z m0-215.04h163.84v163.84H430.08v-163.84zM870.4 672.7168h-25.6512v-124.2624c0-42.3424-34.4576-76.8-76.8-76.8h-512c-42.3424 0-76.8 34.4576-76.8 76.8v124.2624H153.6a51.2 51.2 0 0 0-51.2 51.2v102.4a51.2 51.2 0 0 0 51.2 51.2h102.4a51.2 51.2 0 0 0 51.2-51.2v-102.4a51.2 51.2 0 0 0-51.2-51.2h-25.6512v-124.2624a25.6 25.6 0 0 1 25.6-25.6h230.4v149.8624H460.8a51.2 51.2 0 0 0-51.2 51.2v102.4a51.2 51.2 0 0 0 51.2 51.2h102.4a51.2 51.2 0 0 0 51.2-51.2v-102.4a51.2 51.2 0 0 0-51.2-51.2h-25.6512v-149.8624h230.4a25.6 25.6 0 0 1 25.6 25.6v124.2624H768a51.2 51.2 0 0 0-51.2 51.2v102.4a51.2 51.2 0 0 0 51.2 51.2h102.4a51.2 51.2 0 0 0 51.2-51.2v-102.4a51.2 51.2 0 0 0-51.2-51.2z m-614.4 51.2v102.4H153.6v-102.4h102.4z m307.2 0v102.4H460.8v-102.4h102.4z m307.2 102.4h-102.4v-102.4h102.4v102.4z" p-id="4337"></path></svg>