<svg xmlns="http://www.w3.org/2000/svg" xmlns:xlink="http://www.w3.org/1999/xlink"  version="1.1" width="14" height="14" viewBox="0 0 14 14"><defs><clipPath id="master_svg0_3338_60695"><rect x="0" y="0" width="14" height="14" rx="0"/></clipPath></defs><g clip-path="url(#master_svg0_3338_60695)"><g><path d="M11.375045859375,5.250045859375L7.875045859375,5.250045859375L7.875045859375,1.7500458593750001L2.625045859375,1.7500458593750001L2.625045859375,12.250055859375L11.375045859375,12.250055859375L11.375045859375,5.250045859375ZM11.019795859375,4.375045859375L8.750045859375,2.105295859375L8.750045859375,4.375045859375L11.019795859375,4.375045859375ZM2.187545859375,0.875046186375L8.750045859375,0.875046186375L12.250055859375,4.375045859375L12.250055859375,12.687555859375C12.254355859375,12.804955859375,12.210055859375,12.918955859375,12.127555859375,13.002555859375C12.043955859375,13.085055859375,11.929955859375,13.129355859375,11.812555859375,13.125055859375L2.187545859375,13.125055859375C2.070149859375,13.129355859375,1.956171859375,13.085055859375,1.872545859375,13.002555859375C1.790037859375,12.918955859375,1.745713039375,12.804955859375,1.750046253375,12.687555859375L1.750046253375,1.3125458593750001C1.750046253375,1.1847958593749999,1.791171259375,1.079795859375,1.872545859375,0.997545859375C1.956171859375,0.915037959375,2.070149859375,0.870713239375,2.187545859375,0.875046186375ZM4.375045859375,7.000045859375L9.625045859375,7.000045859375L9.625045859375,7.875045859375L4.375045859375,7.875045859375L4.375045859375,7.000045859375ZM4.375045859375,4.375045859375L6.562545859375,4.375045859375L6.562545859375,5.250045859375L4.375045859375,5.250045859375L4.375045859375,4.375045859375ZM4.375045859375,9.625045859375L9.625045859375,9.625045859375L9.625045859375,10.500045859375L4.375045859375,10.500045859375L4.375045859375,9.625045859375Z"  fill-opacity="1" style="mix-blend-mode:passthrough"/><path d="M2.188446859375,0.825046159375Q1.983508859375,0.817825559375,1.837429459375,0.961953959375L1.837002359375,0.962380359375Q1.700046259375,1.100808859375,1.700046259375,1.3125458593750001L1.700046259375,12.686655859375Q1.692826059375,12.891555859375,1.837429559375,13.038155859375Q1.983517859375,13.182255859375,2.188465859375,13.175055859375L11.811655859375,13.175055859375Q12.016555859375,13.182255859375,12.163155859375,13.037655859375Q12.307255859375,12.891555859375,12.300055859375,12.686655859375L12.300055859375,4.354335859375L8.770755859375,0.825046159375L2.188446859375,0.825046159375ZM1.907878859375,1.032925859375Q1.800046259375,1.142084859375,1.800046259375,1.3125458593750001L1.800046259375,12.688455859375L1.800012259375,12.689355859375Q1.794018959375,12.851755859375,1.907662859375,12.966955859375Q2.023328859375,13.081055859375,2.185701859375,13.075055859375L2.186623859375,13.075055859375L11.813455859375,13.075055859375L11.814355859375,13.075055859375Q11.976755859375,13.081055859375,12.091955859375,12.967455859375Q12.206055859375,12.851755859375,12.200055859375,12.689355859375L12.200055859375,12.688455859375L12.200055859375,4.395755859375L8.729335859375,0.925046159375L2.186623859375,0.925046159375L2.185701859375,0.925012159375Q2.023478859375,0.919024759375,1.907878859375,1.032925859375ZM2.575045859375,12.300055859375L11.425045859375,12.300055859375L11.425045859375,5.200045859375L7.925045859375,5.200045859375L7.925045859375,1.7000458593749999L2.575045859375,1.7000458593749999L2.575045859375,12.300055859375ZM11.325045859375,12.200055859375L2.675045859375,12.200055859375L2.675045859375,1.800045859375L7.825045859375,1.800045859375L7.825045859375,5.300045859375L11.325045859375,5.300045859375L11.325045859375,12.200055859375ZM8.700045859374999,1.984585859375L8.700045859374999,4.425045859375L11.140505859375,4.425045859375L8.700045859374999,1.984585859375ZM8.800045859375,4.325045859375L10.899085859375,4.325045859375L8.800045859375,2.2260058593750003L8.800045859375,4.325045859375ZM4.325045859375,4.325045859375L4.325045859375,5.300045859375L6.612545859375,5.300045859375L6.612545859375,4.325045859375L4.325045859375,4.325045859375ZM4.425045859375,5.200045859375L6.512545859375,5.200045859375L6.512545859375,4.425045859375L4.425045859375,4.425045859375L4.425045859375,5.200045859375ZM4.325045859375,6.950045859375L4.325045859375,7.925045859375L9.675045859375,7.925045859375L9.675045859375,6.950045859375L4.325045859375,6.950045859375ZM4.425045859375,7.825045859375L9.575045859374999,7.825045859375L9.575045859374999,7.050045859375L4.425045859375,7.050045859375L4.425045859375,7.825045859375ZM4.325045859375,9.575045859375L4.325045859375,10.550045859375L9.675045859375,10.550045859375L9.675045859375,9.575045859375L4.325045859375,9.575045859375ZM4.425045859375,10.450045859375L9.575045859374999,10.450045859375L9.575045859374999,9.675045859375L4.425045859375,9.675045859375L4.425045859375,10.450045859375Z" fill-rule="evenodd"  fill-opacity="1"/></g></g></svg>