<svg xmlns="http://www.w3.org/2000/svg" xmlns:xlink="http://www.w3.org/1999/xlink" version="1.1" width="24" height="24" viewBox="0 0 24 24"><defs><clipPath id="master_svg0_2531_35978"><rect x="0" y="0" width="24" height="24" rx="0"/></clipPath></defs><g clip-path="url(#master_svg0_2531_35978)"><g><path d="M15.367824375,10.912641914062501L7.782224375,5.1232419140625C6.881874375,4.4358779140625,5.583984375,5.0780299140625,5.583984375,6.2106519140625L5.583984375,17.7894619140625C5.583984375,18.9220619140625,6.881874375,19.5642619140625,7.782224375,18.8769619140625L15.367824375,13.0875119140625C16.085084375,12.5400619140625,16.085084375,11.4601019140625,15.367824375,10.912641914062501ZM18.305884374999998,18.3000619140625L18.305884374999998,10.5864219140625L18.305884374999998,6.7294919140625C18.305884374999998,6.2694519140625005,18.444284375000002,5.3120909140625,17.906084375,4.9519619140625C17.307884375,4.5519139140625,16.505784374999998,4.9803249140625,16.505784374999998,5.7000739140625L16.505784374999998,17.2706619140625C16.505784374999998,17.7306619140625,16.367184375,18.687961914062498,16.905284375,19.0481619140625C17.503784375000002,19.4481619140625,18.305884374999998,19.0197619140625,18.305884374999998,18.3000619140625Z"  fill-opacity="1"/></g></g></svg>