<svg xmlns="http://www.w3.org/2000/svg" viewBox="0 0 26 26" class="design-iconfont">
  <g >
    <path d="M306.663,59.783A5.915,5.915,0,0,1,300.8,53.92V48.53a5.863,5.863,0,1,1,11.727,0v5.39A6,6,0,0,1,306.663,59.783Zm0-15.28a4.083,4.083,0,0,0-4.087,4.027v5.39a4.057,4.057,0,0,0,8.114,0V48.53A3.994,3.994,0,0,0,306.663,44.5Z" transform="translate(-293.662 -42.667)"/>
    <path d="M142.546,455.65A10.68,10.68,0,0,1,132,446.766a.974.974,0,0,1,.711-1.066.922.922,0,0,1,1.066.711,8.89,8.89,0,0,0,17.531,0,.9.9,0,0,1,1.777.237A10.578,10.578,0,0,1,142.546,455.65Z" transform="translate(-129.545 -434.447)"/>
    <path d="M480.888,765.389A.911.911,0,0,1,480,764.5v-4.146a.888.888,0,0,1,1.777,0V764.5A.911.911,0,0,1,480.888,765.389Z" transform="translate(-467.888 -739.567)"/>
    <path d="M329.772,916.977h-8.884a.888.888,0,1,1,0-1.777h8.884a.911.911,0,0,1,.888.888A.872.872,0,0,1,329.772,916.977Z" transform="translate(-312.329 -890.977)"/>
  </g>
</svg>
