<svg xmlns="http://www.w3.org/2000/svg" width="22" height="22" viewBox="0 0 22 22">
  <g id="对话" transform="translate(-29 -126)">
    <rect id="矩形_8130" data-name="矩形 8130" width="22" height="22" transform="translate(29 126)" opacity="0"/>
    <g id="对话-2" data-name="对话" transform="translate(-36 6.096)">
      <path id="路径_24609" data-name="路径 24609" d="M68.1,263.947v2.444a.647.647,0,0,0,.307.553h0a.555.555,0,0,0,.307.061.872.872,0,0,0,.369-.123h0l4.118-2.951-5.125,0a.019.019,0,0,1,.019.019ZM82.017,251H66.472A1.472,1.472,0,0,0,65,252.471v9.985a1.472,1.472,0,0,0,1.472,1.472H82.017a1.472,1.472,0,0,0,1.472-1.472v-9.985A1.472,1.472,0,0,0,82.017,251ZM76.1,259.686a.568.568,0,0,1-.613.521H69.968a.621.621,0,0,1-.638-.657.568.568,0,0,1,.613-.521h5.516A.622.622,0,0,1,76.1,259.686Zm3.078-4.31a.568.568,0,0,1-.613.521h-8.6a.621.621,0,0,1-.638-.657.568.568,0,0,1,.613-.521h8.6A.621.621,0,0,1,79.176,255.376Zm3.563-4.4c-.025-.006-.044,0-.038,0,.023,0,.047,0,.069,0Zm.058.006h0Z" transform="translate(0 -126.488)"  />
      <path id="路径_24610" data-name="路径 24610" d="M210.231,121.29H194.322a1.472,1.472,0,0,0-1.472,1.472v.542h14.205a3.5,3.5,0,0,1,.733.052,2.083,2.083,0,0,1,1.6,2.037c0,.741,0,1.483,0,2.225v6.864h.839a1.472,1.472,0,0,0,1.472-1.472V122.762A1.472,1.472,0,0,0,210.231,121.29Z" transform="translate(-124.704 0)"  />
    </g>
  </g>
</svg>
