<?xml version="1.0" standalone="no"?><!DOCTYPE svg PUBLIC "-//W3C//DTD SVG 1.1//EN" "http://www.w3.org/Graphics/SVG/1.1/DTD/svg11.dtd"><svg t="1713954704039" class="icon" viewBox="0 0 1024 1024" version="1.1" xmlns="http://www.w3.org/2000/svg" p-id="63451" xmlns:xlink="http://www.w3.org/1999/xlink" width="200" height="200"><path d="M512 68c41.94 0 81.36 16.33 111.02 45.98C652.67 143.64 669 183.06 669 225s-16.33 81.36-45.98 111.02C593.36 365.67 553.94 382 512 382s-81.36-16.33-111.02-45.98C371.33 306.36 355 266.94 355 225s16.33-81.36 45.98-111.02C430.64 84.33 470.06 68 512 68m0-68C387.74 0 287 100.74 287 225s100.74 225 225 225 225-100.74 225-225S636.26 0 512 0zM806.86 642c39.6 0 76.98 15.58 105.27 43.87S956 751.54 956 791.14v15.72c0 39.6-15.58 76.98-43.87 105.27S846.46 956 806.86 956H217.14c-39.6 0-76.98-15.58-105.27-43.87S68 846.46 68 806.86v-15.72c0-39.6 15.58-76.98 43.87-105.27S177.54 642 217.14 642h589.72m0-68H217.14C97.71 574 0 671.71 0 791.14v15.72C0 926.29 97.71 1024 217.14 1024h589.72c119.43 0 217.14-97.71 217.14-217.14v-15.72C1024 671.71 926.29 574 806.86 574z" fill="" p-id="63452"></path></svg>