<?xml version="1.0" standalone="no"?><!DOCTYPE svg PUBLIC "-//W3C//DTD SVG 1.1//EN" "http://www.w3.org/Graphics/SVG/1.1/DTD/svg11.dtd"><svg t="1713954561760" class="icon" viewBox="0 0 1024 1024" version="1.1" xmlns="http://www.w3.org/2000/svg" p-id="52585" xmlns:xlink="http://www.w3.org/1999/xlink" width="200" height="200"><path d="M92 448.81562501a30 30 0 0 0 60-0.1125l-1e-8-0.703125c0-198.82499999 161.175-360 360.00000001-360.00000001S872 249.17500001 872.00000001 448.00000001s-161.175 360-360.00000001 360.00000001c-120.45 0-227.071875-59.15625-292.425-150.00000001L272 658.00000001a30 30 0 0 0 1e-8-60l-105.00000001 0a30 30 0 0 0-30 30L137 763a30 30 0 0 0 60 1e-8l0-37.209375C273.959375 812.99687501 386.553125 868.00000001 512 868.00000001 743.95625 868.00000001 932 679.95625001 932 448.00000001s-188.04375-420-420-420-420 188.04375-420 420l0 0.815625z" p-id="52586"></path><path d="M317 418.00000001a30 30 0 0 0 30 30L512 448.00000001 512 613.00000001a30 30 0 0 0 30 30 30 30 0 0 0 30-30.00000001l0-194.99999999a30 30 0 0 0-30-30l-194.99999999 0a30 30 0 0 0-30.00000001 30z" p-id="52587"></path></svg>