<svg xmlns="http://www.w3.org/2000/svg" xmlns:xlink="http://www.w3.org/1999/xlink" version="1.1" width="24" height="24" viewBox="0 0 24 24"><g><g style="opacity:0;"><rect x="0.0001983642578125" y="0" width="24" height="24" rx="0" fill-opacity="1"/></g><g><g><path d="M19.2632,0.7999954223632812C20.3096,0.7999954223632812,21.1579,1.6483004223632811,21.1579,2.6947354223632813C21.1579,2.6947354223632813,21.1579,9.82399542236328,21.1579,9.82399542236328C20.3059,9.290945422363281,19.3208,9.00899542236328,18.3158,9.010525422363282C15.3508,9.010525422363282,12.9474,11.413995422363282,12.9474,14.378895422363282C12.9474,14.378895422363282,12.949,14.505595422363282,12.949,14.505595422363282C12.9647,15.180395422363281,13.1059,15.83379542236328,13.3566,16.43729542236328C13.3566,16.43729542236328,13.3892,16.513095422363282,13.3892,16.513095422363282C13.3892,16.513095422363282,13.3819,16.51939542236328,13.3819,16.51939542236328C11.7021,17.95909542236328,10.7358,20.06129542236328,10.7368,22.273695422363282C10.7368,22.605895422363282,10.7937,22.92479542236328,10.8985,23.22109542236328C10.8985,23.22109542236328,1.89474,23.22109542236328,1.89474,23.22109542236328C0.848305,23.22109542236328,0,22.372795422363282,0,21.32629542236328C0,21.32629542236328,0,2.6947354223632813,0,2.6947354223632813C0,1.6483004223632811,0.848305,0.7999954223632812,1.89474,0.7999954223632812C1.89474,0.7999954223632812,19.2632,0.7999954223632812,19.2632,0.7999954223632812C19.2632,0.7999954223632812,19.2632,0.7999954223632812,19.2632,0.7999954223632812ZM10.1053,14.22109542236328C10.1053,14.22109542236328,4.73684,14.22109542236328,4.73684,14.22109542236328C4.73684,14.22109542236328,4.68126,14.22259542236328,4.68126,14.22259542236328C4.18012,14.25159542236328,3.78857,14.666395422363282,3.78857,15.16839542236328C3.78857,15.670395422363281,4.18012,16.08519542236328,4.68127,16.11419542236328C4.68127,16.11419542236328,4.73684,16.11579542236328,4.73684,16.11579542236328C4.73684,16.11579542236328,10.1053,16.11579542236328,10.1053,16.11579542236328C10.1053,16.11579542236328,10.1608,16.11419542236328,10.1608,16.11419542236328C10.662,16.08519542236328,11.0535,15.670395422363281,11.0535,15.16839542236328C11.0535,14.666395422363282,10.662,14.25159542236328,10.1608,14.22259542236328C10.1608,14.22259542236328,10.1053,14.22109542236328,10.1053,14.22109542236328C10.1053,14.22109542236328,10.1053,14.22109542236328,10.1053,14.22109542236328ZM13.2632,7.115785422363281C13.2632,7.115785422363281,4.73684,7.115785422363281,4.73684,7.115785422363281C4.73684,7.115785422363281,4.68126,7.117365422363282,4.68126,7.117365422363282C4.18012,7.146335422363281,3.78857,7.561175422363282,3.78857,8.06315542236328C3.78857,8.56513542236328,4.18012,8.979975422363282,4.68127,9.008945422363281C4.68127,9.008945422363281,4.73684,9.010525422363282,4.73684,9.010525422363282C4.73684,9.010525422363282,13.2632,9.010525422363282,13.2632,9.010525422363282C13.2632,9.010525422363282,13.3187,9.008945422363281,13.3187,9.008945422363281C13.8199,8.979975422363282,14.2114,8.56513542236328,14.2114,8.06315542236328C14.2114,7.561175422363282,13.8199,7.146335422363281,13.3187,7.117365422363282C13.3187,7.117365422363282,13.2632,7.115785422363281,13.2632,7.115785422363281C13.2632,7.115785422363281,13.2632,7.115785422363281,13.2632,7.115785422363281Z" fill-opacity="1"/></g><g><path d="M18.315776538085938,10.9052734375C20.234236538085938,10.9052734375,21.789476538085935,12.4605434375,21.789476538085935,14.3789634375C21.789476538085935,15.4491834375,21.30540653808594,16.4063434375,20.544666538085938,17.0436134375C22.575786538085936,17.9094834375,24.000076538085935,19.925503437499998,24.000076538085935,22.2736734375C24.000076538085935,22.7969734375,23.575876538085936,23.2210734375,23.052676538085937,23.2210734375C23.052676538085937,23.2210734375,13.578964538085938,23.2210734375,13.578964538085938,23.2210734375C13.055770538085937,23.2210734375,12.631576538085938,22.7969734375,12.631576538085938,22.2736734375C12.631576538085938,19.925503437499998,14.055466538085938,17.909823437500002,16.086956538085936,17.0429734375C15.297106538085938,16.3838234375,14.840986538085938,15.407743437499999,14.842146538085938,14.3789634375C14.842146538085938,12.4605434375,16.39738653808594,10.9052734375,18.315776538085938,10.9052734375C18.315776538085938,10.9052734375,18.315776538085938,10.9052734375,18.315776538085938,10.9052734375Z"  fill-opacity="1"/></g></g></g></svg>