<svg xmlns="http://www.w3.org/2000/svg" xmlns:xlink="http://www.w3.org/1999/xlink"  version="1.1" width="24" height="24" viewBox="0 0 24 24"><g><g style="opacity:0;"><rect x="0" y="0.0008697509765625" width="24" height="24" rx="0" fill="#464749" fill-opacity="1"/></g><g><path d="M14.855364453125,0C14.855364453125,0,9.138304453125,0,9.138304453125,0C8.436854453125001,0,7.876374453125,0.610367,7.876374453125,1.36475C7.876374453125,2.12076,8.438204453125,2.73282,9.138304453125,2.73282C9.138304453125,2.73282,14.890564453125,2.73282,14.890564453125,2.73282C15.556464453125,2.73282,16.117964453124998,2.12076,16.117964453124998,1.36475C16.118364453125,0.610397,15.557064453125,0,14.855364453125,0C14.855364453125,0,14.855364453125,0,14.855364453125,0C14.855364453125,0,14.855364453125,0,14.855364453125,0C14.855364453125,0,14.855364453125,0,14.855364453125,0ZM18.171364453125,1.37143C18.171364453125,3.14899,17.844964453125,4.11429,16.114264453125,4.11429C16.114264453125,4.11429,7.885714453125,4.11429,7.885714453125,4.11429C6.162724453125,4.11429,5.828584453125,2.84361,5.828584453125,1.37143C5.828584453125,1.37143,3.085694453125,1.37143,3.085694453125,1.37143C1.930572453125,1.37143,1.0285644531250284,2.21686,1.0285644531250284,3.42859C1.0285644531250284,3.42859,1.0285644531250284,21.9428,1.0285644531250284,21.9428C1.0285644531250284,23.3022,1.768524453125,24,3.085694453125,24C3.085694453125,24,20.914264453125,24,20.914264453125,24C22.013164453125,24,22.971364453125,23.33,22.971364453125,21.9428C22.971364453125,21.9428,22.971364453125,3.42859,22.971364453125,3.42859C22.971364453125,2.09029,22.205264453125,1.37143,20.914264453125,1.37143C20.914264453125,1.37143,18.171364453125,1.37143,18.171364453125,1.37143C18.171364453125,1.37143,18.171364453125,1.37143,18.171364453125,1.37143ZM17.499064453125,18.5116C17.499064453125,18.5116,6.637524453125,18.5116,6.637524453125,18.5116C6.237414453125,18.5116,5.837964453125,18.1007,5.837964453125,17.7656C5.837964453125,17.4314,6.176114453125,17.1452,6.576564453125,17.1452C6.576564453125,17.1452,17.406664453125,17.1452,17.406664453125,17.1452C17.806764453125,17.1452,18.144964453125,17.4053,18.175464453125,17.7656C18.175464453125,18.1011,17.899264453125,18.5116,17.499064453125,18.5116C17.499064453125,18.5116,17.499064453125,18.5116,17.499064453125,18.5116C17.499064453125,18.5116,17.499064453125,18.5116,17.499064453125,18.5116C17.499064453125,18.5116,17.499064453125,18.5116,17.499064453125,18.5116ZM17.355164453125,13.7062C17.355164453125,13.7062,6.475474453125,13.7062,6.475474453125,13.7062C6.074354453125,13.7062,5.819214453125,13.3463,5.819214453125,13.0108C5.819214453125,12.6757,6.158054453125,12.3401,6.558834453125,12.3401C6.558834453125,12.3401,17.407364453125,12.3401,17.407364453125,12.3401C17.808464453125,12.3401,18.147264453125,12.6509,18.177464453125,13.0108C18.177464453125,13.3463,17.755164453125,13.7062,17.355164453125,13.7062C17.355164453125,13.7062,17.355164453125,13.7062,17.355164453125,13.7062C17.355164453125,13.7062,17.355164453125,13.7062,17.355164453125,13.7062C17.355164453125,13.7062,17.355164453125,13.7062,17.355164453125,13.7062ZM17.355164453125,8.90793C17.355164453125,8.90793,6.475474453125,8.90793,6.475474453125,8.90793C6.074354453125,8.90793,5.819214453125,8.54802,5.819214453125,8.21286C5.819214453125,7.87735,6.158054453125,7.54187,6.558834453125,7.54187C6.558834453125,7.54187,17.407364453125,7.54187,17.407364453125,7.54187C17.808464453125,7.54187,18.147264453125,7.85258,18.177464453125,8.21286C18.177464453125,8.54799,17.755164453125,8.90793,17.355164453125,8.90793C17.355164453125,8.90793,17.355164453125,8.90793,17.355164453125,8.90793C17.355164453125,8.90793,17.355164453125,8.90793,17.355164453125,8.90793C17.355164453125,8.90793,17.355164453125,8.90793,17.355164453125,8.90793Z" fill-opacity="1"/></g></g></svg>