<svg xmlns="http://www.w3.org/2000/svg" xmlns:xlink="http://www.w3.org/1999/xlink"  version="1.1" width="24" height="24" viewBox="0 0 24 24"><g><g style="opacity:0;"><rect x="0" y="0" width="24" height="24" rx="0" fill-opacity="1"/></g><g><g><path d="M20.461574072265623,0.0003910064697301152C21.141274072265624,0.0003910064697301152,21.692374072265626,0.5514240064697266,21.692374072265626,1.2311610064697265C21.692374072265626,1.2311610064697265,21.692674072265625,12.697291006469726,21.692674072265625,12.697291006469726C20.384074072265626,11.646391006469727,18.755274072265625,11.074691006469726,17.076974072265624,11.077291006469727C12.998474072265624,11.077291006469727,9.692364072265624,14.383491006469727,9.692364072265624,18.461891006469727C9.689714072265625,20.278991006469727,10.359604072265626,22.032691006469726,11.572974072265625,23.385291006469725C11.572974072265625,23.385291006469725,2.6154440722656247,23.384991006469726,2.6154440722656247,23.384991006469726C1.9357070722656249,23.384991006469726,1.384674072265625,22.833991006469727,1.384674072265625,22.154191006469727C1.384674072265625,22.154191006469727,1.384674072265625,1.2311610064697265,1.384674072265625,1.2311610064697265C1.384674072265625,0.5514240064697266,1.9357070722656249,0.0003910064697301152,2.6154440722656247,0.0003910064697301152C2.6154440722656247,0.0003910064697301152,20.461574072265623,0.0003910064697301152,20.461574072265623,0.0003910064697301152C20.461574072265623,0.0003910064697301152,20.461574072265623,0.0003910064697301152,20.461574072265623,0.0003910064697301152ZM10.000044072265625,8.308071006469726C10.000044072265625,8.308071006469726,6.000054072265625,8.308071006469726,6.000054072265625,8.308071006469726C5.500454072265625,8.307591006469726,5.0911440722656245,8.704681006469727,5.076494072265625,9.204061006469727C5.061824072265625,9.703441006469726,5.447134072265625,10.123891006469727,5.945904072265625,10.152691006469727C5.945904072265625,10.152691006469727,6.000054072265625,10.154191006469727,6.000054072265625,10.154191006469727C6.000054072265625,10.154191006469727,10.000044072265625,10.154191006469727,10.000044072265625,10.154191006469727C10.499644072265625,10.154691006469726,10.908954072265624,9.757611006469727,10.923614072265625,9.258231006469726C10.938274072265624,8.758851006469726,10.552964072265626,8.338441006469727,10.054204072265625,8.309611006469726C10.054204072265625,8.309611006469726,10.000044072265625,8.308071006469726,10.000044072265625,8.308071006469726C10.000044072265625,8.308071006469726,10.000044072265625,8.308071006469726,10.000044072265625,8.308071006469726ZM15.538474072265625,4.000381006469727C15.538474072265625,4.000381006469727,6.000054072265625,4.000381006469727,6.000054072265625,4.000381006469727C5.500454072265625,3.9999010064697265,5.0911440722656245,4.396991006469727,5.076484072265625,4.896371006469726C5.061824072265625,5.395761006469726,5.447124072265625,5.816171006469727,5.945904072265625,5.845001006469727C5.945904072265625,5.845001006469727,6.000054072265625,5.846541006469726,6.000054072265625,5.846541006469726C6.000054072265625,5.846541006469726,15.538474072265625,5.846541006469726,15.538474072265625,5.846541006469726C16.038074072265623,5.847011006469726,16.447374072265625,5.449931006469726,16.462074072265626,4.950551006469727C16.476674072265624,4.4511710064697265,16.091374072265623,4.0307510064697265,15.592674072265625,4.001921006469726C15.592674072265625,4.001921006469726,15.538474072265625,4.000381006469727,15.538474072265625,4.000381006469727C15.538474072265625,4.000381006469727,15.538474072265625,4.000381006469727,15.538474072265625,4.000381006469727Z" fill-opacity="1"/></g><g><path d="M17.07696318359375,12.9234619140625C20.13568318359375,12.9234619140625,22.615413183593752,15.4032019140625,22.615413183593752,18.4619119140625C22.615413183593752,21.5206919140625,20.13568318359375,24.000461914062498,17.07696318359375,24.000461914062498C14.01819318359375,24.000461914062498,11.53851318359375,21.5206919140625,11.53851318359375,18.4619119140625C11.53851318359375,15.4032019140625,14.01819318359375,12.9234619140625,17.07696318359375,12.9234619140625C17.07696318359375,12.9234619140625,17.07696318359375,12.9234619140625,17.07696318359375,12.9234619140625ZM17.07696318359375,15.231201914062499C16.67157318359375,15.231201914062499,16.335753183593752,15.5456519140625,16.30926318359375,15.9500719140625C16.30926318359375,15.9500719140625,16.30774318359375,16.000361914062502,16.30774318359375,16.000361914062502C16.30774318359375,16.000361914062502,16.30774318359375,18.4619119140625,16.30774318359375,18.4619119140625C16.30774318359375,18.4619119140625,16.30926318359375,18.5123919140625,16.30926318359375,18.5123919140625C16.33465318359375,18.8973419140625,16.641233183593748,19.2039819140625,17.02618318359375,19.2293119140625C17.02618318359375,19.2293119140625,17.07696318359375,19.2311419140625,17.07696318359375,19.2311419140625C17.07696318359375,19.2311419140625,19.23077318359375,19.2311419140625,19.23077318359375,19.2311419140625C19.23077318359375,19.2311419140625,19.28125318359375,19.2296119140625,19.28125318359375,19.2296119140625C19.66620318359375,19.2042219140625,19.97284318359375,18.8976419140625,19.99817318359375,18.5126919140625C19.99817318359375,18.5126919140625,20.000003183593748,18.4619119140625,20.000003183593748,18.4619119140625C20.000003183593748,18.4619119140625,19.998473183593752,18.411501914062498,19.998473183593752,18.411501914062498C19.97308318359375,18.0264919140625,19.66650318359375,17.719971914062498,19.28155318359375,17.6945819140625C19.28155318359375,17.6945819140625,19.23077318359375,17.692751914062498,19.23077318359375,17.692751914062498C19.23077318359375,17.692751914062498,17.84619318359375,17.692751914062498,17.84619318359375,17.692751914062498C17.84619318359375,17.692751914062498,17.84619318359375,16.000361914062502,17.84619318359375,16.000361914062502C17.84619318359375,16.000361914062502,17.84466318359375,15.949951914062499,17.84466318359375,15.949951914062499C17.81805318359375,15.5455319140625,17.482243183593752,15.2310819140625,17.07696318359375,15.231201914062499C17.07696318359375,15.231201914062499,17.07696318359375,15.231201914062499,17.07696318359375,15.231201914062499Z"  fill-opacity="1"/></g></g></g></svg>