<svg xmlns="http://www.w3.org/2000/svg" width="22.001" height="22" viewBox="0 0 22.001 22">
  <g id="绘画" transform="translate(-28.999 -126)">
    <rect id="矩形_8130" data-name="矩形 8130" width="22" height="22" transform="translate(29 126)" opacity="0"/>
    <path id="画笔_1_" data-name="画笔 (1)" d="M162.262,176.823a3.052,3.052,0,0,0,2.035.809.5.5,0,0,0,.391-.143l8.491-8.126a3.164,3.164,0,1,0-4.682-4.239l-6.991,9.573a.535.535,0,0,0-.091.417A3.156,3.156,0,0,0,162.262,176.823Zm-9.834,4.578a1.461,1.461,0,0,0,1.565-.548c.574-.835.743-2.609,1.982-3.7a4.356,4.356,0,0,1,3.417-1.135.352.352,0,0,1,.3.274,3.547,3.547,0,0,0,1.2,2.2,7.434,7.434,0,0,0,2.478,1,.326.326,0,0,1,.274.326c.078,1.148,0,5.478-5.713,5.3C151.385,185.014,151.854,181.193,152.428,181.4Z" transform="translate(-123.123 -37.532)"  />
  </g>
</svg>
