<svg xmlns="http://www.w3.org/2000/svg" width="20" height="20" viewBox="0 0 20 20">
  <g id="开通会员" transform="translate(-20 -212.001)">
    <rect id="矩形_6255" data-name="矩形 6255" width="20" height="20" transform="translate(20 212.001)" fill="#333" opacity="0"/>
    <g id="会员_1_" data-name="会员 (1)" transform="translate(-16.362 146.233)">
      <path id="路径_24391" data-name="路径 24391" d="M46.364,83.267a2.283,2.283,0,0,1-1.835-.9l-5.647-7.158a2.322,2.322,0,0,1-.036-2.842L41.22,69.2a2.386,2.386,0,0,1,1.871-.935h6.547a2.334,2.334,0,0,1,1.871.935l2.374,3.165a2.322,2.322,0,0,1-.036,2.842L48.2,82.367A2.283,2.283,0,0,1,46.364,83.267ZM43.09,69.31a1.261,1.261,0,0,0-1.007.5l-2.374,3.165a1.3,1.3,0,0,0,.036,1.547l5.647,7.158a1.318,1.318,0,0,0,2.014,0l5.647-7.158a1.243,1.243,0,0,0,0-1.547l-2.338-3.165a1.261,1.261,0,0,0-1.007-.5ZM47.767,82.044Z"  />
      <path id="路径_24392" data-name="路径 24392" d="M246.618,460.066a1.535,1.535,0,0,1-1.259-.612l-3.165-4.029a.537.537,0,0,1,.827-.683l.036.036,3.2,4.029a.567.567,0,0,0,.791.072l.072-.072,3.094-4.065a.5.5,0,0,1,.755-.072.527.527,0,0,1,.072.755l-3.2,4.029A1.515,1.515,0,0,1,246.618,460.066Z" transform="translate(-200.254 -379.749)"  />
    </g>
  </g>
</svg>
