<svg xmlns="http://www.w3.org/2000/svg" width="20" height="20" viewBox="0 0 20 20">
  <g id="购买记录" transform="translate(-20 -212)">
    <rect id="矩形_6255" data-name="矩形 6255" width="20" height="20" transform="translate(20 212)" fill="#333" opacity="0"/>
    <g id="交易记录" transform="translate(-94.334 150)">
      <path id="路径_24385" data-name="路径 24385" d="M316,67.886a.586.586,0,0,1-.571-.571V64.571a.571.571,0,1,1,1.143,0v2.743A.54.54,0,0,1,316,67.886Zm-6.1,0a.53.53,0,0,1-.533-.571V64.571A.53.53,0,0,1,309.9,64a.586.586,0,0,1,.571.571v2.743A.54.54,0,0,1,309.9,67.886Z" transform="translate(-188.571)"  />
      <path id="路径_24386" data-name="路径 24386" d="M128.952,155.429H119.81a2.471,2.471,0,0,1-2.476-2.476v-9.676a2.471,2.471,0,0,1,2.476-2.476h9.143a2.471,2.471,0,0,1,2.476,2.476v9.676A2.471,2.471,0,0,1,128.952,155.429Zm-9.143-13.486a1.35,1.35,0,0,0-1.333,1.333v9.676a1.35,1.35,0,0,0,1.333,1.333h9.143a1.35,1.35,0,0,0,1.333-1.333v-9.676a1.35,1.35,0,0,0-1.333-1.333Z" transform="translate(0 -75.429)"  />
    </g>
    <path id="联合_45" data-name="联合 45" d="M18861.879,19381.791v-1.26h-2.338a.538.538,0,1,1,0-1.076h2.338v-.719h-2.338a.542.542,0,1,1,0-1.084h2.264l-1.4-1.4a.528.528,0,0,1,0-.76.519.519,0,0,1,.752,0l1.244,1.244,1.242-1.244a.534.534,0,0,1,.752.76l-1.4,1.4h2.3a.542.542,0,0,1,0,1.084h-2.338v.719h2.338a.538.538,0,0,1,0,1.076h-2.338v1.26a.539.539,0,1,1-1.078,0Z" transform="translate(-18832.367 -19155.391)"  />
  </g>
</svg>
