<svg xmlns="http://www.w3.org/2000/svg" xmlns:xlink="http://www.w3.org/1999/xlink" fill="inherit" version="1.1" width="20.5" height="20" viewBox="0 0 20.5 20"><defs><clipPath id="master_svg0_1042_14804"><rect x="0" y="0" width="20" height="20" rx="0"/></clipPath></defs><g><g clip-path="url(#master_svg0_1042_14804)"><g><path d="M15.7203,6.18649L5.13943,6.18649C4.39528,6.18649,3.837167,5.66007,3.837167,4.9581800000000005C3.837167,4.25629,4.39528,3.707941,5.13943,3.707941L16.3482,3.707941C16.5342,3.707941,16.7202,3.532468,16.7202,3.356995C16.7202,3.181522,16.5342,3.00604963,16.3482,3.00604963L5.13943,3.00604963C3.930186,2.9183133,3,3.795677,3,4.93625L3,15.684C3,16.3858,3.65113,17,4.39528,17L15.604,17C16.3482,17,16.999299999999998,16.3858,16.999299999999998,15.684L16.999299999999998,7.4148C17.0226,6.71291,16.464399999999998,6.18649,15.7203,6.18649ZM14.8831,10.1785L13.7436,9.19146C13.6739,9.05986,13.5111,9.05986,13.4413,9.05986C13.3716,9.05986,13.139,9.05986,13.0693,9.12566L11.83677,10.26623L11.83677,6.73485L14.8831,6.73485L14.8831,10.1785ZM16.8365,4.93625C16.8365,5.11172,16.6505,5.2872,16.464399999999998,5.2872L5.23245,5.2872C5.04641,5.2872,4.86037,5.11172,4.86037,4.93625C4.86037,4.7607800000000005,5.04641,4.5853,5.23245,4.5853L16.441200000000002,4.5853C16.6505,4.5853,16.8365,4.7607800000000005,16.8365,4.93625Z" fill="inherit" fill-opacity="1"/></g></g></g></svg>