<svg xmlns="http://www.w3.org/2000/svg" width="20" height="20" viewBox="0 0 20 20">
  <g id="联系客服" transform="translate(-20 -212)">
    <rect id="矩形_6255" data-name="矩形 6255" width="20" height="20" transform="translate(20 212)" fill="#333" opacity="0"/>
    <g id="客服-01" transform="translate(-3.6 163.205)">
      <path id="路径_24383" data-name="路径 24383" d="M100.9,58.725a.541.541,0,0,1-.527-.527,5.925,5.925,0,1,0-11.851,0,.527.527,0,0,1-1.055,0,6.98,6.98,0,0,1,13.96-.035A.527.527,0,0,1,100.9,58.725Zm-5.943,7.666a.533.533,0,0,1-.527-.457.546.546,0,0,1,.457-.6c2.321-.281,4.782-1.864,5.556-3.552a.527.527,0,0,1,.949.457c-.949,2-3.692,3.8-6.4,4.149Z" transform="translate(-60.847)"  />
      <path id="路径_24384" data-name="路径 24384" d="M40.018,465.371a1.576,1.576,0,0,1-1.582-1.582v-1.407a1.582,1.582,0,0,1,3.165,0v1.407A1.576,1.576,0,0,1,40.018,465.371Zm0-3.516a.541.541,0,0,0-.527.527v1.407a.527.527,0,0,0,1.055,0v-1.407A.518.518,0,0,0,40.018,461.855Zm-12.835,3.516a1.576,1.576,0,0,1-1.582-1.582v-1.407a1.582,1.582,0,0,1,3.165,0v1.407A1.576,1.576,0,0,1,27.182,465.371Zm0-3.516a.541.541,0,0,0-.527.527v1.407a.527.527,0,0,0,1.055,0v-1.407A.518.518,0,0,0,27.182,461.855Zm7.947,6.33a1.036,1.036,0,0,1-1.055,1.055h-.7a1.055,1.055,0,0,1,0-2.11h.7A1.036,1.036,0,0,1,35.13,468.185Z" transform="translate(0 -402.848)"  />
    </g>
  </g>
</svg>
