<?xml version="1.0" standalone="no"?><!DOCTYPE svg PUBLIC "-//W3C//DTD SVG 1.1//EN" "http://www.w3.org/Graphics/SVG/1.1/DTD/svg11.dtd"><svg t="1711363780387" class="icon" viewBox="0 0 1024 1024" version="1.1" xmlns="http://www.w3.org/2000/svg" p-id="3744" xmlns:xlink="http://www.w3.org/1999/xlink" width="200" height="200"><path d="M244.184615 326.537846c-62.385231 41.944615-96.492308 96.728615-96.492307 153.363692 0 33.201231 11.579077 65.339077 33.516307 94.838154a29.538462 29.538462 0 0 1-47.379692 35.288616c-28.435692-38.203077-45.213538-82.471385-45.213538-130.12677 0-82.313846 49.624615-153.284923 122.643692-202.358153 73.176615-49.230769 172.662154-78.729846 281.048615-78.729847s207.832615 29.499077 281.048616 78.729847c73.019077 49.073231 122.643692 120.083692 122.643692 202.358153 0 21.937231-3.584 43.323077-10.279385 63.684924a29.538462 29.538462 0 0 1-56.123077-18.432c4.804923-14.651077 7.325538-29.774769 7.325539-45.252924 0-56.635077-34.146462-111.419077-96.531692-153.363692-62.227692-41.826462-149.858462-68.647385-248.123077-68.647384-98.225231 0-185.856 26.820923-248.044308 68.647384zM684.898462 696.635077a29.538462 29.538462 0 0 1-18.825847 37.297231 556.898462 556.898462 0 0 1-173.764923 27.05723c-55.296 0-108.110769-7.68-156.278154-21.661538a29.538462 29.538462 0 1 1 16.46277-56.713846c42.653538 12.366769 89.915077 19.298462 139.815384 19.298461 56.004923 0 108.701538-8.743385 155.254154-24.064a29.538462 29.538462 0 0 1 37.297231 18.786462z" p-id="3745"></path><path d="M973.154462 645.986462l-323.190154-149.543385 125.991384 350.326154 71.364923-130.678154 125.833847-70.104615zM247.965538 730.899692c28.947692-4.017231 51.318154-30.404923 51.318154-62.345846 0-34.737231-26.427077-62.897231-59.076923-62.897231-32.610462 0-59.076923 28.16-59.076923 62.897231 0 17.604923 6.813538 33.476923 17.723077 44.898462-16.777846 25.915077-52.381538 55.296-120.123077 55.296a25.6 25.6 0 1 0 0 51.2c94.601846 0 146.274462-46.631385 169.235692-89.009231z" p-id="3746"></path></svg>