<svg xmlns="http://www.w3.org/2000/svg" xmlns:xlink="http://www.w3.org/1999/xlink" version="1.1" width="14" height="14" viewBox="0 0 14 14"><defs><clipPath id="master_svg0_3585_64252"><rect x="0" y="0" width="14" height="14" rx="0"/></clipPath></defs><g clip-path="url(#master_svg0_3585_64252)"><g><path d="M8.640625,12.1406L5.359375,12.1406C5.299215,12.1406,5.250005,12.1898,5.250005,12.25L5.250005,12.6875C5.250005,12.9295,5.445505,13.125,5.687505,13.125L8.312505,13.125C8.554495,13.125,8.750005,12.9295,8.750005,12.6875L8.750005,12.25C8.750005,12.1898,8.700785,12.1406,8.640625,12.1406ZM7.000005,0.875C4.524025,0.875,2.515625,2.8834,2.515625,5.35938C2.515625,7.01914,3.4179690000000003,8.46836,4.757815,9.24356L4.757815,10.82812C4.757815,11.0701,4.9533249999999995,11.2656,5.195315,11.2656L8.804685,11.2656C9.046675,11.2656,9.242185,11.0701,9.242185,10.82812L9.242185,9.24356C10.582035,8.46836,11.484375,7.01914,11.484375,5.35938C11.484375,2.8834,9.475975,0.875,7.000005,0.875ZM8.748635,8.3918L8.257815,8.676169999999999L8.257815,10.28125L5.742185,10.28125L5.742185,8.676169999999999L5.251365,8.3918C4.175395,7.76973,3.5,6.62402,3.5,5.35938C3.5,3.42617,5.066795,1.859375,7.000005,1.859375C8.933205000000001,1.859375,10.500005,3.42617,10.500005,5.35938C10.500005,6.62402,9.824605,7.76973,8.748635,8.3918Z"  fill-opacity="1"/></g></g></svg>