<svg xmlns="http://www.w3.org/2000/svg" viewBox="0 0 26 26" class="design-iconfont">
  <g >
    <path d="M65.23,159.912H48.37a3.563,3.563,0,0,1-3.57-3.57V144.37a3.563,3.563,0,0,1,3.57-3.57H65.23a3.563,3.563,0,0,1,3.57,3.57v11.973A3.563,3.563,0,0,1,65.23,159.912ZM48.37,142.448a1.946,1.946,0,0,0-1.922,1.922v11.973a1.946,1.946,0,0,0,1.922,1.922H65.23a1.946,1.946,0,0,0,1.922-1.922V144.37a1.946,1.946,0,0,0-1.922-1.922Z" transform="translate(-43.801 -137.8)"/>
    <path d="M225.1,336.032m-1.1,0a1.1,1.1,0,1,0,1.1-1.1A1.1,1.1,0,0,0,224,336.032Z" transform="translate(-218.388 -326.936)"/>
    <path d="M45.624,479.066a.845.845,0,0,1-.824-.824.939.939,0,0,1,.384-.714l3.735-2.362a3.524,3.524,0,0,1,3.735-.055l1.483.879a1.9,1.9,0,0,0,2.252-.22l3.13-2.691a3.638,3.638,0,0,1,4.558-.11l4.394,3.515a.819.819,0,1,1-1.043,1.263l-4.394-3.515a1.983,1.983,0,0,0-2.471.055l-3.13,2.691a3.64,3.64,0,0,1-4.174.384l-1.538-.879a1.827,1.827,0,0,0-2.032.055l-3.735,2.416C45.953,479.011,45.789,479.066,45.624,479.066Z" transform="translate(-43.801 -460.689)"/>
  </g>
</svg>
