<svg xmlns="http://www.w3.org/2000/svg" xmlns:xlink="http://www.w3.org/1999/xlink" version="1.1" width="17" height="17" viewBox="0 0 17 17"><defs><clipPath id="master_svg0_3469_57072"><rect x="0" y="0" width="17" height="17" rx="0"/></clipPath></defs><g clip-path="url(#master_svg0_3469_57072)"><g><path d="M9.580677734375,3.896048125C9.580677734375,4.318098125,9.922847734375,4.663408125,10.341047734375,4.663408125L13.382477734375,4.663408125C13.800677734375,4.663408125,14.142877734375,4.318098125,14.142877734375,3.896048125L14.142877734375,3.128689125C14.142877734375,2.706641125,13.800677734375,2.361328125,13.382477734375,2.361328125L10.341047734375,2.361328125C9.922847734375,2.361328125,9.580677734375,2.706641125,9.580677734375,3.128689125C7.185517734375,3.128689125,5.1325277343749995,4.740148125,4.486207734375,6.965498125L3.117546734375,6.965498125C2.699343734375,6.965498125,2.357177734375,7.310808125,2.357177734375,7.732858125L2.357177734375,9.267578125C2.357177734375,9.689628124999999,2.699343734375,10.034938125,3.117546734375,10.034938125L4.486207734375,10.034938125C5.1325277343749995,12.260288125,7.185517734375,13.871728125,9.580677734375,13.871728125C9.580677734375,14.293828125,9.922847734375,14.639128125,10.341047734375,14.639128125L13.382477734375,14.639128125C13.800677734375,14.639128125,14.142877734375,14.293828125,14.142877734375,13.871728125L14.142877734375,13.104428125C14.142877734375,12.682328125,13.800677734375,12.337018125,13.382477734375,12.337018125L10.341047734375,12.337018125C9.922847734375,12.337018125,9.580677734375,12.682328125,9.580677734375,13.104428125C7.603717734375,13.104428125,5.892887734375,11.838238125,5.284597734375,10.034938125L6.159017734375,10.034938125C6.577227734375,10.034938125,6.919387734375,9.689628124999999,6.919387734375,9.267578125L6.919387734375,8.883898125L9.580677734375,8.883898125C9.580677734375,9.305948125,9.922847734375,9.651258125,10.341047734375,9.651258125L13.382477734375,9.651258125C13.800677734375,9.651258125,14.142877734375,9.305948125,14.142877734375,8.883898125L14.142877734375,8.116538125C14.142877734375,7.694488125,13.800677734375,7.349178125,13.382477734375,7.349178125L10.341047734375,7.349178125C9.922847734375,7.349178125,9.580677734375,7.694488125,9.580677734375,8.116538125L6.919387734375,8.116538125L6.919387734375,7.732858125C6.919387734375,7.310808125,6.577227734375,6.965498125,6.159017734375,6.965498125L5.284597734375,6.965498125C5.892887734375,5.162198125,7.603717734375,3.896048125,9.580677734375,3.896048125ZM10.341047734375,3.128689125L13.382477734375,3.128689125L13.382477734375,3.896048125L10.341047734375,3.896048125L10.341047734375,3.128689125ZM10.341047734375,13.104428125L13.382477734375,13.104428125L13.382477734375,13.871728125L10.341047734375,13.871728125L10.341047734375,13.104428125ZM10.341047734375,8.116538125L13.382477734375,8.116538125L13.382477734375,8.883898125L10.341047734375,8.883898125L10.341047734375,8.116538125Z" fill-opacity="1" style="mix-blend-mode:passthrough"/></g></g></svg>