<svg xmlns="http://www.w3.org/2000/svg" viewBox="0 0 26 26" class="design-iconfont">
  <g >
    <path d="M295.562,85.517h-1.714V69.231a2.025,2.025,0,0,0-2-2,.972.972,0,0,0-.4.057l-10.8,2.229a2.013,2.013,0,0,0-1.6,1.943V85.517h-1.714V71.46A3.783,3.783,0,0,1,280.3,67.8l10.8-2.229a3.722,3.722,0,0,1,4.4,2.857,3.859,3.859,0,0,1,.114.8Z" transform="translate(-270.619 -64.451)"/>
    <path d="M84.286,286.136A3.714,3.714,0,1,1,88,282.422,3.782,3.782,0,0,1,84.286,286.136Zm0-5.714a2,2,0,1,0,2,2A2.025,2.025,0,0,0,84.286,280.422Zm-16.571,5.714a3.714,3.714,0,1,1,3.714-3.714A3.744,3.744,0,0,1,67.714,286.136Zm0-5.714a2,2,0,1,0,2,2A1.988,1.988,0,0,0,67.714,280.422Zm2.693-9.35,16.507-3.423.349,1.679L70.756,272.75Z" transform="translate(-63 -261.184)"/>
  </g>
</svg>
