<svg xmlns="http://www.w3.org/2000/svg" xmlns:xlink="http://www.w3.org/1999/xlink"  version="1.1" width="45" height="45" viewBox="0 0 45 45"><defs><clipPath id="master_svg0_2531_35641"><rect x="0" y="0" width="45" height="45" rx="0"/></clipPath></defs><g clip-path="url(#master_svg0_2531_35641)"><g><path d="M38.474892187500004,19.03494345703125Q38.1598921875,18.98994345703125,37.912392187500004,18.58494345703125Q37.6648921875,18.17994345703125,37.529892187499996,17.09994345703125Q37.3048921875,15.34494345703125,36.3823921875,14.51244345703125Q35.4598921875,13.67994345703125,33.5248921875,13.31994345703125Q31.4998921875,12.91494345703125,29.9473921875,11.67744345703125Q28.3948921875,10.43997345703125,27.3598921875,9.35997345703125Q26.3698921875,8.41497345703125,25.8298921875,8.68497345703125Q25.2898921875,8.95497345703125,25.2898921875,9.67497345703125L25.2898921875,11.60994345703125L25.2898921875,15.83994345703125Q25.2898921875,18.35994345703125,25.2673921875,21.28494345703125Q25.2448921875,24.20994345703125,25.2448921875,26.81994345703125L25.2448921875,31.40994345703125L25.2448921875,33.97494345703125Q25.2898921875,35.05494345703125,24.9073921875,36.38244345703125Q24.5248921875,37.70994345703125,23.4673921875,38.87994345703125Q22.4098921875,40.04994345703125,20.6548921875,40.88244345703125Q18.8998921875,41.71494345703125,16.2899121875,41.84994345703125Q13.6349121875,41.98494345703125,11.4974121875,40.90494345703125Q9.3599221875,39.82494345703125,8.1899121875,38.18244345703125Q7.0199155875,36.53994345703125,7.0424166475,34.58244345703125Q7.0649176875,32.62494345703125,8.7299121875,30.91494345703125Q10.394912187500001,29.20494345703125,12.3299121875,28.52994345703125Q14.2649221875,27.85494345703125,16.064922187500002,27.78744345703125Q17.8648921875,27.71994345703125,19.2823921875,28.03494345703125Q20.699892187499998,28.34994345703125,21.374892187500002,28.61994345703125L21.374892187500002,15.88494345703125Q21.374892187500002,10.57497345703125,21.4198921875,3.91497345703125Q21.4198921875,2.6099734570312503,22.0948921875,1.77747445703125Q22.769892187499998,0.9449744570312499,23.8948921875,0.80997445703125Q24.8398921875,0.67497445703125,25.4473921875,1.19247445703125Q26.0548921875,1.70997445703125,26.6848921875,2.6324734570312502Q27.3148921875,3.55497345703125,28.2373921875,4.7249734570312505Q29.1598921875,5.89497345703125,30.7348921875,7.01997345703125Q32.0848921875,8.054973457031249,33.0973921875,8.50497345703125Q34.1098921875,8.95497345703125,34.9873921875,9.33747345703125Q35.864892187500004,9.71997345703125,36.7198921875,10.25997345703125Q37.5748921875,10.79994345703125,38.6098921875,12.01494345703125Q39.6448921875,13.18494345703125,39.8698921875,14.44494345703125Q40.0948921875,15.70494345703125,39.8923921875,16.739943457031252Q39.6898921875,17.77494345703125,39.2398921875,18.42744345703125Q38.7898921875,19.07994345703125,38.474892187500004,19.03494345703125Z"  fill-opacity="1"/></g></g></svg>