<svg xmlns="http://www.w3.org/2000/svg" viewBox="0 0 20 20" class="design-iconfont">
  <g fill="currentColor">
    <path d="M46.364,83.267a2.283,2.283,0,0,1-1.835-.9l-5.647-7.158a2.322,2.322,0,0,1-.036-2.842L41.22,69.2a2.386,2.386,0,0,1,1.871-.935h6.547a2.334,2.334,0,0,1,1.871.935l2.374,3.165a2.322,2.322,0,0,1-.036,2.842L48.2,82.367A2.283,2.283,0,0,1,46.364,83.267ZM43.09,69.31a1.261,1.261,0,0,0-1.007.5l-2.374,3.165a1.3,1.3,0,0,0,.036,1.547l5.647,7.158a1.318,1.318,0,0,0,2.014,0l5.647-7.158a1.243,1.243,0,0,0,0-1.547l-2.338-3.165a1.261,1.261,0,0,0-1.007-.5ZM47.767,82.044Z" transform="translate(-36.362 -65.768)"/>
    <path d="M246.618,460.066a1.535,1.535,0,0,1-1.259-.612l-3.165-4.029a.537.537,0,0,1,.827-.683l.036.036,3.2,4.029a.567.567,0,0,0,.791.072l.072-.072,3.094-4.065a.5.5,0,0,1,.755-.072.527.527,0,0,1,.072.755l-3.2,4.029A1.515,1.515,0,0,1,246.618,460.066Z" transform="translate(-236.616 -445.517)"/>
  </g>
</svg>
