<svg xmlns="http://www.w3.org/2000/svg" xmlns:xlink="http://www.w3.org/1999/xlink"  version="1.1" width="11" height="11" viewBox="0 0 11 11"><defs><clipPath id="master_svg0_2906_28325"><rect x="0" y="0" width="11" height="11" rx="0"/></clipPath></defs><g clip-path="url(#master_svg0_2906_28325)"><g><path d="M3.32265890625,1.404296875L2.56103490625,1.404296875C2.29999990625,1.404296875,2.08837890625,1.615917875,2.08837890625,1.876952875L2.08837890625,9.122556875C2.08837890625,9.383596875,2.29999990625,9.595216875,2.56103490625,9.595216875L3.32265890625,9.595216875C3.58368890625,9.595216875,3.79530890625,9.383596875,3.79530890625,9.122556875L3.79530890625,1.876952875C3.79530890625,1.615917875,3.58368890625,1.404296875,3.32265890625,1.404296875ZM8.43915890625,1.404296875L7.67753890625,1.404296875C7.41649890625,1.404296875,7.20487890625,1.615917875,7.20487890625,1.876952875L7.20487890625,9.122556875C7.20487890625,9.383596875,7.41649890625,9.595216875,7.67753890625,9.595216875L8.43915890625,9.595216875C8.70019890625,9.595216875,8.91181890625,9.383596875,8.91181890625,9.122556875L8.91181890625,1.876952875C8.91181890625,1.615917875,8.70019890625,1.404296875,8.43915890625,1.404296875Z" fill-opacity="1"/></g></g></svg>