<svg xmlns="http://www.w3.org/2000/svg" xmlns:xlink="http://www.w3.org/1999/xlink"  version="1.1" width="45" height="45" viewBox="0 0 45 45"><defs><clipPath id="master_svg0_875_12373"><rect x="0" y="0" width="45" height="45" rx="0"/></clipPath></defs><g clip-path="url(#master_svg0_875_12373)"><g><path d="M40.02689375,13.34183671875C39.78959375,12.88033671875,39.31059375,12.55956671875,38.75679375,12.55956671875C37.97459375,12.55956671875,37.34179375,13.19233671875,37.34179375,13.97023671875C37.34179375,14.23393671875,37.41649375,14.48433671875,37.54389375,14.69533671875L37.53959375,14.69973671875C38.72169375,17.002436718749998,39.38969375,19.61283671875,39.38969375,22.37693671875C39.38969375,31.67573671875,31.84859375,39.21683671875,22.54979375,39.21683671875C13.25099375,39.21683671875,5.70556375,31.67573671875,5.70556375,22.37693671875C5.70556375,13.07813671875,13.24659375,5.54150671875,22.54539375,5.54150671875C25.29199375,5.54150671875,27.88479375,6.20068671875,30.17429375,7.36523671875L30.18309375,7.34765671875C30.38529375,7.46191671875,30.62259375,7.52783671875,30.87309375,7.52783671875C31.65529375,7.52783671875,32.28809375,6.89501671875,32.28809375,6.11718671875C32.28809375,5.54150671875,31.94089375,5.04492671875,31.43989375,4.82519671875C28.76809375,3.46728471875,25.74899375,2.70263671875,22.54539375,2.70263671875C11.67773375,2.70263671875,2.87109375,11.51367671875,2.87109375,22.37693671875C2.87109375,33.24023671875,11.67773375,42.05123671875,22.54539375,42.05123671875C33.41309375,42.05123671875,42.21969375,33.24463671875,42.21969375,22.37693671875C42.21969375,19.12063671875,41.42869375,16.04883671875,40.02689375,13.34183671875Z" fill="#FFFFFF" fill-opacity="1"/></g><g><path d="M16.935546875,15.478031875L16.935546875,29.531771875C16.935546875,30.300771875,17.563963875,30.933571875,18.337406875,30.933571875C19.110836875,30.933571875,19.743656875,30.300771875,19.739256875,29.531771875L19.739256875,15.478031875C19.739256875,14.708983875,19.110836875,14.076171875,18.337406875,14.076171875C17.568358875,14.076171875,16.935546875,14.704588875,16.935546875,15.478031875ZM25.438966875,15.478031875L25.438966875,29.531771875C25.438966875,30.300771875,26.067386875,30.933571875,26.840826874999998,30.933571875C27.609846875000002,30.933571875,28.242646875,30.300771875,28.242646875,29.531771875L28.242646875,15.478031875C28.242646875,14.708983875,27.614246875,14.076171875,26.840826874999998,14.076171875C26.071776874999998,14.076171875,25.438966875,14.704588875,25.438966875,15.478031875Z" fill="#FFFFFF" fill-opacity="1"/></g><g><path d="M36.785158125,9.56641171875Q36.785158125,9.63571171875,36.778348125,9.70467171875Q36.771528125,9.77364171875,36.757968125,9.84161171875Q36.744408125,9.90958171875,36.724228124999996,9.97589171875Q36.704048125,10.04221171875,36.677448125,10.10624171875Q36.650838125,10.17026171875,36.618068125,10.23138171875Q36.585298125,10.29250171875,36.546678125,10.35012171875Q36.508058125,10.40774171875,36.463958125,10.46131171875Q36.419858125,10.51488171875,36.370698125,10.56388171875Q36.321548125,10.61288171875,36.267808125,10.65685171875Q36.214068125,10.70081171875,36.156268125,10.739311718749999Q36.098468125,10.77781171875,36.037158125,10.810481718750001Q35.975858125,10.84315171875,35.911628125,10.86967171875Q35.847408125,10.89619171875,35.780878125,10.91631171875Q35.714358125,10.93643171875,35.646178125,10.94994171875Q35.577998125,10.96346171875,35.508818125,10.970261718749999Q35.439638125,10.97705171875,35.370118125,10.97705171875Q35.300598125,10.97705171875,35.231418125,10.970261718749999Q35.162238125,10.96346171875,35.094058125000004,10.94994171875Q35.025878125,10.936421718750001,34.959358125,10.91631171875Q34.892830125,10.89619171875,34.828605125,10.86967171875Q34.764381125,10.84315171875,34.703072125,10.810481718750001Q34.641764125,10.77781171875,34.583964125,10.739311718749999Q34.526163125,10.70081171875,34.472426125,10.65685171875Q34.418689125,10.61288171875,34.369533125,10.56388171875Q34.320378125,10.51488171875,34.276277125,10.46131171875Q34.232176125,10.40774171875,34.193555125,10.35012171875Q34.154934125,10.29250171875,34.122164125,10.23138171875Q34.089394125,10.17026171875,34.062791125,10.10624171875Q34.036188825,10.04221171875,34.016009225,9.97589171875Q33.995829725,9.90958171875,33.982267725,9.84161171875Q33.968705725,9.77364171875,33.961891925,9.70467171875Q33.955078125,9.63571171875,33.955078125,9.56641171875Q33.955078125,9.49710171875,33.961891925,9.42814171875Q33.968705725,9.35917171875,33.982267725,9.29120171875Q33.995829725,9.22323171875,34.016009225,9.15692171875Q34.036188825,9.09060171875,34.062791125,9.02657671875Q34.089394125,8.96255071875,34.122164125,8.90143371875Q34.154934125,8.84031571875,34.193555125,8.78269471875Q34.232176125,8.72507271875,34.276277125,8.67150271875Q34.320378125,8.61793271875,34.369533125,8.56892971875Q34.418689125,8.51992671875,34.472426125,8.47596371875Q34.526163125,8.43199971875,34.583964125,8.39349871875Q34.641765125,8.35499671875,34.703073125,8.32232871875Q34.764381125,8.28966071875,34.828605125,8.26314071875Q34.892830125,8.23662051875,34.959358125,8.21650361875Q35.025878125,8.19638671875,35.094058125000004,8.18286681875Q35.162238125,8.16934701875,35.231418125,8.16255435875Q35.300598125,8.15576171875,35.370118125,8.15576171875Q35.439638125,8.15576171875,35.508818125,8.16255435875Q35.577998125,8.16934701875,35.646178125,8.18286681875Q35.714358125,8.19638671875,35.780878125,8.21650361875Q35.847408125,8.23662051875,35.911628125,8.26314071875Q35.975858125,8.28966071875,36.037158125,8.32232871875Q36.098468125,8.35499671875,36.156268125,8.39349871875Q36.214068125,8.43199971875,36.267808125,8.47596371875Q36.321548125,8.51992671875,36.370698125,8.56892971875Q36.419858125,8.61793271875,36.463958125,8.67150271875Q36.508058125,8.72507271875,36.546678125,8.78269471875Q36.585298125,8.84031571875,36.618068125,8.90143371875Q36.650838125,8.96255071875,36.677448125,9.02657671875Q36.704048125,9.09060171875,36.724228124999996,9.15692171875Q36.744408125,9.22323171875,36.757968125,9.29120171875Q36.771528125,9.35917171875,36.778348125,9.42814171875Q36.785158125,9.49710171875,36.785158125,9.56641171875Z"  fill-opacity="1"/></g></g></svg>