<svg xmlns="http://www.w3.org/2000/svg" viewBox="0 0 26 26" class="design-iconfont">
  <g >
    <path d="M123.541,288.393H110.6a1.772,1.772,0,0,1-1.354-2.914l8.065-9.562a1.772,1.772,0,0,1,2.933.339l4.873,9.562a1.771,1.771,0,0,1-1.579,2.575Zm-4.875-11.41a.065.065,0,0,0-.056.028l-8.065,9.562a.069.069,0,0,0-.011.082.067.067,0,0,0,.069.045H123.54a.068.068,0,0,0,.065-.037.07.07,0,0,0,0-.075l-4.873-9.562a.068.068,0,0,0-.059-.041A.012.012,0,0,0,118.666,276.983Zm5.392,15.022H102.889a.847.847,0,0,1,0-1.694h21.169a.847.847,0,0,1,0,1.694Z" transform="translate(-100.315 -268.75)"/>
    <path d="M335.952,144.7a3.51,3.51,0,1,1,3.51-3.51A3.514,3.514,0,0,1,335.952,144.7Zm0-5.327a1.816,1.816,0,1,0,1.816,1.816A1.818,1.818,0,0,0,335.952,139.37Z" transform="translate(-324.361 -134.933)"/>
    <path d="M81.077,429H77.271a1.577,1.577,0,0,1-1.206-2.594l4.493-5.326a1.577,1.577,0,0,1,2.611.3l1.08,2.119a.847.847,0,1,1-1.509.77l-1-1.963-4.215,5h3.554a.846.846,0,1,1,0,1.693Z" transform="translate(-74.691 -409.976)"/>
  </g>
</svg>
