<?xml version="1.0" standalone="no"?><!DOCTYPE svg PUBLIC "-//W3C//DTD SVG 1.1//EN" "http://www.w3.org/Graphics/SVG/1.1/DTD/svg11.dtd"><svg t="1711363744352" class="icon" viewBox="0 0 1024 1024" version="1.1" xmlns="http://www.w3.org/2000/svg" p-id="2305" xmlns:xlink="http://www.w3.org/1999/xlink" width="200" height="200"><path d="M298.666667 224a32 32 0 0 1 4.352 63.701333L298.666667 288H202.666667v576h576v-140.202667a32 32 0 0 1 63.701333-4.352l0.298667 4.352V896a32 32 0 0 1-32 32H170.666667a32 32 0 0 1-32-32V256a32 32 0 0 1 27.648-31.701333L170.666667 224h128z m512 211.797333a32 32 0 0 1 31.701333 27.648l0.298667 4.352v128a32 32 0 0 1-63.701334 4.309334l-0.298666-4.309334v-128a32 32 0 0 1 32-32z m0-297.130666a32 32 0 0 1 32 32v53.333333H896a32 32 0 0 1 31.701333 27.648L928 256a32 32 0 0 1-32 32h-53.333333V341.333333a32 32 0 0 1-27.648 31.701334L810.666667 373.333333a32 32 0 0 1-32-32V288H725.333333a32 32 0 0 1-31.701333-27.648L693.333333 256a32 32 0 0 1 32-32h53.333334V170.666667a32 32 0 0 1 27.648-31.701334z m-256 85.333333a32 32 0 0 1 4.352 63.701333L554.666667 288h-128a32 32 0 0 1-4.352-63.701333L426.666667 224h128z" p-id="2306"></path></svg>