<svg xmlns="http://www.w3.org/2000/svg" xmlns:xlink="http://www.w3.org/1999/xlink" fill="inherit" version="1.1" width="20.5" height="20" viewBox="0 0 20.5 20"><defs><linearGradient x1="0" y1="0.5" x2="1" y2="0.5" id="master_svg0_20_20916"><stop offset="0%" stop-color="#70C3EC" stop-opacity="1"/><stop offset="100%" stop-color="#4A92FF" stop-opacity="1"/></linearGradient></defs><g><g><g><ellipse cx="10" cy="10" rx="8" ry="8" fill="inherit" fill-opacity="1"/></g><g><g><path d="M6.794013948917389,8.494546C6.068193948917389,8.494546,5.479104948917389,9.083639999999999,5.479104948917389,9.80945L5.479104948917389,10.63127C5.479104948917389,11.35709,6.068193948917389,11.94618,6.794013948917389,11.94618L13.205653948917389,11.94618C13.931463948917388,11.94618,14.520563948917388,11.35709,14.520563948917388,10.63127L14.520563948917388,9.80945C14.520563948917388,9.083639999999999,13.931463948917388,8.494546,13.205653948917389,8.494546L6.794013948917389,8.494546ZM6.794013948917389,8L13.205653948917389,8C14.204923948917388,8,15.013613948917389,8.810182,15.013613948917389,9.808L15.013613948917389,10.62982C15.013613948917389,11.62909,14.20347394891739,12.43782,13.205653948917389,12.43782L6.794013948917389,12.43782C5.794741948917389,12.43782,4.986013948917389,11.62764,4.986013948917389,10.62982L4.986013948917389,9.808C4.986013948917389,8.810182,5.794741948917389,8,6.794013948917389,8Z" fill="#FFFFFF" fill-opacity="1"/></g><g><path d="M7.216,9.856497539592743C7.216,10.187946539592742,7.3929100000000005,10.494496539592744,7.68,10.660136539592743C7.96711,10.825956539592744,8.32089,10.825956539592744,8.608,10.660136539592743C8.89513,10.494256539592744,9.072,10.187926539592743,9.072,9.856497539592743C9.072,9.343951539592743,8.65654,8.928497094457743,8.144,8.928497094457743C7.63145,8.928497094457743,7.216,9.343951539592743,7.216,9.856497539592743ZM10.928,9.856497539592743C10.928,10.369046539592743,11.34345,10.784496539592743,11.856,10.784496539592743C12.36854,10.784496539592743,12.784,10.369046539592743,12.784,9.856496539592744C12.784,9.343950539592743,12.36854,8.928496539592743,11.856,8.928496539592743C11.34345,8.928496539592743,10.928,9.343951539592743,10.928,9.856497539592743ZM5.15055,9.152497539592742L5.15055,11.289226539592743L4.821818,11.289226539592743C4.368,11.289226539592743,4,10.921226539592743,4,10.467406539592742L4,9.974316539592742C4,9.520497539592743,4.368,9.152496539592743,4.821818,9.152496539592743L5.15055,9.152497539592742ZM14.8495,9.152497539592742L14.8495,11.289226539592743L15.1782,11.289226539592743C15.632,11.289226539592743,16,10.921226539592743,16,10.467406539592742L16,9.974316539592742C16,9.520497539592743,15.632,9.152496539592743,15.1782,9.152496539592743L14.8495,9.152497539592742Z" fill="#FFFFFF" fill-opacity="1"/></g></g></g></g></svg>