<svg xmlns="http://www.w3.org/2000/svg" xmlns:xlink="http://www.w3.org/1999/xlink"  version="1.1" width="11.484375" height="11.976563453674316" viewBox="0 0 11.484375 11.976563453674316"><g><path d="M9.9741,0C10.5823,0,11.0753,0.492584,11.0753,1.1002L11.0753,8.73882C11.0753,9.34644,10.5823,9.83902,9.9741,9.83902L1.56833,9.83902C1.14696,9.83902,0.81807,10.1422,0.81807,10.4991C0.81807,10.8525,1.14041,11.1532,1.55571,11.1592L1.56833,11.1593L11.0753,11.1593C11.3012,11.1593,11.4844,11.3422,11.4844,11.5679C11.4844,11.7904,11.3064,11.9713,11.085,11.9765L11.0753,11.9766L1.56833,11.9766C0.709187,11.9766,0,11.3228,0,10.4991C0,10.4718,0.000779324,10.4446,0.00232422,10.4176C0.00112139,10.4061,0.000382519,10.3946,0.000109348,10.383L0,10.3734L0,1.1002C0,0.492598,0.493049,0,1.10124,0L9.9741,0ZM9.9741,0.817305L1.10124,0.817305C0.947639,0.817305,0.822609,0.939476,0.81818,1.09186L0.81807,1.1002L0.81807,8.73882C0.81807,8.89226,0.940365,9.01718,1.09289,9.02159L1.10123,9.02171L9.9741,9.02171C10.1277,9.02171,10.2527,8.89953,10.2572,8.74714L10.2573,8.7388L10.2573,1.1002C10.2573,0.94675,10.135,0.821844,9.98245,0.817414L9.9741,0.817305ZM9.15605,5.56391C9.38195,5.56391,9.56508,5.74688,9.56508,5.97256C9.56508,6.19503,9.38715,6.37597,9.16571,6.3811L9.15605,6.38121L1.91931,6.38121C1.6934,6.38121,1.51028,6.19825,1.51028,5.97256C1.51028,5.7501,1.6882,5.56916,1.90965,5.56403L1.91931,5.56392L9.15605,5.56391ZM9.15605,3.23776C9.38195,3.23776,9.56508,3.42072,9.56508,3.64641C9.56508,3.86887,9.38715,4.04981,9.16571,4.05494L9.15605,4.05505L1.91931,4.05505C1.6934,4.05505,1.51028,3.87209,1.51028,3.6464C1.51028,3.42394,1.6882,3.243,1.90965,3.23788L1.91931,3.23775L9.15605,3.23776Z" fill-opacity="1" style="mix-blend-mode:passthrough"/></g></svg>