<svg xmlns="http://www.w3.org/2000/svg" xmlns:xlink="http://www.w3.org/1999/xlink"  version="1.1" width="14" height="14" viewBox="0 0 14 14"><g><g><g transform="matrix(1,1.447334252446808e-8,-1.447334252446808e-8,1,2.894668504893616e-8,-1.7763568394002505e-15)"><path d="M0.25508611920928953,7.90615C0.16779111920928955,7.93827,0.16779111920928955,8.06173,0.25508611920928953,8.09385L3.4925801192092893,9.284970000000001C3.7934001192092897,9.39564,4.022930119209289,9.64381,4.10984011920929,9.95233L5.153750119209289,13.6583C5.1811201192092895,13.7555,5.31888011920929,13.7555,5.34625011920929,13.6583L6.390160119209289,9.95233C6.47707011920929,9.64381,6.7066001192092894,9.39564,7.007420119209289,9.284970000000001L10.244900119209289,8.09385C10.33220011920929,8.06173,10.33220011920929,7.93827,10.244900119209289,7.90615L7.007420119209289,6.71503C6.7066001192092894,6.60436,6.47707011920929,6.35619,6.390160119209289,6.04767L5.34625011920929,2.34171C5.31888011920929,2.244527,5.1811201192092895,2.244527,5.153750119209289,2.34171L4.10984011920929,6.04767C4.022930119209289,6.35619,3.7934001192092897,6.60436,3.4925801192092893,6.71503L0.25508611920928953,7.90615Z"  fill-opacity="1"/></g><g transform="matrix(1,1.447334252446808e-8,-1.447334252446808e-8,1,1.447334252446808e-8,-1.0131339767127656e-7)" style="opacity:0.6000000238418579;"><path d="M7.295688,3.90481C7.203212,3.93458,7.203212,4.06542,7.295687,4.0951900000000006L8.78115,4.5733999999999995C9.08768,4.67207,9.32793,4.912319999999999,9.4266,5.21885L9.90481,6.70431C9.93458,6.79679,10.06542,6.79679,10.09519,6.70431L10.5734,5.21885C10.67207,4.912319999999999,10.91232,4.67207,11.21885,4.5733999999999995L12.70431,4.0951900000000006C12.79679,4.06542,12.79679,3.93458,12.70431,3.90481L11.21885,3.4266C10.91232,3.32793,10.67207,3.08768,10.5734,2.7811500000000002L10.09519,1.295688C10.06542,1.203213,9.93458,1.203213,9.90481,1.295688L9.4266,2.7811500000000002C9.32793,3.08768,9.08768,3.32793,8.78115,3.4266L7.295688,3.90481Z"  fill-opacity="1"/></g></g></g></svg>