<?xml version="1.0" standalone="no"?><!DOCTYPE svg PUBLIC "-//W3C//DTD SVG 1.1//EN" "http://www.w3.org/Graphics/SVG/1.1/DTD/svg11.dtd"><svg t="1722322494446" class="icon" viewBox="0 0 1024 1024" version="1.1" xmlns="http://www.w3.org/2000/svg" p-id="6322" xmlns:xlink="http://www.w3.org/1999/xlink" width="64" height="64"><path d="M841.21 1.54c-56.85-0.07-108.15 34.12-129.96 86.63-12.89 31.04-13.97 64.86-4.4 95.64L345.16 391.67a180.475 180.475 0 0 0-125.02-50.31h-0.91c-99.69 0.4-180.22 81.47-179.95 181.16 0.27 99.69 81.23 180.32 180.92 180.19 35.1-0.05 67.85-10.11 95.56-27.48l297.52 171.76c-12.82 48.02 0.64 99.87 36.46 135.64 40.23 40.18 100.7 52.16 153.21 30.35 52.51-21.81 86.7-73.1 86.63-129.96 0-37.25-14.81-72.98-41.17-99.3a140.313 140.313 0 0 0-99.36-41.04c-35.33 0-68.49 13.24-93.75 35.86l-281.13-162.3c16.8-27.43 26.48-59.69 26.48-94.21 0.02-21.66-3.86-42.93-11.25-62.86l362.62-208.4c39.75 32.56 94.58 41.07 142.75 21.13 52.54-21.74 86.8-72.99 86.8-129.85-0.01-77.52-62.82-140.41-140.36-140.51z m-662.96 620c-40.26-16.65-66.51-55.93-66.51-99.5 0-59.39 48.09-107.58 107.49-107.67 43.57-0.08 82.89 26.11 99.61 66.34 16.72 40.23 7.56 86.57-23.23 117.41-30.77 30.83-77.1 40.07-117.36 23.42z m633.33 235.75c10.5 25.25 4.73 54.34-14.6 73.68-19.34 19.34-48.43 25.1-73.68 14.6-25.25-10.5-41.68-35.19-41.6-62.54 0.1-37.15 30.19-67.24 67.34-67.34 27.35-0.07 52.04 16.35 62.54 41.6z m77.38-667.47c-19.31 19.31-48.35 25.09-73.59 14.64-25.23-10.46-41.68-35.08-41.68-62.39 0-37.3 30.23-67.53 67.52-67.53 27.32 0 51.94 16.45 62.39 41.68 10.45 25.24 4.67 54.28-14.64 73.6z" p-id="6323"></path></svg>