<svg xmlns="http://www.w3.org/2000/svg" viewBox="0 0 26 26" class="design-iconfont">
  <g >
    <path d="M503.056,605.874H501.34l-.551-1.444h-2.534l-.519,1.444h-1.679l2.471-6.335h1.989Zm-2.87-3.028-.684-1.837-.646,1.831Z" transform="translate(-483.033 -584.066)"/>
    <path d="M308.532,147.526l-4.2,2.8a.7.7,0,0,1-1.091-.581v-5.6a.7.7,0,0,1,1.091-.581l4.2,2.8a.7.7,0,0,1,0,1.161Z" transform="translate(-293.017 -139.349)"/>
    <path d="M2.523,14.832a.706.706,0,0,1-.706-.706V3.7A.706.706,0,0,1,2.523,3H21.5a.706.706,0,0,1,.706.706v6.676h1.783V3.7A2.27,2.27,0,0,0,21.5,1.2H2.523A2.369,2.369,0,0,0,0,3.7V14.127c.02,1.639.863,2.634,2.523,2.6H4.94v-1.9Z" transform="translate(1 -.203)"/>
    <path d="M300.823,153.916v7.7a2.4,2.4,0,0,0,2.42,2.49h12a2.448,2.448,0,0,0,2.516-2.49v-7.7a2.247,2.247,0,0,0-2.516-2.513h-12A2.335,2.335,0,0,0,300.823,153.916Zm14.42,8.4h-12a.706.706,0,0,1-.706-.706v-7.7a.706.706,0,0,1,.706-.706h12a.706.706,0,0,1,.706.706v7.7A.706.706,0,0,1,315.242,162.32Z" transform="translate(-292.758 -139.112)"/>
  </g>
</svg>
