<svg xmlns="http://www.w3.org/2000/svg" viewBox="0 0 26 26" class="design-iconfont">
  <g >
    <path d="M105.433,109.333h-16.2a3.892,3.892,0,0,1-3.9-3.9v-16.2a3.892,3.892,0,0,1,3.9-3.9h16.14a3.892,3.892,0,0,1,3.9,3.9v16.14A3.819,3.819,0,0,1,105.433,109.333Zm-16.2-22.2a2.126,2.126,0,0,0-2.1,2.1v16.14a2.126,2.126,0,0,0,2.1,2.1h16.14a2.126,2.126,0,0,0,2.1-2.1V89.233a2.037,2.037,0,0,0-2.04-2.1Z" transform="translate(-84.304 -84.333)"/>
    <path d="M319.833,309h-9.6a.9.9,0,0,1,0-1.8h9.6a.923.923,0,0,1,.9.9A.884.884,0,0,1,319.833,309Z" transform="translate(-302.004 -299.96)"/>
    <path d="M315.033,318.72a.923.923,0,0,1-.9-.9v-9.6a.9.9,0,1,1,1.8,0v9.6A.85.85,0,0,1,315.033,318.72Zm-4.8-8.52a.923.923,0,0,1-.9-.9v-1.2a.9.9,0,1,1,1.8,0v1.2A.884.884,0,0,1,310.233,310.2Zm9.6,0a.923.923,0,0,1-.9-.9v-1.2a.9.9,0,1,1,1.8,0v1.2A.884.884,0,0,1,319.833,310.2Z" transform="translate(-302.004 -299.96)"/>
    <path d="M440.633,654.6h-2.4a.9.9,0,0,1,0-1.8h2.4a.923.923,0,0,1,.9.9A.85.85,0,0,1,440.633,654.6Z" transform="translate(-426.404 -635.84)"/>
  </g>
</svg>
