<svg xmlns="http://www.w3.org/2000/svg" xmlns:xlink="http://www.w3.org/1999/xlink" version="1.1" width="24" height="24" viewBox="0 0 24 24"><defs><clipPath id="master_svg0_2531_35980"><rect x="0" y="0" width="24" height="24" rx="0"/></clipPath></defs><g clip-path="url(#master_svg0_2531_35980)"><g><path d="M8.537994375,10.912641914062501L16.123584375,5.1232419140625C17.023984374999998,4.4358779140625,18.321784375,5.0780299140625,18.321784375,6.2106519140625L18.321784375,17.7894619140625C18.321784375,18.9220619140625,17.023984374999998,19.5642619140625,16.123584375,18.8769619140625L8.537994375,13.0875119140625C7.820784375000001,12.5400619140625,7.820784375000001,11.4601019140625,8.537994375,10.912641914062501ZM5.599945975,18.3000619140625L5.599945975,10.5864219140625L5.599945975,6.7294919140625C5.599945975,6.2694519140625005,5.461558375,5.3120909140625,5.999741375,4.9519619140625C6.5979543750000005,4.5519139140625,7.4000843750000005,4.9803249140625,7.4000843750000005,5.7000739140625L7.4000843750000005,17.2706619140625C7.4000843750000005,17.7306619140625,7.538724375,18.687961914062498,7.0005443750000005,19.0481619140625C6.402076375,19.4481619140625,5.599946775,19.0197619140625,5.599945975,18.3000619140625Z"  fill-opacity="1"/></g></g></svg>