<svg xmlns="http://www.w3.org/2000/svg" xmlns:xlink="http://www.w3.org/1999/xlink"  version="1.1" width="24" height="21.63380241394043" viewBox="0 0 24 21.63380241394043"><defs><clipPath id="master_svg0_3081_30507"><rect x="0" y="0" width="24" height="21.63380241394043" rx="0"/></clipPath></defs><g clip-path="url(#master_svg0_3081_30507)"><g><path d="M3.964164375,15.047821875L10.851194375,18.134221875C11.267984375,18.314621875,11.464684375,18.436321875,11.881584375,18.436321875C12.235584375,18.437821875,12.583784375,18.345721875,12.890884375,18.169421875C12.929384375,18.143221875,12.970084375,18.120521875,13.012584375,18.101521875L19.515584375,15.366321875C19.718184375,15.283321875,19.945284375,15.283321875,20.147884375,15.366321875L22.433384375,16.305321875C22.983684375,16.532521875,22.988384375,17.211621875,22.442784375,17.443421875L12.223484375,21.803721875C12.014984375,21.891621875,11.779584375,21.889921875,11.572484375,21.799021875L1.318013375,17.267821875C0.779415375,17.026621875,0.788782375,16.356921874999998,1.336747375,16.132121875L3.964164375,15.047821875ZM3.652714375,9.734481875C3.851574375,9.653141875,4.074414375,9.653141875,4.273274375,9.734481875L11.017484375,12.495421875L11.104084375,12.523521875C11.721784375,12.693921875,12.375484375,12.682521875,12.986884375,12.490721875L19.513284375,9.739161875C19.715184375,9.654631875,19.942284375,9.652951875,20.145484375,9.734481875L22.456784375,10.687561875C23.002384375,10.912321875,23.014184375,11.584421875,22.475584375,11.820921875L12.225784375,16.354521875C12.016184375,16.446721875,11.777384375,16.446721875,11.567784375,16.354521875L1.318013375,11.823321875C0.779415375,11.584421875,0.788782375,10.914721875,1.336747375,10.689901875L3.652714375,9.734481875ZM11.574784375,0.859321175C11.780084375,0.773455775,12.011184375,0.773455775,12.216384375,0.859321175L22.489584375,5.243041875C23.028184375,5.472531875,23.032884375,6.135241875,22.498984375,6.371751875L12.225784375,10.914721875C12.016184375,11.006921875,11.777384375,11.006921875,11.567784375,10.914721875L1.292254375,6.369411875C0.760681375,6.135241875,0.765364375,5.470191875,1.301621375,5.240701875L11.574784375,0.859321175Z"  fill-opacity="1"/></g></g></svg>