<svg xmlns="http://www.w3.org/2000/svg" xmlns:xlink="http://www.w3.org/1999/xlink"  version="1.1" width="13.997276306152344" height="14.000015258789062" viewBox="0 0 13.997276306152344 14.000015258789062"><g><path d="M12.3258,11.5291C12.3463,11.5059,12.3668,11.4813,12.386,11.458C12.4024,11.4389,12.4174,11.4198,12.4338,11.4006C12.4516,11.3788,12.4693,11.3569,12.4871,11.3337C12.5035,11.3132,12.5185,11.2927,12.5349,11.2722C12.5513,11.2503,12.5691,11.2284,12.5855,11.2066C12.6019,11.1861,12.6169,11.1642,12.632,11.1437C12.6484,11.1218,12.6648,11.1,12.6812,11.0767C12.6962,11.0549,12.7112,11.0344,12.7263,11.0125C12.7427,10.9893,12.7577,10.9674,12.7741,10.9442C12.7891,10.9223,12.8028,10.9018,12.8178,10.8799C12.8329,10.8567,12.8493,10.8335,12.8643,10.8102C12.878,10.7884,12.893,10.7665,12.9067,10.7446C12.9217,10.7214,12.9367,10.6968,12.9518,10.6722C12.9654,10.6503,12.9791,10.6285,12.9914,10.6066C13.0064,10.582,13.0215,10.556,13.0365,10.5301C13.0488,10.5096,13.0611,10.4877,13.0734,10.4672C13.0898,10.4385,13.1062,10.4098,13.1226,10.3797C13.1322,10.362,13.1431,10.3442,13.1527,10.3251L13.2265,10.1857C13.236,10.1679,13.2442,10.1501,13.2538,10.131C13.2688,10.1009,13.2839,10.0709,13.2989,10.0394C13.3085,10.0189,13.3194,9.99707,13.329,9.97657C13.3426,9.94923,13.3549,9.92054,13.3686,9.8932C13.3782,9.87134,13.3891,9.8481,13.3987,9.82623C13.411,9.7989,13.4233,9.77157,13.4342,9.74424C13.4438,9.721,13.4533,9.69777,13.4629,9.6759C13.4738,9.64857,13.4861,9.62124,13.4971,9.5939C13.5066,9.57067,13.5148,9.54744,13.5244,9.5242C13.5353,9.49687,13.5463,9.46817,13.5558,9.44084C13.564,9.4176,13.5736,9.39437,13.5818,9.37114C13.5927,9.34244,13.6023,9.31374,13.6119,9.28504C13.6201,9.2618,13.6283,9.23857,13.6351,9.21534L13.6638,9.12514C13.6706,9.10327,13.6775,9.08141,13.6857,9.05817C13.6952,9.02537,13.7048,8.99394,13.7144,8.96114C13.7198,8.94064,13.7267,8.92151,13.7321,8.90101C13.7444,8.85864,13.7554,8.81764,13.7663,8.77528C13.769,8.76434,13.7718,8.75341,13.7759,8.74248C13.7895,8.68918,13.8032,8.63588,13.8155,8.58258C13.8196,8.56481,13.8237,8.54841,13.8264,8.53064L13.851,8.41994C13.8551,8.39808,13.8592,8.37621,13.8633,8.35571C13.8702,8.32291,13.877,8.29011,13.8825,8.25595L13.8948,8.18625C13.9002,8.15481,13.9057,8.12201,13.9112,8.09058C13.9153,8.06735,13.918,8.04275,13.9221,8.01952C13.9262,7.98808,13.9317,7.95528,13.9358,7.92385C13.9385,7.89925,13.9426,7.87602,13.9453,7.85142C13.9494,7.81998,13.9535,7.78718,13.9563,7.75575C13.959,7.73115,13.9617,7.70792,13.9645,7.68332L13.9727,7.58492C13.974,7.56169,13.9768,7.53709,13.9781,7.51385C13.9809,7.47969,13.9822,7.44552,13.985,7.41135C13.9863,7.38949,13.9877,7.36626,13.9891,7.34439L13.9932,7.22959C13.9932,7.21046,13.9945,7.19132,13.9945,7.17356C13.9959,7.11616,13.9973,7.05876,13.9973,7.00136C13.9973,4.96641,13.124,3.13236,11.7327,1.85317L11.7273,1.84771C11.6904,1.81354,11.6521,1.78074,11.6152,1.74658C11.6111,1.74384,11.6084,1.73974,11.6043,1.73701L11.4936,1.64272C11.4881,1.63862,11.4826,1.63315,11.4772,1.62905C11.4416,1.59898,11.4047,1.56892,11.3678,1.54022C11.361,1.53475,11.3542,1.52929,11.3487,1.52382C11.3132,1.49512,11.2776,1.46779,11.2407,1.44045C11.2325,1.43499,11.2257,1.42815,11.2175,1.42269C11.182,1.39672,11.1464,1.36939,11.1109,1.34342C11.1013,1.33659,11.0931,1.32975,11.0836,1.32292C11.0494,1.29832,11.0139,1.27372,10.9783,1.24912C10.9674,1.24229,10.9578,1.23409,10.9469,1.22726C10.9127,1.20402,10.8772,1.18079,10.843,1.15756C10.8321,1.14936,10.8198,1.14252,10.8089,1.13432C10.7747,1.11246,10.7405,1.09059,10.705,1.06872C10.6927,1.06052,10.6804,1.05369,10.6681,1.04549C10.6339,1.02499,10.5998,1.00312,10.5656,0.982624L10.5246,0.958024C10.4904,0.938891,10.4576,0.918391,10.4235,0.899258C10.4084,0.891058,10.3948,0.882858,10.3797,0.874658C10.3469,0.855525,10.3128,0.837759,10.2786,0.819992C10.2636,0.811792,10.2472,0.803593,10.2321,0.795393C10.1993,0.777626,10.1652,0.761226,10.1324,0.744826C10.116,0.736626,10.0996,0.728427,10.0818,0.720227C10.049,0.703827,10.0162,0.687427,9.9834,0.672394L9.9301,0.647794L9.8317,0.602694C9.81257,0.594495,9.7948,0.586295,9.77567,0.578095C9.74287,0.564428,9.71144,0.550762,9.67864,0.537095C9.6595,0.528895,9.639,0.520695,9.61987,0.512495C9.58844,0.498829,9.55564,0.486529,9.52421,0.474229C9.50371,0.466029,9.48321,0.459196,9.46271,0.450996C9.43127,0.438696,9.39847,0.427763,9.36704,0.415463C9.34517,0.407263,9.32467,0.40043,9.30281,0.39223L9.20851,0.35943C9.18664,0.352597,9.16341,0.344397,9.14154,0.337564C9.11011,0.327997,9.07867,0.317064,9.04861,0.307497L8.97891,0.286997C8.94747,0.277431,8.91741,0.269231,8.88598,0.259664C8.86138,0.252831,8.83814,0.245998,8.81354,0.240531C8.78348,0.232331,8.75204,0.224131,8.72198,0.215932C8.69738,0.209098,8.67141,0.203632,8.64681,0.196798C8.61674,0.189965,8.58668,0.181765,8.55661,0.174932C8.53065,0.169465,8.50468,0.163999,8.47871,0.157165C8.44865,0.150332,8.41995,0.144866,8.38988,0.138032C8.36255,0.132566,8.33521,0.127099,8.30788,0.122999C8.27918,0.117532,8.24911,0.112066,8.22042,0.106599C8.19308,0.101133,8.16438,0.0970326,8.13568,0.0929327C8.10698,0.0888327,8.07828,0.0833661,8.04958,0.0792661C8.02088,0.0751662,7.99082,0.0710662,7.96212,0.0669663C7.93342,0.0628663,7.90609,0.0587663,7.87739,0.056033C7.84732,0.0519331,7.81725,0.0491997,7.78582,0.0450998C7.75849,0.0423665,7.73115,0.0382665,7.70382,0.0355332L7.60952,0.0273333C7.58355,0.0246,7.55622,0.0218667,7.53026,0.0205C7.49609,0.0177667,7.46192,0.0164001,7.42912,0.0136668L7.35532,0.0095668C7.31569,0.00820014,7.27742,0.00683349,7.23779,0.00546683C7.21729,0.00546683,7.19816,0.00410018,7.17766,0.00273353C7.11889,0.00136687,7.05876,2.16961e-7,6.99999,2.16961e-7C6.93986,2.16961e-7,6.88109,0.00136687,6.82233,0.00273353C6.80183,0.00273353,6.7827,0.00410018,6.7622,0.00546683C6.72256,0.00683349,6.6843,0.00820014,6.64466,0.0095668L6.57086,0.0136668C6.5367,0.0164001,6.50253,0.0177667,6.46973,0.0205C6.4424,0.0218667,6.41643,0.0246,6.39047,0.0273333L6.29617,0.0355332C6.26883,0.0382665,6.2415,0.0409998,6.21417,0.0450998C6.1841,0.0491997,6.15404,0.0519331,6.1226,0.056033C6.0939,0.060133,6.06657,0.0642329,6.03787,0.0669663C6.00917,0.0710662,5.9791,0.0751662,5.9504,0.0792661C5.9217,0.0833661,5.893,0.0888327,5.8643,0.0929327C5.8356,0.0970326,5.80827,0.102499,5.77957,0.106599C5.75087,0.112066,5.72081,0.117532,5.69211,0.122999C5.66477,0.128466,5.63744,0.132566,5.61011,0.138032C5.58004,0.143499,5.55134,0.150332,5.52127,0.157165C5.49531,0.162632,5.46934,0.168099,5.44338,0.174932C5.41331,0.181765,5.38324,0.188598,5.35318,0.196798C5.32858,0.202265,5.30261,0.209098,5.27801,0.215932C5.24794,0.224131,5.21651,0.232331,5.18644,0.240531C5.16184,0.247365,5.13861,0.252831,5.11401,0.259664C5.08258,0.267864,5.05251,0.277431,5.02108,0.286997L4.95138,0.307497C4.91995,0.317064,4.88851,0.32663,4.85845,0.337564C4.83658,0.344397,4.81335,0.352597,4.79148,0.35943L4.69718,0.39223C4.67532,0.399063,4.65482,0.407263,4.63295,0.415463C4.60152,0.426396,4.56872,0.438696,4.53728,0.450996C4.51678,0.459196,4.49628,0.466029,4.47578,0.474229C4.44299,0.486529,4.41155,0.500195,4.38012,0.512495C4.36099,0.520695,4.34049,0.528895,4.32135,0.537095C4.28855,0.550762,4.25712,0.564428,4.22432,0.578095C4.20519,0.586295,4.18742,0.594495,4.16829,0.602694L4.06989,0.647794L4.01659,0.672394C3.98379,0.687427,3.95099,0.703827,3.91819,0.720227C3.90179,0.728427,3.88539,0.736626,3.86762,0.744826C3.83482,0.761226,3.80066,0.778993,3.76786,0.795393C3.75146,0.803593,3.73643,0.811792,3.72139,0.819992C3.68723,0.837759,3.65443,0.856892,3.62026,0.874658C3.60523,0.882858,3.59156,0.891058,3.57653,0.899258C3.54236,0.918391,3.50819,0.937525,3.47403,0.958024C3.46036,0.966224,3.44669,0.974424,3.43303,0.981257C3.39886,1.00176,3.3647,1.02226,3.33053,1.04412C3.31823,1.05232,3.30593,1.05916,3.29363,1.06736C3.25946,1.08922,3.22393,1.11109,3.18976,1.13296C3.17883,1.13979,3.16653,1.14799,3.1556,1.15619C3.12006,1.17942,3.0859,1.20266,3.05173,1.22589C3.0408,1.23272,3.03123,1.23956,3.0203,1.24775C2.98477,1.27235,2.9506,1.29695,2.91507,1.32155C2.9055,1.32839,2.8973,1.33522,2.88773,1.34205C2.8522,1.36802,2.81667,1.39399,2.78113,1.42132C2.77293,1.42679,2.7661,1.43362,2.7579,1.43909C2.72237,1.46642,2.68547,1.49512,2.64994,1.52245C2.6431,1.52792,2.63627,1.53339,2.6308,1.53885C2.5939,1.56755,2.55837,1.59762,2.52147,1.62768C2.516,1.63178,2.51054,1.63725,2.50507,1.64135L2.39437,1.73565C2.39027,1.73838,2.38754,1.74248,2.38344,1.74522C2.34517,1.77802,2.30827,1.81218,2.27137,1.84635L2.26591,1.85182C0.873292,3.131,0,4.96505,0,7C0,7.0574,0.00136665,7.1148,0.00273331,7.1722C0.00273331,7.19133,0.00409996,7.21046,0.00409996,7.22823L0.00819993,7.34303C0.00956658,7.3649,0.0109332,7.38813,0.0122999,7.41C0.0136665,7.44416,0.0163999,7.47833,0.0191331,7.5125C0.0204998,7.53573,0.0232331,7.56033,0.0245998,7.58356L0.0327997,7.68196C0.035533,7.70656,0.0382663,7.72979,0.0409996,7.75439C0.0450996,7.78719,0.0478329,7.81863,0.0519328,7.85006C0.0546661,7.87466,0.0573995,7.89789,0.0614994,7.92249C0.0655994,7.95392,0.0696993,7.98672,0.0751659,8.01816C0.0792659,8.04139,0.0819992,8.06599,0.0860992,8.08922C0.0915658,8.12202,0.0970324,8.15346,0.102499,8.18626L0.114799,8.25595C0.120266,8.28875,0.127099,8.32155,0.133932,8.35572C0.138032,8.37759,0.142132,8.39945,0.146232,8.41995L0.170832,8.53065C0.174932,8.54842,0.177665,8.56482,0.181765,8.58258C0.194065,8.63588,0.207731,8.68918,0.221398,8.74248C0.224131,8.75342,0.226864,8.76435,0.230964,8.77528C0.241898,8.81765,0.252831,8.86001,0.265131,8.90102C0.270597,8.92151,0.277431,8.94065,0.282897,8.96115C0.292464,8.99395,0.30203,9.02675,0.311597,9.05818C0.31843,9.08005,0.325264,9.10191,0.332097,9.12515L0.360797,9.21535C0.368996,9.23858,0.377196,9.26181,0.38403,9.28368C0.393596,9.31238,0.404529,9.34108,0.414096,9.36978C0.422296,9.39301,0.430496,9.41625,0.440062,9.43948C0.450996,9.46681,0.460562,9.49551,0.471495,9.52285C0.481062,9.54608,0.489262,9.56931,0.498829,9.59255C0.509762,9.61988,0.520695,9.64721,0.532995,9.67454C0.542561,9.69778,0.552128,9.72101,0.561695,9.74288C0.573995,9.77021,0.584928,9.79754,0.597228,9.82488C0.606794,9.84674,0.617727,9.86998,0.627294,9.89184C0.639594,9.91918,0.65326,9.94788,0.66556,9.97521C0.675127,9.99708,0.68606,10.0176,0.695627,10.0394C0.71066,10.0695,0.725693,10.0996,0.740726,10.131C0.750293,10.1488,0.758493,10.1665,0.768059,10.1857L0.841859,10.3251C0.851425,10.3428,0.862358,10.3606,0.871925,10.3797C0.888325,10.4084,0.903358,10.4371,0.921125,10.4658C0.933424,10.4863,0.945724,10.5082,0.958024,10.5287C0.973057,10.5547,0.988091,10.5793,1.00312,10.6052C1.01679,10.6271,1.03046,10.649,1.04276,10.6708C1.05779,10.6954,1.07282,10.7187,1.08786,10.7433C1.10152,10.7651,1.11656,10.787,1.13022,10.8089C1.14526,10.8321,1.16029,10.8553,1.17669,10.8786C1.19172,10.9004,1.20539,10.9223,1.22042,10.9428C1.23545,10.966,1.25185,10.9879,1.26825,11.0111C1.28329,11.033,1.29832,11.0535,1.31335,11.0754C1.32975,11.0972,1.34615,11.1205,1.36255,11.1423C1.37759,11.1628,1.39399,11.1847,1.40902,11.2052C1.42542,11.2271,1.44319,11.2489,1.45959,11.2708C1.47599,11.2913,1.49102,11.3118,1.50742,11.3323C1.52519,11.3542,1.54295,11.3774,1.56072,11.3993C1.57712,11.4184,1.59215,11.4375,1.60855,11.458C1.62905,11.4826,1.64818,11.5059,1.66868,11.5291C1.82038,11.7068,1.98028,11.8776,2.14975,12.0402C2.18801,12.0758,2.22491,12.1127,2.26454,12.1482C2.26728,12.1496,2.26865,12.1523,2.27138,12.1537C2.30828,12.1878,2.34518,12.2206,2.38344,12.2548C2.38754,12.2575,2.39028,12.2616,2.39438,12.2644C2.43128,12.2958,2.46681,12.3272,2.50371,12.3587C2.50918,12.3628,2.51464,12.3682,2.52011,12.3723C2.55564,12.4024,2.59254,12.4311,2.62807,12.4612C2.63491,12.4666,2.64174,12.4721,2.64721,12.4776C2.68274,12.5063,2.71827,12.5336,2.75381,12.5609C2.76201,12.5664,2.77021,12.5732,2.77841,12.5787C2.81394,12.6047,2.84947,12.632,2.88501,12.658C2.89457,12.6648,2.90277,12.6716,2.91234,12.6785C2.94651,12.7031,2.98204,12.7277,3.01757,12.7523C3.0285,12.7591,3.03807,12.7673,3.049,12.7741C3.08317,12.7974,3.1187,12.8206,3.15287,12.8438C3.1638,12.852,3.1761,12.8589,3.18704,12.8671L3.28954,12.9327C3.30184,12.9409,3.31413,12.9491,3.3278,12.9559L3.4303,13.0174L3.4713,13.042C3.50547,13.0611,3.53827,13.0816,3.57243,13.1008C3.58747,13.109,3.60113,13.1172,3.61617,13.1254C3.64896,13.1445,3.68313,13.1623,3.7173,13.18C3.7337,13.1882,3.74873,13.1964,3.76513,13.2046C3.79793,13.2224,3.83073,13.2388,3.8649,13.2552C3.8813,13.2634,3.8977,13.2716,3.91546,13.2798C3.94826,13.2962,3.98106,13.3112,4.01386,13.3276L4.06716,13.3522L4.16556,13.3973C4.18469,13.4055,4.20246,13.4137,4.22159,13.4219C4.25439,13.4356,4.28583,13.4493,4.31862,13.4629C4.33776,13.4711,4.35826,13.4793,4.37739,13.4875C4.40882,13.5012,4.44162,13.5135,4.47442,13.5258C4.49492,13.534,4.51542,13.5408,4.53592,13.549C4.56736,13.5613,4.60016,13.5736,4.63159,13.5846C4.65346,13.5928,4.67396,13.5996,4.69582,13.6078L4.79012,13.6406C4.81199,13.6474,4.83522,13.6556,4.85709,13.6625C4.88852,13.672,4.91859,13.683,4.95002,13.6925L5.01972,13.713C5.04979,13.7226,5.08122,13.7308,5.11265,13.7404C5.13725,13.7472,5.16048,13.754,5.18508,13.7595C5.21515,13.7677,5.24658,13.7759,5.27665,13.7841C5.30125,13.7909,5.32722,13.7964,5.35182,13.8032C5.38188,13.8101,5.41195,13.8183,5.44201,13.8251C5.46798,13.8306,5.49395,13.836,5.51991,13.8429C5.54998,13.8497,5.57868,13.8552,5.60875,13.862C5.63608,13.8674,5.66341,13.8729,5.68938,13.877C5.71808,13.8825,5.74815,13.8879,5.77684,13.8934C5.80418,13.8989,5.83288,13.903,5.86158,13.9071C5.89028,13.9112,5.91898,13.9166,5.94768,13.9207C5.97638,13.9248,6.00644,13.9289,6.03514,13.933C6.06384,13.9371,6.09118,13.9412,6.11987,13.944C6.14994,13.9481,6.18001,13.9508,6.21144,13.9549C6.23877,13.9576,6.26611,13.9617,6.29344,13.9645L6.38774,13.9727C6.41371,13.9754,6.44104,13.9781,6.467,13.9795C6.50117,13.9822,6.53534,13.9836,6.56814,13.9863L6.64194,13.9904C6.68157,13.9918,6.71984,13.9932,6.75947,13.9945C6.77997,13.9945,6.7991,13.9959,6.8196,13.9973C6.87837,13.9986,6.9385,14,6.99727,14C7.0574,14,7.11617,13.9986,7.17493,13.9973C7.19543,13.9973,7.21456,13.9959,7.23506,13.9945C7.2747,13.9932,7.31296,13.9918,7.3526,13.9904L7.4264,13.9863C7.46056,13.9836,7.49473,13.9822,7.52753,13.9795C7.55486,13.9781,7.58083,13.9754,7.60679,13.9727L7.70109,13.9645C7.72843,13.9617,7.75576,13.959,7.78309,13.9549C7.81316,13.9508,7.84322,13.9481,7.87466,13.944C7.90336,13.9399,7.93069,13.9358,7.95939,13.933C7.98809,13.9289,8.01816,13.9248,8.04686,13.9207C8.07556,13.9166,8.10426,13.9112,8.13296,13.9071C8.16165,13.903,8.18899,13.8975,8.21769,13.8934C8.24639,13.8879,8.27645,13.8825,8.30515,13.877C8.33249,13.8715,8.35982,13.8674,8.38579,13.862C8.41585,13.8565,8.44455,13.8497,8.47462,13.8429C8.50058,13.8374,8.52655,13.8319,8.55252,13.8251C8.58258,13.8183,8.61265,13.8114,8.64272,13.8032C8.66732,13.7978,8.69328,13.7909,8.71788,13.7841C8.74795,13.7759,8.77938,13.7677,8.80945,13.7595C8.83405,13.7527,8.85728,13.7472,8.88188,13.7404C8.91331,13.7322,8.94338,13.7226,8.97481,13.713L9.04451,13.6925C9.07595,13.683,9.10738,13.6734,9.13745,13.6625C9.15931,13.6556,9.18255,13.6474,9.20441,13.6406L9.29871,13.6078C9.32058,13.601,9.34108,13.5928,9.36294,13.5846C9.39438,13.5736,9.42718,13.5613,9.45861,13.549C9.47911,13.5408,9.49961,13.534,9.52011,13.5258C9.55291,13.5135,9.58434,13.4998,9.61714,13.4875C9.63628,13.4793,9.65678,13.4711,9.67591,13.4629C9.70871,13.4493,9.74151,13.4356,9.77294,13.4219C9.79207,13.4137,9.80984,13.4055,9.82897,13.3973L9.92737,13.3522L9.98067,13.3276C10.0135,13.3126,10.0463,13.2962,10.0791,13.2798C10.0955,13.2716,10.1132,13.2634,10.1296,13.2552C10.1624,13.2388,10.1966,13.221,10.2294,13.2046C10.2458,13.1964,10.2608,13.1882,10.2772,13.18C10.3114,13.1623,10.3442,13.1445,10.3784,13.1254C10.3934,13.1172,10.4071,13.109,10.4221,13.1008C10.4563,13.0816,10.4904,13.0625,10.5232,13.042L10.5642,13.0174L10.6667,12.9559C10.679,12.9477,10.6913,12.9395,10.705,12.9327L10.8075,12.8671C10.8184,12.8602,10.8307,12.852,10.8417,12.8438C10.8758,12.8206,10.9114,12.7974,10.9455,12.7741C10.9565,12.7673,10.966,12.7591,10.977,12.7523C11.0125,12.7277,11.0467,12.7031,11.0822,12.6785C11.0918,12.6716,11.1,12.6648,11.1095,12.658C11.1451,12.632,11.1806,12.606,11.2161,12.5787C11.2243,12.5732,11.2325,12.5664,11.2407,12.5609C11.2763,12.5336,11.3132,12.5063,11.3473,12.4776C11.3542,12.4721,11.361,12.4666,11.3665,12.4612C11.4034,12.4325,11.4389,12.4024,11.4744,12.3723C11.4799,12.3682,11.4854,12.3628,11.4908,12.3587C11.5277,12.3272,11.5646,12.2958,11.6002,12.2644C11.6043,12.2616,11.607,12.2575,11.6111,12.2548C11.6494,12.222,11.6863,12.1878,11.7232,12.1537C11.7259,12.1523,11.7273,12.1496,11.73,12.1482C11.7683,12.1127,11.8065,12.0771,11.8448,12.0402C12.0143,11.879,12.1742,11.7081,12.3258,11.5291ZM13.3686,7.4756C13.3672,7.49746,13.3645,7.5207,13.3631,7.54256L13.3549,7.63276C13.3522,7.65599,13.3495,7.67923,13.3481,7.70246C13.3454,7.73116,13.3413,7.75986,13.3385,7.78856C13.3358,7.81179,13.3331,7.83503,13.329,7.85826C13.3249,7.88696,13.3208,7.91429,13.3167,7.94162C13.3126,7.96486,13.3098,7.98946,13.3057,8.01269C13.3016,8.04002,13.2962,8.06736,13.2921,8.09469C13.288,8.11792,13.2839,8.14252,13.2798,8.16576C13.2743,8.19309,13.2702,8.22042,13.2647,8.24639C13.2606,8.26962,13.2552,8.29422,13.2497,8.31745C13.2442,8.34479,13.2388,8.37075,13.2319,8.39672C13.2265,8.41995,13.221,8.44319,13.2155,8.46779C13.2087,8.49375,13.2032,8.52109,13.1964,8.54705C13.1909,8.57029,13.1855,8.59352,13.1786,8.61675C13.1718,8.64272,13.165,8.66868,13.1568,8.69602C13.1499,8.71925,13.1445,8.74248,13.1376,8.76435C13.1294,8.79032,13.1226,8.81628,13.1144,8.84225C13.1076,8.86548,13.1007,8.88735,13.0939,8.91058C13.0857,8.93655,13.0775,8.96252,13.0679,8.98848C13.0611,9.01035,13.0543,9.03221,13.0461,9.05545C13.0365,9.08278,13.0269,9.11011,13.0174,9.13608C13.0105,9.15658,13.0023,9.17708,12.9955,9.19758C12.9791,9.24405,12.9613,9.28915,12.9436,9.33561C12.9354,9.35748,12.9258,9.38071,12.9162,9.40258C12.9067,9.42718,12.8971,9.45041,12.8862,9.47501C12.8766,9.49825,12.8657,9.52148,12.8561,9.54471C12.8465,9.56658,12.837,9.58981,12.826,9.61168C12.8151,9.63491,12.8042,9.65951,12.7932,9.68275C12.7837,9.70461,12.7727,9.72648,12.7632,9.74835C12.7522,9.77158,12.7399,9.79618,12.729,9.81941C12.7181,9.83991,12.7085,9.86178,12.6976,9.88228C12.6853,9.90551,12.673,9.92874,12.6607,9.95334L12.6279,10.0148C12.6156,10.0381,12.6019,10.0613,12.5896,10.0859C12.5787,10.1064,12.5677,10.1255,12.5554,10.146L12.5144,10.2157C12.5035,10.2349,12.4912,10.2554,12.4803,10.2745C12.4666,10.2977,12.4529,10.321,12.4379,10.3442C12.4256,10.3633,12.4147,10.3825,12.4024,10.4016C12.3873,10.4248,12.3737,10.4481,12.3586,10.4713C12.3463,10.4904,12.334,10.5082,12.3217,10.526C12.3067,10.5492,12.2917,10.5724,12.2753,10.5943L12.2384,10.6476L12.1892,10.7173C12.1769,10.7337,12.1646,10.7501,12.1523,10.7679C12.1359,10.7911,12.1181,10.8143,12.1003,10.8376C12.088,10.8526,12.0757,10.869,12.0648,10.884C12.047,10.9073,12.0279,10.9319,12.0101,10.9551C11.9992,10.9688,11.9883,10.9824,11.9773,10.9947C11.9568,11.0193,11.9363,11.0453,11.9158,11.0699C11.9117,11.0754,11.9076,11.0808,11.9022,11.0849C11.8448,11.1533,11.786,11.2202,11.7272,11.2872C11.2448,11.059,10.6995,10.8663,10.1037,10.7159C10.4194,9.73332,10.6107,8.58123,10.6408,7.33621L13.3741,7.33621C13.3727,7.35124,13.3727,7.36764,13.3713,7.38267C13.3727,7.41274,13.3713,7.44417,13.3686,7.4756ZM10.4672,12.3614C10.4317,12.3846,10.3961,12.4065,10.3606,12.4283C10.3538,12.4324,10.3483,12.4365,10.3415,12.4406C10.3087,12.4611,10.2745,12.4816,10.2403,12.5008C10.2321,12.5062,10.2226,12.5117,10.2144,12.5158C10.1816,12.5349,10.1501,12.5527,10.1173,12.5718C10.1064,12.5773,10.0968,12.5841,10.0859,12.5896C10.0545,12.6074,10.0217,12.6251,9.99024,12.6415C9.9793,12.6484,9.967,12.6538,9.95607,12.6593L9.86177,12.7085C9.84947,12.7153,9.83717,12.7208,9.82487,12.7276C9.79344,12.7427,9.762,12.7591,9.73057,12.7741C9.71827,12.7796,9.7046,12.7864,9.6923,12.7919C9.66087,12.8069,9.62944,12.8219,9.59664,12.8356C9.58434,12.8411,9.57067,12.8465,9.55837,12.852C9.52557,12.8657,9.49414,12.8807,9.46134,12.8944C9.44904,12.8998,9.43811,12.9039,9.42581,12.9094L9.32331,12.9504C9.31511,12.9531,9.30691,12.9572,9.29871,12.96C9.17844,13.0064,9.05681,13.0488,8.93244,13.0884L8.90784,13.0966C8.87778,13.1062,8.84771,13.1144,8.81901,13.124C8.80671,13.1281,8.79305,13.1322,8.78075,13.1349C9.21807,12.6757,9.598,12.0498,9.90003,11.2981C10.3934,11.4211,10.8526,11.5742,11.264,11.7519C11.018,11.9733,10.7542,12.1755,10.4754,12.3559C10.4713,12.3587,10.4686,12.36,10.4672,12.3614ZM5.08942,13.098L5.06482,13.0898C4.94045,13.0502,4.81882,13.0078,4.69855,12.9613C4.69036,12.9586,4.68216,12.9559,4.67532,12.9518L4.57282,12.9108C4.56052,12.9053,4.54959,12.9012,4.53729,12.8971C4.50449,12.8834,4.47169,12.8698,4.44026,12.8547C4.42796,12.8493,4.41429,12.8438,4.40199,12.8383C4.37056,12.8247,4.33776,12.8096,4.30633,12.7946C4.29403,12.7891,4.28036,12.7823,4.26806,12.7768C4.23663,12.7618,4.20519,12.7468,4.17376,12.7304C4.16146,12.7235,4.14916,12.7181,4.13686,12.7112L4.04256,12.662C4.03163,12.6566,4.01933,12.6497,4.0084,12.6443C3.9756,12.6265,3.94416,12.6101,3.91273,12.5923C3.9018,12.5869,3.89223,12.5814,3.8813,12.5746C3.8485,12.5568,3.8157,12.5377,3.78426,12.5185C3.77606,12.5131,3.7665,12.5076,3.7583,12.5035C3.72413,12.483,3.69133,12.4639,3.65717,12.4434C3.65033,12.4393,3.64487,12.4352,3.63803,12.4324C3.6025,12.4106,3.56697,12.3873,3.53143,12.3655C3.53007,12.3641,3.52733,12.3627,3.52597,12.3614C3.24717,12.1796,2.98477,11.9787,2.73877,11.7573C3.15014,11.5797,3.60933,11.4266,4.10269,11.3036C4.40336,12.0552,4.78465,12.6812,5.22198,13.1404C5.20968,13.1363,5.19602,13.1322,5.18372,13.1294C5.14818,13.1158,5.11812,13.1062,5.08942,13.098ZM2.07595,11.0685C2.05545,11.0439,2.03495,11.018,2.01445,10.9934C2.00351,10.9797,1.99258,10.9674,1.98301,10.9537C1.96388,10.9305,1.94611,10.9059,1.92835,10.8827C1.91605,10.8676,1.90512,10.8526,1.89282,10.8362C1.87505,10.813,1.85865,10.7897,1.84088,10.7665C1.82858,10.7501,1.81628,10.7337,1.80398,10.7159L1.75478,10.6462L1.71788,10.5929C1.70285,10.5697,1.68645,10.5465,1.67142,10.5232C1.65912,10.5055,1.64682,10.4863,1.63588,10.4686C1.62085,10.4453,1.60582,10.4221,1.59215,10.3989C1.57985,10.3797,1.56892,10.3606,1.55662,10.3415C1.54295,10.3182,1.52792,10.295,1.51425,10.2718C1.50195,10.2526,1.49102,10.2321,1.48009,10.213C1.46642,10.1898,1.45275,10.1665,1.44045,10.1433C1.42952,10.1228,1.41859,10.1037,1.40629,10.0832C1.39399,10.0599,1.38032,10.0367,1.36802,10.0135L1.33522,9.95197C1.32292,9.92873,1.31062,9.9055,1.29832,9.8809C1.28739,9.8604,1.27782,9.83853,1.26689,9.81803C1.25459,9.7948,1.24365,9.7702,1.23272,9.74697C1.22179,9.7251,1.21222,9.70323,1.20266,9.68137C1.19172,9.65814,1.18079,9.6349,1.16986,9.6103C1.16029,9.58844,1.15072,9.5652,1.13979,9.54333C1.13022,9.5201,1.11929,9.49687,1.10972,9.47364C1.10016,9.44904,1.08922,9.42444,1.07966,9.39984C1.07009,9.37797,1.06189,9.3561,1.05232,9.33424C1.03456,9.28914,1.01679,9.24267,1.00039,9.1962C0.993557,9.1757,0.985357,9.1552,0.978524,9.1347L0.949824,9.0527C0.942991,9.03084,0.934791,9.00897,0.927958,8.98574C0.919758,8.95977,0.910191,8.93381,0.901992,8.90784C0.895158,8.88461,0.888325,8.86274,0.881492,8.83951C0.873292,8.81354,0.865092,8.78757,0.858259,8.76161C0.851425,8.73837,0.845959,8.71514,0.839125,8.69191C0.832292,8.66594,0.824092,8.63998,0.817259,8.61264C0.811792,8.58941,0.804959,8.56618,0.799493,8.54294C0.792659,8.51698,0.785826,8.48964,0.780359,8.46368L0.76396,8.39398C0.758493,8.36664,0.75166,8.34068,0.746193,8.31334C0.740726,8.29011,0.736626,8.26688,0.73116,8.24228C0.725693,8.21495,0.720227,8.18761,0.716127,8.16165C0.712027,8.13841,0.707927,8.11381,0.703827,8.09058C0.699727,8.06325,0.69426,8.03591,0.69016,8.00858C0.68606,7.98535,0.683327,7.96075,0.679227,7.93752C0.675127,7.91018,0.671027,7.88148,0.666927,7.85415C0.664194,7.83092,0.660094,7.80768,0.657361,7.78445C0.653261,7.75575,0.650527,7.72705,0.647794,7.69835C0.645061,7.67512,0.642327,7.65188,0.640961,7.62865L0.632761,7.53845C0.631394,7.51659,0.628661,7.49335,0.627294,7.47149C0.624561,7.44005,0.623194,7.40862,0.621828,7.37719C0.620461,7.36215,0.620461,7.34575,0.619094,7.33072L3.3524,7.33072C3.3811,8.57711,3.5738,9.72783,3.8895,10.7105C3.295,10.8608,2.74834,11.0535,2.26591,11.2817C2.20578,11.2147,2.14701,11.1464,2.08825,11.0781C2.08278,11.0781,2.07868,11.074,2.07595,11.0685ZM3.52733,1.63862C3.56287,1.61538,3.5984,1.59352,3.63393,1.57165C3.64077,1.56755,3.64623,1.56345,3.65307,1.55935C3.68586,1.53885,3.72003,1.51835,3.7542,1.49922C3.7624,1.49375,3.77196,1.48829,3.78016,1.48419C3.81296,1.46505,3.84576,1.44729,3.8772,1.42815C3.88813,1.42269,3.8977,1.41585,3.90863,1.41039C3.94006,1.39262,3.97286,1.37485,4.0043,1.35845C4.01523,1.35162,4.02753,1.34615,4.03846,1.34069L4.13276,1.29149C4.14506,1.28465,4.15736,1.27919,4.16966,1.27235C4.20109,1.25732,4.23253,1.24092,4.26396,1.22589C4.27626,1.22042,4.28993,1.21359,4.30223,1.20812C4.33366,1.19309,4.36509,1.17806,4.39789,1.16439C4.41019,1.15892,4.42386,1.15346,4.43616,1.14799C4.46896,1.13432,4.50176,1.11929,4.53319,1.10562C4.54549,1.10016,4.55642,1.09606,4.56872,1.09059C4.60289,1.07692,4.63706,1.06189,4.67122,1.04959C4.67942,1.04686,4.68762,1.04276,4.69582,1.04002C4.81609,0.993558,4.93772,0.951191,5.06072,0.911558L5.08532,0.903358C5.11538,0.893792,5.14545,0.885592,5.17552,0.876025C5.18782,0.871925,5.20012,0.867825,5.21378,0.865092C4.77645,1.32429,4.39652,1.95022,4.09449,2.70187C3.60113,2.57888,3.14194,2.42581,2.73057,2.24815C2.97657,2.02675,3.24034,1.82448,3.51777,1.64408C3.52323,1.64135,3.52597,1.63998,3.52733,1.63862ZM8.90648,0.901992L8.93108,0.910192C9.05408,0.949825,9.17708,0.992191,9.29735,1.03866C9.30554,1.04139,9.31374,1.04549,9.32195,1.04822L9.42444,1.08922C9.43674,1.09469,9.44904,1.09879,9.45998,1.10426C9.49278,1.11792,9.52558,1.13159,9.55701,1.14662C9.56931,1.15209,9.58298,1.15756,9.59528,1.16302C9.62671,1.17669,9.65951,1.19172,9.69094,1.20676C9.70324,1.21222,9.71691,1.21906,9.72921,1.22452C9.76064,1.23956,9.79207,1.25459,9.82487,1.27099C9.83717,1.27645,9.84947,1.28329,9.86177,1.28875C9.89321,1.30515,9.92601,1.32155,9.95744,1.33795C9.96837,1.34342,9.98067,1.35025,9.99161,1.35572C10.023,1.37349,10.0558,1.38989,10.0873,1.40765C10.0982,1.41312,10.1078,1.41995,10.1187,1.42542C10.1515,1.44319,10.1843,1.46232,10.2157,1.48145C10.2239,1.48692,10.2335,1.49239,10.2417,1.49649C10.2759,1.51699,10.3087,1.53612,10.3428,1.55662C10.3497,1.56072,10.3551,1.56482,10.362,1.56892C10.3975,1.59079,10.433,1.61402,10.4686,1.63588C10.4699,1.63725,10.4727,1.63862,10.474,1.63998C10.7528,1.82175,11.0152,2.02401,11.2626,2.24405C10.8512,2.42171,10.392,2.57478,9.89868,2.69777C9.59801,1.94611,9.21672,1.32019,8.77939,0.860992C8.79169,0.865092,8.80399,0.867825,8.81629,0.871925C8.84635,0.884225,8.87642,0.892425,8.90648,0.901992ZM10.6435,6.66517C10.6148,5.41878,10.4221,4.26806,10.1064,3.28544C10.7009,3.1351,11.2476,2.94241,11.73,2.71417C12.688,3.7706,13.2975,5.14955,13.3768,6.66654L10.6435,6.66654L10.6435,6.66517ZM6.66244,3.0408C5.98184,3.02304,5.32448,2.95197,4.71086,2.83581C5.20285,1.65228,5.89438,0.837759,6.66244,0.651894L6.66244,3.0408ZM6.66244,3.64897L6.66244,6.66517L3.9592,6.66517C3.99063,5.47618,4.18469,4.36099,4.49492,3.42073C5.17005,3.55193,5.89848,3.6312,6.66244,3.64897ZM6.66244,7.33483L6.66244,10.351C5.89848,10.3688,5.17005,10.4481,4.49492,10.5793C4.18469,9.63764,3.99063,8.52382,3.9592,7.33483L6.66244,7.33483ZM6.66244,10.9592L6.66244,13.3481C5.89438,13.1622,5.20285,12.3477,4.71086,11.1642C5.32585,11.048,5.98184,10.977,6.66244,10.9592ZM7.3321,10.9592C8.01269,10.977,8.67005,11.048,9.28368,11.1642C8.79168,12.3477,8.10016,13.1622,7.3321,13.3481L7.3321,10.9592ZM7.3321,10.351L7.3321,7.33483L10.0353,7.33483C10.0039,8.52382,9.80984,9.63901,9.49961,10.5793C8.82448,10.4481,8.09606,10.3688,7.3321,10.351ZM7.3321,6.66517L7.3321,3.64897C8.09606,3.6312,8.82448,3.55193,9.49961,3.42073C9.80984,4.36236,10.0039,5.47618,10.0353,6.66517L7.3321,6.66517ZM7.3321,3.0408L7.3321,0.651894C8.10016,0.837759,8.79168,1.65228,9.28368,2.83581C8.66868,2.95197,8.01269,3.02304,7.3321,3.0408ZM2.26455,2.71281C2.74697,2.94104,3.29227,3.13374,3.88813,3.28407C3.57243,4.26669,3.3811,5.41878,3.35104,6.6638L0.617728,6.6638C0.695627,5.14818,1.30515,3.7706,2.26455,2.71281Z" fill-opacity="1"/></g></svg>