<svg xmlns="http://www.w3.org/2000/svg" width="20" height="20" viewBox="0 0 20 20">
  <g id="协议说明" transform="translate(-20 -212)">
    <rect id="矩形_6255" data-name="矩形 6255" width="20" height="20" transform="translate(20 212)" fill="#333" opacity="0"/>
    <g id="文档" transform="translate(-91.963 171.334)">
      <path id="路径_24381" data-name="路径 24381" d="M126.364,58.667h-8.8A2.359,2.359,0,0,1,115.2,56.3V45.03a2.382,2.382,0,0,1,2.364-2.364h6.945a1.045,1.045,0,0,1,.655.255l3.309,3.309a.876.876,0,0,1,.255.655V56.3A2.382,2.382,0,0,1,126.364,58.667Zm-8.8-14.909a1.288,1.288,0,0,0-1.273,1.273V56.267a1.288,1.288,0,0,0,1.273,1.273h8.764a1.288,1.288,0,0,0,1.273-1.273V46.958l-3.164-3.2Z"  />
      <path id="路径_24382" data-name="路径 24382" d="M268.17,56.291H264.9a.9.9,0,0,1-.909-.909V51.745a.545.545,0,1,1,1.091,0V55.2h3.091a.545.545,0,0,1,0,1.091Zm-6.436,1.382h-3.055a.545.545,0,1,1,0-1.091h3.055a.559.559,0,0,1,.545.545A.536.536,0,0,1,261.733,57.673Zm3.055,3.018h-6.109a.545.545,0,1,1,0-1.091h6.145a.559.559,0,0,1,.545.545A.567.567,0,0,1,264.788,60.691Zm0,3.018h-6.109a.545.545,0,1,1,0-1.091h6.145a.559.559,0,0,1,.545.545A.593.593,0,0,1,264.788,63.709Z" transform="translate(-140.497 -8.388)"  />
    </g>
  </g>
</svg>
