<svg xmlns="http://www.w3.org/2000/svg" width="20" height="20" viewBox="0 0 20 20">
  <g id="用户登录" transform="translate(-20 -212)">
    <rect id="矩形_6255" data-name="矩形 6255" width="20" height="20" transform="translate(20 212)" fill="#333" opacity="0"/>
    <g id="我的-02" transform="translate(-71.334 150)">
      <path id="路径_24737" data-name="路径 24737" d="M107.848,517.264H94.819a.943.943,0,0,1-.952-.952v-.038a7.478,7.478,0,0,1,14.933,0,.943.943,0,0,1-.914.99ZM107.657,516.35Zm-12.648-.229h12.648a6.343,6.343,0,0,0-12.648,0Z" transform="translate(0 -437.264)"  />
      <path id="路径_24738" data-name="路径 24738" d="M262.667,73.1a4.552,4.552,0,1,1,4.533-4.571,4.52,4.52,0,0,1-4.533,4.571Zm0-7.962a3.39,3.39,0,1,0,3.39,3.39A3.4,3.4,0,0,0,262.667,65.143Z" transform="translate(-161.333)"  />
    </g>
  </g>
</svg>
